<?xml version="1.0" standalone="no"?>
<!DOCTYPE svg PUBLIC "-//W3C//DTD SVG 1.1//EN" "http://www.w3.org/Graphics/SVG/1.1/DTD/svg11.dtd" >
<svg xmlns="http://www.w3.org/2000/svg" xmlns:xlink="http://www.w3.org/1999/xlink" version="1.1">
<metadata>
Created by FontForge 20190801 at Tue Jan  8 22:41:33 2019
 By Jimmy Wärting
Maison Neue is the thoroughly reworked version of our early Maison typeface family. While the original version was constructed on geometric principles, Maison Neue has now been meticulously redrawn and extended. Paying particular attention to harmony, rhythm and flow, the new typeface also accounts for up-to-date display and reproduction technologies to create a distinctly contemporary grotesque, with a classic touch. The whole family contains 40 styles thus far; each includes an extended Latin character set and a variety of OpenType features.
</metadata>
<defs>
<font id="MaisonNeue-Book" horiz-adv-x="650" >
  <font-face 
    font-family="Maison Neue"
    font-weight="400"
    font-stretch="normal"
    units-per-em="1000"
    panose-1="2 11 5 4 4 0 0 0 0 0"
    ascent="730"
    descent="-270"
    x-height="530"
    cap-height="700"
    bbox="-642 -300 2106 1014"
    underline-thickness="70"
    underline-position="-120"
    unicode-range="U+000D-FEFF"
  />
<missing-glyph horiz-adv-x="686" 
d="M65 -5v423c0 171 131 292 292 292c161 2 297 -123 294 -292v-423h-28l-65 65l-68 -65l-63 65l-71 -65l-69 65l-63 -65l-67 65l-66 -65h-26zM165 300l63 63l64 -63l14 14l-64 63l64 64l-14 14l-64 -64l-63 64l-14 -14l63 -64l-63 -63zM425 300l63 63l64 -63l14 14l-64 63
l64 64l-14 14l-64 -64l-63 64l-14 -14l63 -64l-63 -63z" />
    <glyph glyph-name="W_W_W" unicode="WWW" horiz-adv-x="2126" 
d="M149 0l-129 700h85l103 -569h2l173 569h78l174 -569h2l174 569h78l173 -569h2l174 569h78l173 -569h2l174 569h78l173 -569h2l103 569h85l-129 -700h-100l-172 562h-2l-172 -562h-82l-171 562h-2l-172 -562h-82l-171 562h-2l-172 -562h-82l-172 562h-2l-171 -562h-101z
" />
    <glyph glyph-name="fi" unicode="fi" horiz-adv-x="535" 
d="M385 710h90v-87h-90v87zM189 530h283v-530h-78v460h-205v-460h-78v460h-91v70h91v58c0 68 44 112 119 112h78v-73h-69c-33 0 -50 -17 -50 -50v-47z" />
    <glyph glyph-name="fl" unicode="fl" horiz-adv-x="537" 
d="M394 730h78v-730h-78v460h-205v-460h-78v460h-91v70h91v58c0 68 44 112 119 112h78v-73h-69c-33 0 -50 -17 -50 -50v-47h205v200z" />
    <glyph glyph-name="w_w_w" unicode="www" horiz-adv-x="1828" 
d="M152 0l-127 530h77l96 -412h2l142 412h71l142 -412h2l143 412h70l143 -412h2l143 412h70l143 -412h2l142 412h70l143 -412h2l96 412h77l-127 -530h-74l-151 433h-2l-150 -433h-55l-150 433h-2l-151 -433h-54l-151 433h-2l-150 -433h-55l-150 433h-2l-151 -433h-74z" />
    <glyph glyph-name=".notdef" horiz-adv-x="686" 
d="M65 -5v423c0 171 131 292 292 292c161 2 297 -123 294 -292v-423h-28l-65 65l-68 -65l-63 65l-71 -65l-69 65l-63 -65l-67 65l-66 -65h-26zM165 300l63 63l64 -63l14 14l-64 63l64 64l-14 14l-64 -64l-63 64l-14 -14l63 -64l-63 -63zM425 300l63 63l64 -63l14 14l-64 63
l64 64l-14 14l-64 -64l-63 64l-14 -14l63 -64l-63 -63z" />
    <glyph glyph-name="NULL" horiz-adv-x="0" 
 />
    <glyph glyph-name="CR" unicode="&#xd;" horiz-adv-x="351" 
 />
    <glyph glyph-name="space" unicode=" " horiz-adv-x="270" 
 />
    <glyph glyph-name="A" unicode="A" horiz-adv-x="593" 
d="M503 0l-49 141h-315l-49 -141h-85l252 700h80l251 -700h-85zM165 213h264l-131 374h-2z" />
    <glyph glyph-name="Aacute" unicode="&#xc1;" horiz-adv-x="593" 
d="M503 0l-49 141h-315l-49 -141h-85l252 700h80l251 -700h-85zM165 213h264l-131 374h-2zM250 760l74 116h98l-102 -116h-70z" />
    <glyph glyph-name="Abreve" unicode="&#x102;" horiz-adv-x="593" 
d="M503 0l-49 141h-315l-49 -141h-85l252 700h80l251 -700h-85zM165 213h264l-131 374h-2zM170 871h49c5 -36 35 -56 79 -56c43 0 73 20 78 56h49c-4 -75 -52 -121 -127 -121c-76 0 -124 46 -128 121z" />
    <glyph glyph-name="uni01CD" unicode="&#x1cd;" horiz-adv-x="593" 
d="M503 0l-49 141h-315l-49 -141h-85l252 700h80l251 -700h-85zM165 213h264l-131 374h-2zM370 872l47 -37l-66 -85h-108l-66 85l47 37l73 -92z" />
    <glyph glyph-name="Acircumflex" unicode="&#xc2;" horiz-adv-x="593" 
d="M503 0l-49 141h-315l-49 -141h-85l252 700h80l251 -700h-85zM165 213h264l-131 374h-2zM417 777l-47 -37l-73 92l-73 -92l-47 37l66 85h108z" />
    <glyph glyph-name="uni1EAC" unicode="&#x1eac;" horiz-adv-x="593" 
d="M503 0l-49 141h-315l-49 -141h-85l252 700h80l251 -700h-85zM165 213h264l-131 374h-2zM417 777l-47 -37l-73 92l-73 -92l-47 37l66 85h108zM249 -143v94h96v-94h-96z" />
    <glyph glyph-name="Adieresis" unicode="&#xc4;" horiz-adv-x="593" 
d="M503 0l-49 141h-315l-49 -141h-85l252 700h80l251 -700h-85zM165 213h264l-131 374h-2zM159 750v94h96v-94h-96zM339 750v94h96v-94h-96z" />
    <glyph glyph-name="uni01DE" unicode="&#x1de;" horiz-adv-x="593" 
d="M503 0l-49 141h-315l-49 -141h-85l252 700h80l251 -700h-85zM165 213h264l-131 374h-2zM159 750v94h96v-94h-96zM339 750v94h96v-94h-96zM164 884v63h267v-63h-267z" />
    <glyph glyph-name="uni1EA0" unicode="&#x1ea0;" horiz-adv-x="593" 
d="M503 0l-49 141h-315l-49 -141h-85l252 700h80l251 -700h-85zM165 213h264l-131 374h-2zM249 -143v94h96v-94h-96z" />
    <glyph glyph-name="Agrave" unicode="&#xc0;" horiz-adv-x="593" 
d="M503 0l-49 141h-315l-49 -141h-85l252 700h80l251 -700h-85zM165 213h264l-131 374h-2zM271 760l-102 116h98l74 -116h-70z" />
    <glyph glyph-name="Amacron" unicode="&#x100;" horiz-adv-x="593" 
d="M503 0l-49 141h-315l-49 -141h-85l252 700h80l251 -700h-85zM165 213h264l-131 374h-2zM164 760v63h267v-63h-267z" />
    <glyph glyph-name="Aogonek" unicode="&#x104;" horiz-adv-x="593" 
d="M503 0l-49 141h-315l-49 -141h-85l252 700h80l251 -700h-85zM165 213h264l-131 374h-2zM434 -119c0 45 39 96 102 131l42 -12c-52 -29 -78 -62 -78 -99c0 -23 11 -35 34 -35c17 0 37 6 59 18l24 -63c-30 -14 -61 -21 -94 -21c-55 0 -89 30 -89 81z" />
    <glyph glyph-name="Aring" unicode="&#xc5;" horiz-adv-x="593" 
d="M503 0l-49 141h-315l-49 -141h-85l252 700h80l251 -700h-85zM165 213h264l-131 374h-2zM175 765c0 65 51 114 122 114s122 -47 122 -114c0 -65 -51 -113 -122 -113s-122 48 -122 113zM363 765c0 39 -27 66 -66 66s-65 -27 -65 -66c0 -37 26 -65 65 -65s66 28 66 65z" />
    <glyph glyph-name="Aringacute" unicode="&#x1fa;" horiz-adv-x="593" 
d="M503 0l-49 141h-315l-49 -141h-85l252 700h80l251 -700h-85zM165 213h264l-131 374h-2zM175 765c0 65 51 114 122 114s122 -47 122 -114c0 -65 -51 -113 -122 -113s-122 48 -122 113zM363 765c0 39 -27 66 -66 66s-65 -27 -65 -66c0 -37 26 -65 65 -65s66 28 66 65z
M250 869l74 116h98l-102 -116h-70z" />
    <glyph glyph-name="Atilde" unicode="&#xc3;" horiz-adv-x="593" 
d="M503 0l-49 141h-315l-49 -141h-85l252 700h80l251 -700h-85zM165 213h264l-131 374h-2zM284 777c-16 8 -32 16 -47 16c-19 0 -31 -11 -36 -33h-47c4 57 38 93 87 93c25 0 44 -9 68 -22c16 -8 32 -16 47 -16c19 0 31 11 36 33h47c-4 -57 -38 -93 -87 -93
c-25 0 -44 9 -68 22z" />
    <glyph glyph-name="AE" unicode="&#xc6;" horiz-adv-x="858" 
d="M803 622h-277v-224h249v-75h-249v-245h277v-78h-360v149h-280l-66 -149h-92l316 700h482v-78zM197 225h246v397h-70z" />
    <glyph glyph-name="AEacute" unicode="&#x1fc;" horiz-adv-x="858" 
d="M803 622h-277v-224h249v-75h-249v-245h277v-78h-360v149h-280l-66 -149h-92l316 700h482v-78zM197 225h246v397h-70zM388 760l74 116h98l-102 -116h-70z" />
    <glyph glyph-name="B" unicode="B" horiz-adv-x="631" 
d="M86 0v700h269c61 0 111 -17 148 -50s56 -76 56 -131c0 -68 -31 -121 -82 -144v-2c65 -23 108 -86 108 -166c0 -135 -85 -207 -246 -207h-253zM168 403h172c91 0 136 37 136 112c0 71 -47 107 -136 107h-172v-219zM168 78h160c121 0 174 38 174 129c0 87 -49 123 -172 123
h-162v-252z" />
    <glyph glyph-name="uni1E04" unicode="&#x1e04;" horiz-adv-x="631" 
d="M86 0v700h269c61 0 111 -17 148 -50s56 -76 56 -131c0 -68 -31 -121 -82 -144v-2c65 -23 108 -86 108 -166c0 -135 -85 -207 -246 -207h-253zM168 403h172c91 0 136 37 136 112c0 71 -47 107 -136 107h-172v-219zM168 78h160c121 0 174 38 174 129c0 87 -49 123 -172 123
h-162v-252zM268 -143v94h96v-94h-96z" />
    <glyph glyph-name="C" unicode="C" horiz-adv-x="645" 
d="M45 350c0 218 119 365 295 365c72 0 132 -22 180 -66c49 -44 78 -103 88 -178l-82 -14c-20 117 -85 180 -186 180c-131 0 -212 -111 -212 -287c0 -179 80 -287 212 -287c108 0 172 68 185 196l85 -11c-7 -81 -34 -146 -82 -193s-111 -70 -188 -70
c-178 0 -295 144 -295 365z" />
    <glyph glyph-name="Cacute" unicode="&#x106;" horiz-adv-x="645" 
d="M45 350c0 218 119 365 295 365c72 0 132 -22 180 -66c49 -44 78 -103 88 -178l-82 -14c-20 117 -85 180 -186 180c-131 0 -212 -111 -212 -287c0 -179 80 -287 212 -287c108 0 172 68 185 196l85 -11c-7 -81 -34 -146 -82 -193s-111 -70 -188 -70
c-178 0 -295 144 -295 365zM293 775l74 116h98l-102 -116h-70z" />
    <glyph glyph-name="Ccaron" unicode="&#x10c;" horiz-adv-x="645" 
d="M45 350c0 218 119 365 295 365c72 0 132 -22 180 -66c49 -44 78 -103 88 -178l-82 -14c-20 117 -85 180 -186 180c-131 0 -212 -111 -212 -287c0 -179 80 -287 212 -287c108 0 172 68 185 196l85 -11c-7 -81 -34 -146 -82 -193s-111 -70 -188 -70
c-178 0 -295 144 -295 365zM413 887l47 -37l-66 -85h-108l-66 85l47 37l73 -92z" />
    <glyph glyph-name="Ccedilla" unicode="&#xc7;" horiz-adv-x="645" 
d="M45 350c0 218 119 365 295 365c72 0 132 -22 180 -66c49 -44 78 -103 88 -178l-82 -14c-20 117 -85 180 -186 180c-131 0 -212 -111 -212 -287c0 -179 80 -287 212 -287c108 0 172 68 185 196l85 -11c-7 -81 -34 -146 -82 -193s-111 -70 -188 -70
c-178 0 -295 144 -295 365zM463 -139c0 -55 -44 -91 -103 -91c-39 0 -73 13 -102 40l34 41c21 -20 43 -30 68 -30c29 0 48 17 48 41s-20 40 -47 40c-22 0 -40 -9 -55 -26l-43 19l64 119l46 -14l-35 -60c10 4 21 6 34 6c51 0 91 -36 91 -85z" />
    <glyph glyph-name="Ccircumflex" unicode="&#x108;" horiz-adv-x="645" 
d="M45 350c0 218 119 365 295 365c72 0 132 -22 180 -66c49 -44 78 -103 88 -178l-82 -14c-20 117 -85 180 -186 180c-131 0 -212 -111 -212 -287c0 -179 80 -287 212 -287c108 0 172 68 185 196l85 -11c-7 -81 -34 -146 -82 -193s-111 -70 -188 -70
c-178 0 -295 144 -295 365zM460 792l-47 -37l-73 92l-73 -92l-47 37l66 85h108z" />
    <glyph glyph-name="Cdotaccent" unicode="&#x10a;" horiz-adv-x="645" 
d="M45 350c0 218 119 365 295 365c72 0 132 -22 180 -66c49 -44 78 -103 88 -178l-82 -14c-20 117 -85 180 -186 180c-131 0 -212 -111 -212 -287c0 -179 80 -287 212 -287c108 0 172 68 185 196l85 -11c-7 -81 -34 -146 -82 -193s-111 -70 -188 -70
c-178 0 -295 144 -295 365zM292 775v94h96v-94h-96z" />
    <glyph glyph-name="D" unicode="D" horiz-adv-x="651" 
d="M86 0v700h218c179 0 302 -131 302 -349c0 -237 -116 -351 -308 -351h-212zM168 78h125c148 0 230 82 230 273c0 176 -85 271 -224 271h-131v-544z" />
    <glyph glyph-name="Eth" unicode="&#xd0;" horiz-adv-x="651" 
d="M86 0v700h218c179 0 302 -131 302 -349c0 -237 -116 -351 -308 -351h-212zM168 78h125c148 0 230 82 230 273c0 176 -85 271 -224 271h-131v-544zM-4 318v69h352v-69h-352z" />
    <glyph glyph-name="Dcaron" unicode="&#x10e;" horiz-adv-x="651" 
d="M86 0v700h218c179 0 302 -131 302 -349c0 -237 -116 -351 -308 -351h-212zM168 78h125c148 0 230 82 230 273c0 176 -85 271 -224 271h-131v-544zM369 872l47 -37l-66 -85h-108l-66 85l47 37l73 -92z" />
    <glyph glyph-name="Dcroat" unicode="&#x110;" horiz-adv-x="651" 
d="M86 0v700h218c179 0 302 -131 302 -349c0 -237 -116 -351 -308 -351h-212zM168 78h125c148 0 230 82 230 273c0 176 -85 271 -224 271h-131v-544zM-4 318v69h352v-69h-352z" />
    <glyph glyph-name="uni1E0C" unicode="&#x1e0c;" horiz-adv-x="651" 
d="M86 0v700h218c179 0 302 -131 302 -349c0 -237 -116 -351 -308 -351h-212zM168 78h125c148 0 230 82 230 273c0 176 -85 271 -224 271h-131v-544zM275 -143v94h96v-94h-96z" />
    <glyph glyph-name="E" unicode="E" horiz-adv-x="561" 
d="M86 0v700h420v-78h-338v-224h310v-74h-310v-246h338v-78h-420z" />
    <glyph glyph-name="Eacute" unicode="&#xc9;" horiz-adv-x="561" 
d="M86 0v700h420v-78h-338v-224h310v-74h-310v-246h338v-78h-420zM260 760l74 116h98l-102 -116h-70z" />
    <glyph glyph-name="Ebreve" unicode="&#x114;" horiz-adv-x="561" 
d="M86 0v700h420v-78h-338v-224h310v-74h-310v-246h338v-78h-420zM180 871h49c5 -36 35 -56 79 -56c43 0 73 20 78 56h49c-4 -75 -52 -121 -127 -121c-76 0 -124 46 -128 121z" />
    <glyph glyph-name="Ecaron" unicode="&#x11a;" horiz-adv-x="561" 
d="M86 0v700h420v-78h-338v-224h310v-74h-310v-246h338v-78h-420zM380 872l47 -37l-66 -85h-108l-66 85l47 37l73 -92z" />
    <glyph glyph-name="uni0228" unicode="&#x228;" horiz-adv-x="561" 
d="M86 0v700h420v-78h-338v-224h310v-74h-310v-246h338v-78h-420zM419 -125c0 -55 -44 -91 -103 -91c-39 0 -73 13 -102 40l34 41c21 -20 43 -30 68 -30c29 0 48 17 48 41s-20 40 -47 40c-22 0 -40 -9 -55 -26l-43 19l64 119l46 -14l-35 -60c10 4 21 6 34 6
c51 0 91 -36 91 -85z" />
    <glyph glyph-name="Ecircumflex" unicode="&#xca;" horiz-adv-x="561" 
d="M86 0v700h420v-78h-338v-224h310v-74h-310v-246h338v-78h-420zM427 777l-47 -37l-73 92l-73 -92l-47 37l66 85h108z" />
    <glyph glyph-name="uni1EC6" unicode="&#x1ec6;" horiz-adv-x="561" 
d="M86 0v700h420v-78h-338v-224h310v-74h-310v-246h338v-78h-420zM427 777l-47 -37l-73 92l-73 -92l-47 37l66 85h108zM248 -143v94h96v-94h-96z" />
    <glyph glyph-name="Edieresis" unicode="&#xcb;" horiz-adv-x="561" 
d="M86 0v700h420v-78h-338v-224h310v-74h-310v-246h338v-78h-420zM169 750v94h96v-94h-96zM349 750v94h96v-94h-96z" />
    <glyph glyph-name="Edotaccent" unicode="&#x116;" horiz-adv-x="561" 
d="M86 0v700h420v-78h-338v-224h310v-74h-310v-246h338v-78h-420zM259 760v94h96v-94h-96z" />
    <glyph glyph-name="uni1EB8" unicode="&#x1eb8;" horiz-adv-x="561" 
d="M86 0v700h420v-78h-338v-224h310v-74h-310v-246h338v-78h-420zM248 -143v94h96v-94h-96z" />
    <glyph glyph-name="Egrave" unicode="&#xc8;" horiz-adv-x="561" 
d="M86 0v700h420v-78h-338v-224h310v-74h-310v-246h338v-78h-420zM281 760l-102 116h98l74 -116h-70z" />
    <glyph glyph-name="Emacron" unicode="&#x112;" horiz-adv-x="561" 
d="M86 0v700h420v-78h-338v-224h310v-74h-310v-246h338v-78h-420zM174 760v63h267v-63h-267z" />
    <glyph glyph-name="Eogonek" unicode="&#x118;" horiz-adv-x="561" 
d="M86 0v700h420v-78h-338v-224h310v-74h-310v-246h338v-78h-420zM310 -119c0 45 39 96 102 131l42 -12c-52 -29 -78 -62 -78 -99c0 -23 11 -35 34 -35c17 0 37 6 59 18l24 -63c-30 -14 -61 -21 -94 -21c-55 0 -89 30 -89 81z" />
    <glyph glyph-name="uni018E" unicode="&#x18e;" horiz-adv-x="561" 
d="M475 0h-420v78h338v246h-310v74h310v224h-338v78h420v-700z" />
    <glyph glyph-name="uni1EBC" unicode="&#x1ebc;" horiz-adv-x="561" 
d="M86 0v700h420v-78h-338v-224h310v-74h-310v-246h338v-78h-420zM294 777c-16 8 -32 16 -47 16c-19 0 -31 -11 -36 -33h-47c4 57 38 93 87 93c25 0 44 -9 68 -22c16 -8 32 -16 47 -16c19 0 31 11 36 33h47c-4 -57 -38 -93 -87 -93c-25 0 -44 9 -68 22z" />
    <glyph glyph-name="F" unicode="F" horiz-adv-x="552" 
d="M86 0v700h421v-78h-339v-250h311v-74h-311v-298h-82z" />
    <glyph glyph-name="G" unicode="G" horiz-adv-x="653" 
d="M45 350c0 221 117 365 295 365c139 0 246 -92 266 -231l-82 -15c-20 109 -84 168 -184 168c-131 0 -212 -111 -212 -287s81 -287 212 -287c120 0 190 78 187 205h-178v78h259v-71c0 -177 -106 -290 -268 -290c-178 0 -295 144 -295 365z" />
    <glyph glyph-name="Gbreve" unicode="&#x11e;" horiz-adv-x="653" 
d="M45 350c0 221 117 365 295 365c139 0 246 -92 266 -231l-82 -15c-20 109 -84 168 -184 168c-131 0 -212 -111 -212 -287s81 -287 212 -287c120 0 190 78 187 205h-178v78h259v-71c0 -177 -106 -290 -268 -290c-178 0 -295 144 -295 365zM213 886h49c5 -36 35 -56 79 -56
c43 0 73 20 78 56h49c-4 -75 -52 -121 -127 -121c-76 0 -124 46 -128 121z" />
    <glyph glyph-name="Gcircumflex" unicode="&#x11c;" horiz-adv-x="653" 
d="M45 350c0 221 117 365 295 365c139 0 246 -92 266 -231l-82 -15c-20 109 -84 168 -184 168c-131 0 -212 -111 -212 -287s81 -287 212 -287c120 0 190 78 187 205h-178v78h259v-71c0 -177 -106 -290 -268 -290c-178 0 -295 144 -295 365zM460 792l-47 -37l-73 92l-73 -92
l-47 37l66 85h108z" />
    <glyph glyph-name="uni0122" unicode="&#x122;" horiz-adv-x="653" 
d="M45 350c0 221 117 365 295 365c139 0 246 -92 266 -231l-82 -15c-20 109 -84 168 -184 168c-131 0 -212 -111 -212 -287s81 -287 212 -287c120 0 190 78 187 205h-178v78h259v-71c0 -177 -106 -290 -268 -290c-178 0 -295 144 -295 365zM293 -248v37c28 5 40 19 40 51
h-45v96h104v-83c0 -63 -35 -98 -99 -101z" />
    <glyph glyph-name="Gdotaccent" unicode="&#x120;" horiz-adv-x="653" 
d="M45 350c0 221 117 365 295 365c139 0 246 -92 266 -231l-82 -15c-20 109 -84 168 -184 168c-131 0 -212 -111 -212 -287s81 -287 212 -287c120 0 190 78 187 205h-178v78h259v-71c0 -177 -106 -290 -268 -290c-178 0 -295 144 -295 365zM292 775v94h96v-94h-96z" />
    <glyph glyph-name="H" unicode="H" horiz-adv-x="652" 
d="M86 0v700h82v-304h316v304h82v-700h-82v324h-316v-324h-82z" />
    <glyph glyph-name="Hbar" unicode="&#x126;" horiz-adv-x="642" 
d="M642 584v-69h-80v-515h-83v323h-315v-323h-83v515h-81v69h81v116h83v-116h315v116h83v-116h80zM479 396v119h-315v-119h315z" />
    <glyph glyph-name="Hcircumflex" unicode="&#x124;" horiz-adv-x="652" 
d="M86 0v700h82v-304h316v304h82v-700h-82v324h-316v-324h-82zM446 777l-47 -37l-73 92l-73 -92l-47 37l66 85h108z" />
    <glyph glyph-name="uni1E24" unicode="&#x1e24;" horiz-adv-x="652" 
d="M86 0v700h82v-304h316v304h82v-700h-82v324h-316v-324h-82zM278 -143v94h96v-94h-96z" />
    <glyph glyph-name="I" unicode="I" horiz-adv-x="254" 
d="M86 0v700h82v-700h-82z" />
    <glyph glyph-name="Iacute" unicode="&#xcd;" horiz-adv-x="254" 
d="M86 0v700h82v-700h-82zM80 760l74 116h98l-102 -116h-70z" />
    <glyph glyph-name="Ibreve" unicode="&#x12c;" horiz-adv-x="254" 
d="M86 0v700h82v-700h-82zM0 871h49c5 -36 35 -56 79 -56c43 0 73 20 78 56h49c-4 -75 -52 -121 -127 -121c-76 0 -124 46 -128 121z" />
    <glyph glyph-name="uni01CF" unicode="&#x1cf;" horiz-adv-x="254" 
d="M86 0v700h82v-700h-82zM200 872l47 -37l-66 -85h-108l-66 85l47 37l73 -92z" />
    <glyph glyph-name="Icircumflex" unicode="&#xce;" horiz-adv-x="254" 
d="M86 0v700h82v-700h-82zM247 777l-47 -37l-73 92l-73 -92l-47 37l66 85h108z" />
    <glyph glyph-name="Idieresis" unicode="&#xcf;" horiz-adv-x="254" 
d="M86 0v700h82v-700h-82zM-11 750v94h96v-94h-96zM169 750v94h96v-94h-96z" />
    <glyph glyph-name="Idotaccent" unicode="&#x130;" horiz-adv-x="254" 
d="M86 0v700h82v-700h-82zM79 760v94h96v-94h-96z" />
    <glyph glyph-name="uni1ECA" unicode="&#x1eca;" horiz-adv-x="254" 
d="M86 0v700h82v-700h-82zM79 -143v94h96v-94h-96z" />
    <glyph glyph-name="Igrave" unicode="&#xcc;" horiz-adv-x="254" 
d="M86 0v700h82v-700h-82zM101 760l-102 116h98l74 -116h-70z" />
    <glyph glyph-name="Imacron" unicode="&#x12a;" horiz-adv-x="254" 
d="M86 0v700h82v-700h-82zM-6 760v63h267v-63h-267z" />
    <glyph glyph-name="Iogonek" unicode="&#x12e;" horiz-adv-x="254" 
d="M86 0v700h82v-700h-82zM17 -119c0 45 39 96 102 131l42 -12c-52 -29 -78 -62 -78 -99c0 -23 11 -35 34 -35c17 0 37 6 59 18l24 -63c-30 -14 -61 -21 -94 -21c-55 0 -89 30 -89 81z" />
    <glyph glyph-name="Itilde" unicode="&#x128;" horiz-adv-x="254" 
d="M86 0v700h82v-700h-82zM114 777c-16 8 -32 16 -47 16c-19 0 -31 -11 -36 -33h-47c4 57 38 93 87 93c25 0 44 -9 68 -22c16 -8 32 -16 47 -16c19 0 31 11 36 33h47c-4 -57 -38 -93 -87 -93c-25 0 -44 9 -68 22z" />
    <glyph glyph-name="J" unicode="J" horiz-adv-x="522" 
d="M30 193l80 9c8 -96 45 -139 125 -139s123 56 123 159v478h83v-482c0 -147 -82 -233 -206 -233s-196 71 -205 208z" />
    <glyph glyph-name="Jcircumflex" unicode="&#x134;" horiz-adv-x="522" 
d="M30 193l80 9c8 -96 45 -139 125 -139s123 56 123 159v478h83v-482c0 -147 -82 -233 -206 -233s-196 71 -205 208zM520 777l-47 -37l-73 92l-73 -92l-47 37l66 85h108z" />
    <glyph glyph-name="K" unicode="K" horiz-adv-x="601" 
d="M86 0v700h82v-363h2l297 363h101l-255 -307l283 -393h-101l-235 329h-2l-90 -109v-220h-82z" />
    <glyph glyph-name="uni0136" unicode="&#x136;" horiz-adv-x="601" 
d="M86 0v700h82v-363h2l297 363h101l-255 -307l283 -393h-101l-235 329h-2l-90 -109v-220h-82zM284 -233v37c28 5 40 19 40 51h-45v96h104v-83c0 -63 -35 -98 -99 -101z" />
    <glyph glyph-name="L" unicode="L" horiz-adv-x="519" 
d="M86 0v700h82v-622h316v-78h-398z" />
    <glyph glyph-name="Lacute" unicode="&#x139;" horiz-adv-x="519" 
d="M86 0v700h82v-622h316v-78h-398zM80 760l74 116h98l-102 -116h-70z" />
    <glyph glyph-name="Lcaron" unicode="&#x13d;" horiz-adv-x="493" 
d="M86 0v700h82v-622h316v-78h-398zM383 516v37c28 5 40 19 40 51h-45v96h104v-83c0 -63 -35 -98 -99 -101z" />
    <glyph glyph-name="uni013B" unicode="&#x13b;" horiz-adv-x="519" 
d="M86 0v700h82v-622h316v-78h-398zM238 -233v37c28 5 40 19 40 51h-45v96h104v-83c0 -63 -35 -98 -99 -101z" />
    <glyph glyph-name="Ldot" unicode="&#x13f;" horiz-adv-x="519" 
d="M86 0v700h82v-622h316v-78h-398zM315 331v116h119v-116h-119z" />
    <glyph glyph-name="uni1E36" unicode="&#x1e36;" horiz-adv-x="519" 
d="M86 0v700h82v-622h316v-78h-398zM237 -143v94h96v-94h-96z" />
    <glyph glyph-name="Lslash" unicode="&#x141;" horiz-adv-x="568" 
d="M155 0v700h82v-622h316v-78h-398zM189 277l236 211l-35 39l-176 -158v1l-214 -199l33 -35l156 146v-5z" />
    <glyph glyph-name="M" unicode="M" horiz-adv-x="847" 
d="M86 0v700h110l227 -556h2l227 556h110v-700h-83v568h-2l-236 -568h-35l-236 568h-2v-568h-82z" />
    <glyph glyph-name="N" unicode="N" horiz-adv-x="672" 
d="M86 0v700h97l318 -571h2v571h83v-700h-98l-318 571h-2v-571h-82z" />
    <glyph glyph-name="Nacute" unicode="&#x143;" horiz-adv-x="672" 
d="M86 0v700h97l318 -571h2v571h83v-700h-98l-318 571h-2v-571h-82zM289 760l74 116h98l-102 -116h-70z" />
    <glyph glyph-name="Ncaron" unicode="&#x147;" horiz-adv-x="672" 
d="M86 0v700h97l318 -571h2v571h83v-700h-98l-318 571h-2v-571h-82zM409 872l47 -37l-66 -85h-108l-66 85l47 37l73 -92z" />
    <glyph glyph-name="uni0145" unicode="&#x145;" horiz-adv-x="672" 
d="M86 0v700h97l318 -571h2v571h83v-700h-98l-318 571h-2v-571h-82zM297 -233v37c28 5 40 19 40 51h-45v96h104v-83c0 -63 -35 -98 -99 -101z" />
    <glyph glyph-name="uni1E44" unicode="&#x1e44;" horiz-adv-x="672" 
d="M86 0v700h97l318 -571h2v571h83v-700h-98l-318 571h-2v-571h-82zM288 760v94h96v-94h-96z" />
    <glyph glyph-name="uni1E46" unicode="&#x1e46;" horiz-adv-x="672" 
d="M86 0v700h97l318 -571h2v571h83v-700h-98l-318 571h-2v-571h-82zM296 -143v94h96v-94h-96z" />
    <glyph glyph-name="Eng" unicode="&#x14a;" horiz-adv-x="668" 
d="M499 700h83v-768c0 -75 -35 -106 -122 -106h-42v73h42c29 0 44 13 44 39v62l-334 562h-2v-562h-82v700h88l323 -547h2v547z" />
    <glyph glyph-name="Ntilde" unicode="&#xd1;" horiz-adv-x="672" 
d="M86 0v700h97l318 -571h2v571h83v-700h-98l-318 571h-2v-571h-82zM323 777c-16 8 -32 16 -47 16c-19 0 -31 -11 -36 -33h-47c4 57 38 93 87 93c25 0 44 -9 68 -22c16 -8 32 -16 47 -16c19 0 31 11 36 33h47c-4 -57 -38 -93 -87 -93c-25 0 -44 9 -68 22z" />
    <glyph glyph-name="O" unicode="O" horiz-adv-x="680" 
d="M45 350c0 218 119 365 295 365s295 -147 295 -365s-119 -365 -295 -365s-295 147 -295 365zM552 350c0 176 -81 287 -212 287s-212 -111 -212 -287s81 -287 212 -287s212 111 212 287z" />
    <glyph glyph-name="Oacute" unicode="&#xd3;" horiz-adv-x="680" 
d="M45 350c0 218 119 365 295 365s295 -147 295 -365s-119 -365 -295 -365s-295 147 -295 365zM552 350c0 176 -81 287 -212 287s-212 -111 -212 -287s81 -287 212 -287s212 111 212 287zM293 775l74 116h98l-102 -116h-70z" />
    <glyph glyph-name="Obreve" unicode="&#x14e;" horiz-adv-x="680" 
d="M45 350c0 218 119 365 295 365s295 -147 295 -365s-119 -365 -295 -365s-295 147 -295 365zM552 350c0 176 -81 287 -212 287s-212 -111 -212 -287s81 -287 212 -287s212 111 212 287zM213 886h49c5 -36 35 -56 79 -56c43 0 73 20 78 56h49c-4 -75 -52 -121 -127 -121
c-76 0 -124 46 -128 121z" />
    <glyph glyph-name="uni01D1" unicode="&#x1d1;" horiz-adv-x="680" 
d="M45 350c0 218 119 365 295 365s295 -147 295 -365s-119 -365 -295 -365s-295 147 -295 365zM552 350c0 176 -81 287 -212 287s-212 -111 -212 -287s81 -287 212 -287s212 111 212 287zM413 887l47 -37l-66 -85h-108l-66 85l47 37l73 -92z" />
    <glyph glyph-name="Ocircumflex" unicode="&#xd4;" horiz-adv-x="680" 
d="M45 350c0 218 119 365 295 365s295 -147 295 -365s-119 -365 -295 -365s-295 147 -295 365zM552 350c0 176 -81 287 -212 287s-212 -111 -212 -287s81 -287 212 -287s212 111 212 287zM460 792l-47 -37l-73 92l-73 -92l-47 37l66 85h108z" />
    <glyph glyph-name="uni1ED8" unicode="&#x1ed8;" horiz-adv-x="680" 
d="M45 350c0 218 119 365 295 365s295 -147 295 -365s-119 -365 -295 -365s-295 147 -295 365zM552 350c0 176 -81 287 -212 287s-212 -111 -212 -287s81 -287 212 -287s212 111 212 287zM460 792l-47 -37l-73 92l-73 -92l-47 37l66 85h108zM292 -158v94h96v-94h-96z" />
    <glyph glyph-name="Odieresis" unicode="&#xd6;" horiz-adv-x="680" 
d="M45 350c0 218 119 365 295 365s295 -147 295 -365s-119 -365 -295 -365s-295 147 -295 365zM552 350c0 176 -81 287 -212 287s-212 -111 -212 -287s81 -287 212 -287s212 111 212 287zM202 765v94h96v-94h-96zM382 765v94h96v-94h-96z" />
    <glyph glyph-name="uni1ECC" unicode="&#x1ecc;" horiz-adv-x="680" 
d="M45 350c0 218 119 365 295 365s295 -147 295 -365s-119 -365 -295 -365s-295 147 -295 365zM552 350c0 176 -81 287 -212 287s-212 -111 -212 -287s81 -287 212 -287s212 111 212 287zM292 -158v94h96v-94h-96z" />
    <glyph glyph-name="Ograve" unicode="&#xd2;" horiz-adv-x="680" 
d="M45 350c0 218 119 365 295 365s295 -147 295 -365s-119 -365 -295 -365s-295 147 -295 365zM552 350c0 176 -81 287 -212 287s-212 -111 -212 -287s81 -287 212 -287s212 111 212 287zM314 775l-102 116h98l74 -116h-70z" />
    <glyph glyph-name="Ohungarumlaut" unicode="&#x150;" horiz-adv-x="680" 
d="M45 350c0 218 119 365 295 365s295 -147 295 -365s-119 -365 -295 -365s-295 147 -295 365zM552 350c0 176 -81 287 -212 287s-212 -111 -212 -287s81 -287 212 -287s212 111 212 287zM207 775l74 116h98l-102 -116h-70zM361 775l74 116h98l-102 -116h-70z" />
    <glyph glyph-name="Omacron" unicode="&#x14c;" horiz-adv-x="680" 
d="M45 350c0 218 119 365 295 365s295 -147 295 -365s-119 -365 -295 -365s-295 147 -295 365zM552 350c0 176 -81 287 -212 287s-212 -111 -212 -287s81 -287 212 -287s212 111 212 287zM207 775v63h267v-63h-267z" />
    <glyph glyph-name="Oslash" unicode="&#xd8;" horiz-adv-x="681" 
d="M635 350c0 -218 -119 -365 -295 -365c-54 0 -103 13 -146 40l-29 -53l-49 27l33 61c-67 64 -104 166 -104 290c0 218 119 365 295 365c55 0 104 -14 147 -41l29 53l48 -28l-33 -60c67 -64 104 -165 104 -289zM190 134l259 471c-31 21 -68 32 -109 32
c-131 0 -212 -111 -212 -287c0 -92 22 -167 62 -216zM552 350c0 91 -21 165 -61 216l-259 -472c32 -21 68 -31 108 -31c131 0 212 111 212 287z" />
    <glyph glyph-name="Oslashacute" unicode="&#x1fe;" horiz-adv-x="681" 
d="M635 350c0 -218 -119 -365 -295 -365c-54 0 -103 13 -146 40l-29 -53l-49 27l33 61c-67 64 -104 166 -104 290c0 218 119 365 295 365c55 0 104 -14 147 -41l29 53l48 -28l-33 -60c67 -64 104 -165 104 -289zM190 134l259 471c-31 21 -68 32 -109 32
c-131 0 -212 -111 -212 -287c0 -92 22 -167 62 -216zM552 350c0 91 -21 165 -61 216l-259 -472c32 -21 68 -31 108 -31c131 0 212 111 212 287zM293 775l74 116h98l-102 -116h-70z" />
    <glyph glyph-name="Otilde" unicode="&#xd5;" horiz-adv-x="680" 
d="M45 350c0 218 119 365 295 365s295 -147 295 -365s-119 -365 -295 -365s-295 147 -295 365zM552 350c0 176 -81 287 -212 287s-212 -111 -212 -287s81 -287 212 -287s212 111 212 287zM327 792c-16 8 -32 16 -47 16c-19 0 -31 -11 -36 -33h-47c4 57 38 93 87 93
c25 0 44 -9 68 -22c16 -8 32 -16 47 -16c19 0 31 11 36 33h47c-4 -57 -38 -93 -87 -93c-25 0 -44 9 -68 22z" />
    <glyph glyph-name="uni1E4C" unicode="&#x1e4c;" horiz-adv-x="680" 
d="M45 350c0 218 119 365 295 365s295 -147 295 -365s-119 -365 -295 -365s-295 147 -295 365zM552 350c0 176 -81 287 -212 287s-212 -111 -212 -287s81 -287 212 -287s212 111 212 287zM327 792c-16 8 -32 16 -47 16c-19 0 -31 -11 -36 -33h-47c4 57 38 93 87 93
c25 0 44 -9 68 -22c16 -8 32 -16 47 -16c19 0 31 11 36 33h47c-4 -57 -38 -93 -87 -93c-25 0 -44 9 -68 22zM293 898l74 116h98l-102 -116h-70z" />
    <glyph glyph-name="OE" unicode="&#x152;" horiz-adv-x="938" 
d="M45 350c0 218 119 365 295 365c61 0 113 -16 155 -47h2v32h386v-78h-303v-224h275v-75h-275v-245h303v-78h-386v31h-2c-43 -31 -94 -46 -155 -46c-176 0 -295 147 -295 365zM497 134v432c-36 47 -90 71 -157 71c-131 0 -212 -111 -212 -287s81 -287 212 -287
c69 0 121 24 157 71z" />
    <glyph glyph-name="P" unicode="P" horiz-adv-x="615" 
d="M86 0v700h270c147 0 234 -83 234 -216c0 -135 -86 -214 -234 -214h-188v-270h-82zM168 348h183c107 0 156 43 156 136s-51 138 -156 138h-183v-274z" />
    <glyph glyph-name="Thorn" unicode="&#xde;" horiz-adv-x="615" 
d="M590 352c0 -135 -89 -215 -234 -215h-188v-137h-82v700h82v-132h188c144 0 234 -83 234 -216zM507 352c0 93 -51 138 -156 138h-183v-275h183c105 0 156 44 156 137z" />
    <glyph glyph-name="Q" unicode="Q" horiz-adv-x="680" 
d="M565 100l65 -69l-51 -46l-60 64c-50 -43 -110 -64 -179 -64c-176 0 -295 147 -295 365s119 365 295 365s295 -147 295 -365c0 -100 -25 -186 -70 -250zM465 107l-145 155l52 46l137 -147c29 49 43 112 43 189c0 176 -81 287 -212 287s-212 -111 -212 -287
s81 -287 212 -287c49 0 90 15 125 44z" />
    <glyph glyph-name="R" unicode="R" horiz-adv-x="609" 
d="M399 290v-2l154 -288h-97l-148 284h-140v-284h-82v700h255c145 0 233 -78 233 -207c0 -111 -64 -184 -175 -203zM168 362h166c103 0 157 46 157 131s-53 129 -157 129h-166v-260z" />
    <glyph glyph-name="Racute" unicode="&#x154;" horiz-adv-x="609" 
d="M399 290v-2l154 -288h-97l-148 284h-140v-284h-82v700h255c145 0 233 -78 233 -207c0 -111 -64 -184 -175 -203zM168 362h166c103 0 157 46 157 131s-53 129 -157 129h-166v-260zM258 760l74 116h98l-102 -116h-70z" />
    <glyph glyph-name="Rcaron" unicode="&#x158;" horiz-adv-x="609" 
d="M399 290v-2l154 -288h-97l-148 284h-140v-284h-82v700h255c145 0 233 -78 233 -207c0 -111 -64 -184 -175 -203zM168 362h166c103 0 157 46 157 131s-53 129 -157 129h-166v-260zM378 872l47 -37l-66 -85h-108l-66 85l47 37l73 -92z" />
    <glyph glyph-name="uni0156" unicode="&#x156;" horiz-adv-x="609" 
d="M399 290v-2l154 -288h-97l-148 284h-140v-284h-82v700h255c145 0 233 -78 233 -207c0 -111 -64 -184 -175 -203zM168 362h166c103 0 157 46 157 131s-53 129 -157 129h-166v-260zM268 -233v37c28 5 40 19 40 51h-45v96h104v-83c0 -63 -35 -98 -99 -101z" />
    <glyph glyph-name="S" unicode="S" horiz-adv-x="602" 
d="M35 232l82 14c15 -124 80 -183 207 -183c97 0 161 45 161 113c0 71 -46 110 -193 156c-169 56 -223 103 -223 198c0 108 93 185 224 185c66 0 122 -18 168 -55s75 -86 86 -149l-81 -17c-21 93 -83 143 -174 143c-85 0 -141 -42 -141 -107c0 -53 39 -83 168 -123
c184 -60 248 -119 248 -230c0 -114 -99 -192 -244 -192c-171 0 -273 87 -288 247z" />
    <glyph glyph-name="Sacute" unicode="&#x15a;" horiz-adv-x="602" 
d="M35 232l82 14c15 -124 80 -183 207 -183c97 0 161 45 161 113c0 71 -46 110 -193 156c-169 56 -223 103 -223 198c0 108 93 185 224 185c66 0 122 -18 168 -55s75 -86 86 -149l-81 -17c-21 93 -83 143 -174 143c-85 0 -141 -42 -141 -107c0 -53 39 -83 168 -123
c184 -60 248 -119 248 -230c0 -114 -99 -192 -244 -192c-171 0 -273 87 -288 247zM246 775l74 116h98l-102 -116h-70z" />
    <glyph glyph-name="Scaron" unicode="&#x160;" horiz-adv-x="602" 
d="M35 232l82 14c15 -124 80 -183 207 -183c97 0 161 45 161 113c0 71 -46 110 -193 156c-169 56 -223 103 -223 198c0 108 93 185 224 185c66 0 122 -18 168 -55s75 -86 86 -149l-81 -17c-21 93 -83 143 -174 143c-85 0 -141 -42 -141 -107c0 -53 39 -83 168 -123
c184 -60 248 -119 248 -230c0 -114 -99 -192 -244 -192c-171 0 -273 87 -288 247zM366 887l47 -37l-66 -85h-108l-66 85l47 37l73 -92z" />
    <glyph glyph-name="Scedilla" unicode="&#x15e;" horiz-adv-x="602" 
d="M35 232l82 14c15 -124 80 -183 207 -183c97 0 161 45 161 113c0 71 -46 110 -193 156c-169 56 -223 103 -223 198c0 108 93 185 224 185c66 0 122 -18 168 -55s75 -86 86 -149l-81 -17c-21 93 -83 143 -174 143c-85 0 -141 -42 -141 -107c0 -53 39 -83 168 -123
c184 -60 248 -119 248 -230c0 -114 -99 -192 -244 -192c-171 0 -273 87 -288 247zM446 -139c0 -55 -44 -91 -103 -91c-39 0 -73 13 -102 40l34 41c21 -20 43 -30 68 -30c29 0 48 17 48 41s-20 40 -47 40c-22 0 -40 -9 -55 -26l-43 19l64 119l46 -14l-35 -60c10 4 21 6 34 6
c51 0 91 -36 91 -85z" />
    <glyph glyph-name="Scircumflex" unicode="&#x15c;" horiz-adv-x="602" 
d="M35 232l82 14c15 -124 80 -183 207 -183c97 0 161 45 161 113c0 71 -46 110 -193 156c-169 56 -223 103 -223 198c0 108 93 185 224 185c66 0 122 -18 168 -55s75 -86 86 -149l-81 -17c-21 93 -83 143 -174 143c-85 0 -141 -42 -141 -107c0 -53 39 -83 168 -123
c184 -60 248 -119 248 -230c0 -114 -99 -192 -244 -192c-171 0 -273 87 -288 247zM413 792l-47 -37l-73 92l-73 -92l-47 37l66 85h108z" />
    <glyph glyph-name="uni0218" unicode="&#x218;" horiz-adv-x="602" 
d="M35 232l82 14c15 -124 80 -183 207 -183c97 0 161 45 161 113c0 71 -46 110 -193 156c-169 56 -223 103 -223 198c0 108 93 185 224 185c66 0 122 -18 168 -55s75 -86 86 -149l-81 -17c-21 93 -83 143 -174 143c-85 0 -141 -42 -141 -107c0 -53 39 -83 168 -123
c184 -60 248 -119 248 -230c0 -114 -99 -192 -244 -192c-171 0 -273 87 -288 247zM276 -248v37c28 5 40 19 40 51h-45v96h104v-83c0 -63 -35 -98 -99 -101z" />
    <glyph glyph-name="uni1E62" unicode="&#x1e62;" horiz-adv-x="602" 
d="M35 232l82 14c15 -124 80 -183 207 -183c97 0 161 45 161 113c0 71 -46 110 -193 156c-169 56 -223 103 -223 198c0 108 93 185 224 185c66 0 122 -18 168 -55s75 -86 86 -149l-81 -17c-21 93 -83 143 -174 143c-85 0 -141 -42 -141 -107c0 -53 39 -83 168 -123
c184 -60 248 -119 248 -230c0 -114 -99 -192 -244 -192c-171 0 -273 87 -288 247zM275 -158v94h96v-94h-96z" />
    <glyph glyph-name="uni018F" unicode="&#x18f;" horiz-adv-x="672" 
d="M45 350v30h497c-4 159 -84 257 -207 257c-92 0 -159 -51 -192 -151l-77 27c49 132 144 202 269 202c177 0 292 -145 292 -366c0 -219 -115 -364 -292 -364c-176 0 -290 142 -290 365zM542 307h-410c5 -153 83 -244 203 -244s196 91 207 244z" />
    <glyph glyph-name="T" unicode="T" horiz-adv-x="589" 
d="M253 0v622h-218v78h519v-78h-218v-622h-83z" />
    <glyph glyph-name="_123" horiz-adv-x="589" 
d="M253 0v622h-218v78h519v-78h-218v-622h-83z" />
    <glyph glyph-name="Tbar" unicode="&#x166;" horiz-adv-x="589" 
d="M253 0v622h-218v78h519v-78h-218v-622h-83zM117 318v69h352v-69h-352z" />
    <glyph glyph-name="_125" horiz-adv-x="589" 
d="M253 0v622h-218v78h519v-78h-218v-622h-83zM117 318v69h352v-69h-352z" />
    <glyph glyph-name="Tcaron" unicode="&#x164;" horiz-adv-x="589" 
d="M253 0v622h-218v78h519v-78h-218v-622h-83zM367 872l47 -37l-66 -85h-108l-66 85l47 37l73 -92z" />
    <glyph glyph-name="_127" horiz-adv-x="589" 
d="M253 0v622h-218v78h519v-78h-218v-622h-83zM367 872l47 -37l-66 -85h-108l-66 85l47 37l73 -92z" />
    <glyph glyph-name="uni0162" unicode="&#x162;" horiz-adv-x="589" 
d="M253 0v622h-218v78h519v-78h-218v-622h-83zM417 -125c0 -55 -44 -91 -103 -91c-39 0 -73 13 -102 40l34 41c21 -20 43 -30 68 -30c29 0 48 17 48 41s-20 40 -47 40c-22 0 -40 -9 -55 -26l-43 19l64 119l46 -14l-35 -60c10 4 21 6 34 6c51 0 91 -36 91 -85z" />
    <glyph glyph-name="_129" horiz-adv-x="589" 
d="M253 0v622h-218v78h519v-78h-218v-622h-83zM417 -125c0 -55 -44 -91 -103 -91c-39 0 -73 13 -102 40l34 41c21 -20 43 -30 68 -30c29 0 48 17 48 41s-20 40 -47 40c-22 0 -40 -9 -55 -26l-43 19l64 119l46 -14l-35 -60c10 4 21 6 34 6c51 0 91 -36 91 -85z" />
    <glyph glyph-name="uni021A" unicode="&#x21a;" horiz-adv-x="589" 
d="M253 0v622h-218v78h519v-78h-218v-622h-83zM247 -233v37c28 5 40 19 40 51h-45v96h104v-83c0 -63 -35 -98 -99 -101z" />
    <glyph glyph-name="_131" horiz-adv-x="589" 
d="M253 0v622h-218v78h519v-78h-218v-622h-83zM247 -233v37c28 5 40 19 40 51h-45v96h104v-83c0 -63 -35 -98 -99 -101z" />
    <glyph glyph-name="uni1E6C" unicode="&#x1e6c;" horiz-adv-x="589" 
d="M253 0v622h-218v78h519v-78h-218v-622h-83zM246 -143v94h96v-94h-96z" />
    <glyph glyph-name="_133" horiz-adv-x="589" 
d="M253 0v622h-218v78h519v-78h-218v-622h-83zM246 -143v94h96v-94h-96z" />
    <glyph glyph-name="U" unicode="U" horiz-adv-x="662" 
d="M81 228v472h82v-466c0 -113 56 -171 167 -171s169 58 169 169v468h83v-472c0 -156 -91 -243 -252 -243s-249 87 -249 243z" />
    <glyph glyph-name="Uacute" unicode="&#xda;" horiz-adv-x="662" 
d="M81 228v472h82v-466c0 -113 56 -171 167 -171s169 58 169 169v468h83v-472c0 -156 -91 -243 -252 -243s-249 87 -249 243zM284 760l74 116h98l-102 -116h-70z" />
    <glyph glyph-name="Ubreve" unicode="&#x16c;" horiz-adv-x="662" 
d="M81 228v472h82v-466c0 -113 56 -171 167 -171s169 58 169 169v468h83v-472c0 -156 -91 -243 -252 -243s-249 87 -249 243zM204 871h49c5 -36 35 -56 79 -56c43 0 73 20 78 56h49c-4 -75 -52 -121 -127 -121c-76 0 -124 46 -128 121z" />
    <glyph glyph-name="uni01D3" unicode="&#x1d3;" horiz-adv-x="662" 
d="M81 228v472h82v-466c0 -113 56 -171 167 -171s169 58 169 169v468h83v-472c0 -156 -91 -243 -252 -243s-249 87 -249 243zM404 872l47 -37l-66 -85h-108l-66 85l47 37l73 -92z" />
    <glyph glyph-name="Ucircumflex" unicode="&#xdb;" horiz-adv-x="662" 
d="M81 228v472h82v-466c0 -113 56 -171 167 -171s169 58 169 169v468h83v-472c0 -156 -91 -243 -252 -243s-249 87 -249 243zM451 777l-47 -37l-73 92l-73 -92l-47 37l66 85h108z" />
    <glyph glyph-name="Udieresis" unicode="&#xdc;" horiz-adv-x="662" 
d="M81 228v472h82v-466c0 -113 56 -171 167 -171s169 58 169 169v468h83v-472c0 -156 -91 -243 -252 -243s-249 87 -249 243zM193 750v94h96v-94h-96zM373 750v94h96v-94h-96z" />
    <glyph glyph-name="uni01D7" unicode="&#x1d7;" horiz-adv-x="662" 
d="M81 228v472h82v-466c0 -113 56 -171 167 -171s169 58 169 169v468h83v-472c0 -156 -91 -243 -252 -243s-249 87 -249 243zM193 750v94h96v-94h-96zM373 750v94h96v-94h-96zM284 884l74 116h98l-102 -116h-70z" />
    <glyph glyph-name="uni01D9" unicode="&#x1d9;" horiz-adv-x="662" 
d="M81 228v472h82v-466c0 -113 56 -171 167 -171s169 58 169 169v468h83v-472c0 -156 -91 -243 -252 -243s-249 87 -249 243zM193 750v94h96v-94h-96zM373 750v94h96v-94h-96zM404 996l47 -37l-66 -85h-108l-66 85l47 37l73 -92z" />
    <glyph glyph-name="uni01DB" unicode="&#x1db;" horiz-adv-x="662" 
d="M81 228v472h82v-466c0 -113 56 -171 167 -171s169 58 169 169v468h83v-472c0 -156 -91 -243 -252 -243s-249 87 -249 243zM193 750v94h96v-94h-96zM373 750v94h96v-94h-96zM305 884l-102 116h98l74 -116h-70z" />
    <glyph glyph-name="uni01D5" unicode="&#x1d5;" horiz-adv-x="662" 
d="M81 228v472h82v-466c0 -113 56 -171 167 -171s169 58 169 169v468h83v-472c0 -156 -91 -243 -252 -243s-249 87 -249 243zM193 750v94h96v-94h-96zM373 750v94h96v-94h-96zM198 884v63h267v-63h-267z" />
    <glyph glyph-name="uni1EE4" unicode="&#x1ee4;" horiz-adv-x="662" 
d="M81 228v472h82v-466c0 -113 56 -171 167 -171s169 58 169 169v468h83v-472c0 -156 -91 -243 -252 -243s-249 87 -249 243zM282 -158v94h96v-94h-96z" />
    <glyph glyph-name="Ugrave" unicode="&#xd9;" horiz-adv-x="662" 
d="M81 228v472h82v-466c0 -113 56 -171 167 -171s169 58 169 169v468h83v-472c0 -156 -91 -243 -252 -243s-249 87 -249 243zM305 760l-102 116h98l74 -116h-70z" />
    <glyph glyph-name="Uhungarumlaut" unicode="&#x170;" horiz-adv-x="662" 
d="M81 228v472h82v-466c0 -113 56 -171 167 -171s169 58 169 169v468h83v-472c0 -156 -91 -243 -252 -243s-249 87 -249 243zM198 760l74 116h98l-102 -116h-70zM352 760l74 116h98l-102 -116h-70z" />
    <glyph glyph-name="Umacron" unicode="&#x16a;" horiz-adv-x="662" 
d="M81 228v472h82v-466c0 -113 56 -171 167 -171s169 58 169 169v468h83v-472c0 -156 -91 -243 -252 -243s-249 87 -249 243zM198 760v63h267v-63h-267z" />
    <glyph glyph-name="Uogonek" unicode="&#x172;" horiz-adv-x="662" 
d="M81 228v472h82v-466c0 -113 56 -171 167 -171s169 58 169 169v468h83v-472c0 -156 -91 -243 -252 -243s-249 87 -249 243zM290 -119c0 45 39 96 102 131l42 -12c-52 -29 -78 -62 -78 -99c0 -23 11 -35 34 -35c17 0 37 6 59 18l24 -63c-30 -14 -61 -21 -94 -21
c-55 0 -89 30 -89 81z" />
    <glyph glyph-name="Uring" unicode="&#x16e;" horiz-adv-x="662" 
d="M81 228v472h82v-466c0 -113 56 -171 167 -171s169 58 169 169v468h83v-472c0 -156 -91 -243 -252 -243s-249 87 -249 243zM209 765c0 65 51 114 122 114s122 -47 122 -114c0 -65 -51 -113 -122 -113s-122 48 -122 113zM397 765c0 39 -27 66 -66 66s-65 -27 -65 -66
c0 -37 26 -65 65 -65s66 28 66 65z" />
    <glyph glyph-name="Utilde" unicode="&#x168;" horiz-adv-x="662" 
d="M81 228v472h82v-466c0 -113 56 -171 167 -171s169 58 169 169v468h83v-472c0 -156 -91 -243 -252 -243s-249 87 -249 243zM318 777c-16 8 -32 16 -47 16c-19 0 -31 -11 -36 -33h-47c4 57 38 93 87 93c25 0 44 -9 68 -22c16 -8 32 -16 47 -16c19 0 31 11 36 33h47
c-4 -57 -38 -93 -87 -93c-25 0 -44 9 -68 22z" />
    <glyph glyph-name="V" unicode="V" horiz-adv-x="602" 
d="M257 0l-252 700h87l208 -590h2l209 590h86l-252 -700h-88z" />
    <glyph glyph-name="W" unicode="W" horiz-adv-x="845" 
d="M149 0l-129 700h85l103 -569h2l173 569h78l174 -569h2l103 569h85l-130 -700h-100l-172 562h-2l-171 -562h-101z" />
    <glyph glyph-name="Wacute" unicode="&#x1e82;" horiz-adv-x="845" 
d="M149 0l-129 700h85l103 -569h2l173 569h78l174 -569h2l103 569h85l-130 -700h-100l-172 562h-2l-171 -562h-101zM375 760l74 116h98l-102 -116h-70z" />
    <glyph glyph-name="Wcircumflex" unicode="&#x174;" horiz-adv-x="845" 
d="M149 0l-129 700h85l103 -569h2l173 569h78l174 -569h2l103 569h85l-130 -700h-100l-172 562h-2l-171 -562h-101zM542 777l-47 -37l-73 92l-73 -92l-47 37l66 85h108z" />
    <glyph glyph-name="Wdieresis" unicode="&#x1e84;" horiz-adv-x="845" 
d="M149 0l-129 700h85l103 -569h2l173 569h78l174 -569h2l103 569h85l-130 -700h-100l-172 562h-2l-171 -562h-101zM284 750v94h96v-94h-96zM464 750v94h96v-94h-96z" />
    <glyph glyph-name="Wgrave" unicode="&#x1e80;" horiz-adv-x="845" 
d="M149 0l-129 700h85l103 -569h2l173 569h78l174 -569h2l103 569h85l-130 -700h-100l-172 562h-2l-171 -562h-101zM396 760l-102 116h98l74 -116h-70z" />
    <glyph glyph-name="X" unicode="X" horiz-adv-x="553" 
d="M10 0l216 355l-210 345h97l163 -280h2l163 280h97l-210 -345l215 -355h-96l-169 290h-2l-169 -290h-97z" />
    <glyph glyph-name="Y" unicode="Y" horiz-adv-x="573" 
d="M245 0v292l-245 408h96l189 -327h2l190 327h96l-245 -408v-292h-83z" />
    <glyph glyph-name="Yacute" unicode="&#xdd;" horiz-adv-x="573" 
d="M245 0v292l-245 408h96l189 -327h2l190 327h96l-245 -408v-292h-83zM239 760l74 116h98l-102 -116h-70z" />
    <glyph glyph-name="Ycircumflex" unicode="&#x176;" horiz-adv-x="573" 
d="M245 0v292l-245 408h96l189 -327h2l190 327h96l-245 -408v-292h-83zM406 777l-47 -37l-73 92l-73 -92l-47 37l66 85h108z" />
    <glyph glyph-name="Ydieresis" unicode="&#x178;" horiz-adv-x="573" 
d="M245 0v292l-245 408h96l189 -327h2l190 327h96l-245 -408v-292h-83zM148 750v94h96v-94h-96zM328 750v94h96v-94h-96z" />
    <glyph glyph-name="uni1EF4" unicode="&#x1ef4;" horiz-adv-x="573" 
d="M245 0v292l-245 408h96l189 -327h2l190 327h96l-245 -408v-292h-83zM238 -143v94h96v-94h-96z" />
    <glyph glyph-name="Ygrave" unicode="&#x1ef2;" horiz-adv-x="573" 
d="M245 0v292l-245 408h96l189 -327h2l190 327h96l-245 -408v-292h-83zM260 760l-102 116h98l74 -116h-70z" />
    <glyph glyph-name="uni1EF8" unicode="&#x1ef8;" horiz-adv-x="573" 
d="M245 0v292l-245 408h96l189 -327h2l190 327h96l-245 -408v-292h-83zM273 777c-16 8 -32 16 -47 16c-19 0 -31 -11 -36 -33h-47c4 57 38 93 87 93c25 0 44 -9 68 -22c16 -8 32 -16 47 -16c19 0 31 11 36 33h47c-4 -57 -38 -93 -87 -93c-25 0 -44 9 -68 22z" />
    <glyph glyph-name="Z" unicode="Z" horiz-adv-x="593" 
d="M45 0v70l403 550v2h-387v78h487v-70l-402 -550v-2h392v-78h-493z" />
    <glyph glyph-name="Zacute" unicode="&#x179;" horiz-adv-x="593" 
d="M45 0v70l403 550v2h-387v78h487v-70l-402 -550v-2h392v-78h-493zM258 760l74 116h98l-102 -116h-70z" />
    <glyph glyph-name="Zcaron" unicode="&#x17d;" horiz-adv-x="593" 
d="M45 0v70l403 550v2h-387v78h487v-70l-402 -550v-2h392v-78h-493zM378 872l47 -37l-66 -85h-108l-66 85l47 37l73 -92z" />
    <glyph glyph-name="Zdotaccent" unicode="&#x17b;" horiz-adv-x="593" 
d="M45 0v70l403 550v2h-387v78h487v-70l-402 -550v-2h392v-78h-493zM257 760v94h96v-94h-96z" />
    <glyph glyph-name="uni1E92" unicode="&#x1e92;" horiz-adv-x="593" 
d="M45 0v70l403 550v2h-387v78h487v-70l-402 -550v-2h392v-78h-493zM249 -143v94h96v-94h-96z" />
    <glyph glyph-name="a" unicode="a" horiz-adv-x="510" 
d="M46 135c0 89 53 136 186 168c103 25 135 47 135 90c0 49 -44 81 -109 81c-69 0 -118 -43 -133 -114l-79 15c9 52 32 93 71 124s86 46 141 46c119 0 191 -65 191 -172v-373h-73v56h-2c-31 -44 -87 -71 -154 -71c-107 0 -174 58 -174 150zM371 179v119h-2
c-11 -25 -45 -43 -116 -62c-93 -24 -129 -51 -129 -96c0 -53 37 -82 102 -82c85 0 145 50 145 121z" />
    <glyph glyph-name="aacute" unicode="&#xe1;" horiz-adv-x="510" 
d="M46 135c0 89 53 136 186 168c103 25 135 47 135 90c0 49 -44 81 -109 81c-69 0 -118 -43 -133 -114l-79 15c9 52 32 93 71 124s86 46 141 46c119 0 191 -65 191 -172v-373h-73v56h-2c-31 -44 -87 -71 -154 -71c-107 0 -174 58 -174 150zM371 179v119h-2
c-11 -25 -45 -43 -116 -62c-93 -24 -129 -51 -129 -96c0 -53 37 -82 102 -82c85 0 145 50 145 121zM211 605l74 116h98l-102 -116h-70z" />
    <glyph glyph-name="abreve" unicode="&#x103;" horiz-adv-x="510" 
d="M46 135c0 89 53 136 186 168c103 25 135 47 135 90c0 49 -44 81 -109 81c-69 0 -118 -43 -133 -114l-79 15c9 52 32 93 71 124s86 46 141 46c119 0 191 -65 191 -172v-373h-73v56h-2c-31 -44 -87 -71 -154 -71c-107 0 -174 58 -174 150zM371 179v119h-2
c-11 -25 -45 -43 -116 -62c-93 -24 -129 -51 -129 -96c0 -53 37 -82 102 -82c85 0 145 50 145 121zM131 716h49c5 -36 35 -56 79 -56c43 0 73 20 78 56h49c-4 -75 -52 -121 -127 -121c-76 0 -124 46 -128 121z" />
    <glyph glyph-name="uni01CE" unicode="&#x1ce;" horiz-adv-x="510" 
d="M46 135c0 89 53 136 186 168c103 25 135 47 135 90c0 49 -44 81 -109 81c-69 0 -118 -43 -133 -114l-79 15c9 52 32 93 71 124s86 46 141 46c119 0 191 -65 191 -172v-373h-73v56h-2c-31 -44 -87 -71 -154 -71c-107 0 -174 58 -174 150zM371 179v119h-2
c-11 -25 -45 -43 -116 -62c-93 -24 -129 -51 -129 -96c0 -53 37 -82 102 -82c85 0 145 50 145 121zM331 717l47 -37l-66 -85h-108l-66 85l47 37l73 -92z" />
    <glyph glyph-name="acircumflex" unicode="&#xe2;" horiz-adv-x="510" 
d="M46 135c0 89 53 136 186 168c103 25 135 47 135 90c0 49 -44 81 -109 81c-69 0 -118 -43 -133 -114l-79 15c9 52 32 93 71 124s86 46 141 46c119 0 191 -65 191 -172v-373h-73v56h-2c-31 -44 -87 -71 -154 -71c-107 0 -174 58 -174 150zM371 179v119h-2
c-11 -25 -45 -43 -116 -62c-93 -24 -129 -51 -129 -96c0 -53 37 -82 102 -82c85 0 145 50 145 121zM378 622l-47 -37l-73 92l-73 -92l-47 37l66 85h108z" />
    <glyph glyph-name="uni1EAD" unicode="&#x1ead;" horiz-adv-x="510" 
d="M46 135c0 89 53 136 186 168c103 25 135 47 135 90c0 49 -44 81 -109 81c-69 0 -118 -43 -133 -114l-79 15c9 52 32 93 71 124s86 46 141 46c119 0 191 -65 191 -172v-373h-73v56h-2c-31 -44 -87 -71 -154 -71c-107 0 -174 58 -174 150zM371 179v119h-2
c-11 -25 -45 -43 -116 -62c-93 -24 -129 -51 -129 -96c0 -53 37 -82 102 -82c85 0 145 50 145 121zM378 622l-47 -37l-73 92l-73 -92l-47 37l66 85h108zM213 -158v94h96v-94h-96z" />
    <glyph glyph-name="adieresis" unicode="&#xe4;" horiz-adv-x="510" 
d="M46 135c0 89 53 136 186 168c103 25 135 47 135 90c0 49 -44 81 -109 81c-69 0 -118 -43 -133 -114l-79 15c9 52 32 93 71 124s86 46 141 46c119 0 191 -65 191 -172v-373h-73v56h-2c-31 -44 -87 -71 -154 -71c-107 0 -174 58 -174 150zM371 179v119h-2
c-11 -25 -45 -43 -116 -62c-93 -24 -129 -51 -129 -96c0 -53 37 -82 102 -82c85 0 145 50 145 121zM120 595v94h96v-94h-96zM300 595v94h96v-94h-96z" />
    <glyph glyph-name="uni01DF" unicode="&#x1df;" horiz-adv-x="510" 
d="M46 135c0 89 53 136 186 168c103 25 135 47 135 90c0 49 -44 81 -109 81c-69 0 -118 -43 -133 -114l-79 15c9 52 32 93 71 124s86 46 141 46c119 0 191 -65 191 -172v-373h-73v56h-2c-31 -44 -87 -71 -154 -71c-107 0 -174 58 -174 150zM371 179v119h-2
c-11 -25 -45 -43 -116 -62c-93 -24 -129 -51 -129 -96c0 -53 37 -82 102 -82c85 0 145 50 145 121zM120 595v94h96v-94h-96zM300 595v94h96v-94h-96zM125 729v63h267v-63h-267z" />
    <glyph glyph-name="uni1EA1" unicode="&#x1ea1;" horiz-adv-x="510" 
d="M46 135c0 89 53 136 186 168c103 25 135 47 135 90c0 49 -44 81 -109 81c-69 0 -118 -43 -133 -114l-79 15c9 52 32 93 71 124s86 46 141 46c119 0 191 -65 191 -172v-373h-73v56h-2c-31 -44 -87 -71 -154 -71c-107 0 -174 58 -174 150zM371 179v119h-2
c-11 -25 -45 -43 -116 -62c-93 -24 -129 -51 -129 -96c0 -53 37 -82 102 -82c85 0 145 50 145 121zM213 -158v94h96v-94h-96z" />
    <glyph glyph-name="agrave" unicode="&#xe0;" horiz-adv-x="510" 
d="M46 135c0 89 53 136 186 168c103 25 135 47 135 90c0 49 -44 81 -109 81c-69 0 -118 -43 -133 -114l-79 15c9 52 32 93 71 124s86 46 141 46c119 0 191 -65 191 -172v-373h-73v56h-2c-31 -44 -87 -71 -154 -71c-107 0 -174 58 -174 150zM371 179v119h-2
c-11 -25 -45 -43 -116 -62c-93 -24 -129 -51 -129 -96c0 -53 37 -82 102 -82c85 0 145 50 145 121zM232 605l-102 116h98l74 -116h-70z" />
    <glyph glyph-name="amacron" unicode="&#x101;" horiz-adv-x="510" 
d="M46 135c0 89 53 136 186 168c103 25 135 47 135 90c0 49 -44 81 -109 81c-69 0 -118 -43 -133 -114l-79 15c9 52 32 93 71 124s86 46 141 46c119 0 191 -65 191 -172v-373h-73v56h-2c-31 -44 -87 -71 -154 -71c-107 0 -174 58 -174 150zM371 179v119h-2
c-11 -25 -45 -43 -116 -62c-93 -24 -129 -51 -129 -96c0 -53 37 -82 102 -82c85 0 145 50 145 121zM125 605v63h267v-63h-267z" />
    <glyph glyph-name="aogonek" unicode="&#x105;" horiz-adv-x="510" 
d="M46 135c0 89 53 136 186 168c103 25 135 47 135 90c0 49 -44 81 -109 81c-69 0 -118 -43 -133 -114l-79 15c9 52 32 93 71 124s86 46 141 46c119 0 191 -65 191 -172v-373h-73v56h-2c-31 -44 -87 -71 -154 -71c-107 0 -174 58 -174 150zM371 179v119h-2
c-11 -25 -45 -43 -116 -62c-93 -24 -129 -51 -129 -96c0 -53 37 -82 102 -82c85 0 145 50 145 121zM298 -119c0 45 39 96 102 131l42 -12c-52 -29 -78 -62 -78 -99c0 -23 11 -35 34 -35c17 0 37 6 59 18l24 -63c-30 -14 -61 -21 -94 -21c-55 0 -89 30 -89 81z" />
    <glyph glyph-name="aring" unicode="&#xe5;" horiz-adv-x="510" 
d="M143 670c0 60 47 103 110 103c64 0 110 -43 110 -103c0 -59 -46 -101 -110 -101c-63 0 -110 44 -110 101zM313 670c0 36 -25 60 -60 60s-59 -24 -59 -60c0 -33 24 -58 59 -58s60 25 60 58zM46 135c0 89 53 136 186 168c103 25 135 47 135 90c0 49 -44 81 -109 81
c-69 0 -118 -43 -133 -114l-79 15c9 52 32 93 71 124s86 46 141 46c119 0 191 -65 191 -172v-373h-73v56h-2c-31 -44 -87 -71 -154 -71c-107 0 -174 58 -174 150zM371 179v119h-2c-11 -25 -45 -43 -116 -62c-93 -24 -129 -51 -129 -96c0 -53 37 -82 102 -82
c85 0 145 50 145 121z" />
    <glyph glyph-name="aringacute" unicode="&#x1fb;" horiz-adv-x="510" 
d="M143 679c0 44 27 81 67 96l70 109h98l-93 -106c47 -12 78 -50 78 -99c0 -59 -46 -101 -110 -101c-63 0 -110 44 -110 101zM194 679c0 -33 24 -58 59 -58s60 25 60 58c0 36 -25 60 -60 60s-59 -24 -59 -60zM449 373v-373h-73v56h-2c-31 -44 -87 -71 -154 -71
c-107 0 -174 58 -174 150c0 89 53 136 186 168c103 25 135 47 135 90c0 49 -44 81 -109 81c-69 0 -118 -43 -133 -114l-79 15c9 52 32 93 71 124s86 46 141 46c119 0 191 -65 191 -172zM371 179v119h-2c-11 -25 -45 -43 -116 -62c-93 -24 -129 -51 -129 -96
c0 -53 37 -82 102 -82c85 0 145 50 145 121z" />
    <glyph glyph-name="atilde" unicode="&#xe3;" horiz-adv-x="510" 
d="M46 135c0 89 53 136 186 168c103 25 135 47 135 90c0 49 -44 81 -109 81c-69 0 -118 -43 -133 -114l-79 15c9 52 32 93 71 124s86 46 141 46c119 0 191 -65 191 -172v-373h-73v56h-2c-31 -44 -87 -71 -154 -71c-107 0 -174 58 -174 150zM371 179v119h-2
c-11 -25 -45 -43 -116 -62c-93 -24 -129 -51 -129 -96c0 -53 37 -82 102 -82c85 0 145 50 145 121zM245 622c-16 8 -32 16 -47 16c-19 0 -31 -11 -36 -33h-47c4 57 38 93 87 93c25 0 44 -9 68 -22c16 -8 32 -16 47 -16c19 0 31 11 36 33h47c-4 -57 -38 -93 -87 -93
c-25 0 -44 9 -68 22z" />
    <glyph glyph-name="ae" unicode="&#xe6;" horiz-adv-x="888" 
d="M843 282v-39h-394c1 -57 16 -103 45 -138c30 -35 69 -52 116 -52c75 0 115 27 159 108l63 -40c-45 -89 -121 -136 -220 -136c-83 0 -154 37 -195 104c-33 -67 -102 -104 -195 -104c-107 0 -173 58 -173 150c0 37 9 67 27 89c36 45 84 60 165 81c85 24 123 35 129 89
c0 49 -43 83 -111 83c-72 0 -126 -43 -139 -115l-74 15c20 104 102 168 211 168c84 0 146 -32 174 -88c39 55 106 88 181 88c137 0 231 -107 231 -263zM450 304h317c-3 105 -64 173 -155 173c-88 0 -160 -74 -162 -173zM375 178v123h-2c-13 -31 -48 -43 -117 -62
c-83 -23 -128 -38 -133 -99c0 -56 36 -87 105 -87c87 0 147 57 147 125z" />
    <glyph glyph-name="aeacute" unicode="&#x1fd;" horiz-adv-x="888" 
d="M843 282v-39h-394c1 -57 16 -103 45 -138c30 -35 69 -52 116 -52c75 0 115 27 159 108l63 -40c-45 -89 -121 -136 -220 -136c-83 0 -154 37 -195 104c-33 -67 -102 -104 -195 -104c-107 0 -173 58 -173 150c0 37 9 67 27 89c36 45 84 60 165 81c85 24 123 35 129 89
c0 49 -43 83 -111 83c-72 0 -126 -43 -139 -115l-74 15c20 104 102 168 211 168c84 0 146 -32 174 -88c39 55 106 88 181 88c137 0 231 -107 231 -263zM450 304h317c-3 105 -64 173 -155 173c-88 0 -160 -74 -162 -173zM375 178v123h-2c-13 -31 -48 -43 -117 -62
c-83 -23 -128 -38 -133 -99c0 -56 36 -87 105 -87c87 0 147 57 147 125zM398 590l74 116h98l-102 -116h-70z" />
    <glyph glyph-name="b" unicode="b" horiz-adv-x="586" 
d="M143 53h-2v-53h-75v730h78v-256h2c35 44 92 71 156 71c138 0 238 -115 238 -280s-100 -280 -238 -280c-65 0 -124 25 -159 68zM462 265c0 125 -65 207 -160 207c-88 0 -158 -69 -158 -155v-103c0 -86 69 -156 153 -156c100 0 165 82 165 207z" />
    <glyph glyph-name="uni1E05" unicode="&#x1e05;" horiz-adv-x="586" 
d="M143 53h-2v-53h-75v730h78v-256h2c35 44 92 71 156 71c138 0 238 -115 238 -280s-100 -280 -238 -280c-65 0 -124 25 -159 68zM462 265c0 125 -65 207 -160 207c-88 0 -158 -69 -158 -155v-103c0 -86 69 -156 153 -156c100 0 165 82 165 207zM257 -158v94h96v-94h-96z
" />
    <glyph glyph-name="c" unicode="c" horiz-adv-x="563" 
d="M46 265c0 166 101 280 245 280c121 0 211 -74 231 -193l-76 -16c-15 87 -72 136 -155 136c-100 0 -167 -82 -167 -207s67 -207 167 -207c83 0 140 49 155 136l76 -16c-20 -119 -110 -193 -231 -193c-144 0 -245 114 -245 280z" />
    <glyph glyph-name="cacute" unicode="&#x107;" horiz-adv-x="563" 
d="M46 265c0 166 101 280 245 280c121 0 211 -74 231 -193l-76 -16c-15 87 -72 136 -155 136c-100 0 -167 -82 -167 -207s67 -207 167 -207c83 0 140 49 155 136l76 -16c-20 -119 -110 -193 -231 -193c-144 0 -245 114 -245 280zM244 605l74 116h98l-102 -116h-70z" />
    <glyph glyph-name="ccaron" unicode="&#x10d;" horiz-adv-x="563" 
d="M46 265c0 166 101 280 245 280c121 0 211 -74 231 -193l-76 -16c-15 87 -72 136 -155 136c-100 0 -167 -82 -167 -207s67 -207 167 -207c83 0 140 49 155 136l76 -16c-20 -119 -110 -193 -231 -193c-144 0 -245 114 -245 280zM364 717l47 -37l-66 -85h-108l-66 85l47 37
l73 -92z" />
    <glyph glyph-name="ccedilla" unicode="&#xe7;" horiz-adv-x="563" 
d="M46 265c0 166 101 280 245 280c121 0 211 -74 231 -193l-76 -16c-15 87 -72 136 -155 136c-100 0 -167 -82 -167 -207s67 -207 167 -207c83 0 140 49 155 136l76 -16c-20 -119 -110 -193 -231 -193c-144 0 -245 114 -245 280zM414 -139c0 -55 -44 -91 -103 -91
c-39 0 -73 13 -102 40l34 41c21 -20 43 -30 68 -30c29 0 48 17 48 41s-20 40 -47 40c-22 0 -40 -9 -55 -26l-43 19l64 119l46 -14l-35 -60c10 4 21 6 34 6c51 0 91 -36 91 -85z" />
    <glyph glyph-name="ccircumflex" unicode="&#x109;" horiz-adv-x="563" 
d="M46 265c0 166 101 280 245 280c121 0 211 -74 231 -193l-76 -16c-15 87 -72 136 -155 136c-100 0 -167 -82 -167 -207s67 -207 167 -207c83 0 140 49 155 136l76 -16c-20 -119 -110 -193 -231 -193c-144 0 -245 114 -245 280zM411 622l-47 -37l-73 92l-73 -92l-47 37
l66 85h108z" />
    <glyph glyph-name="cdotaccent" unicode="&#x10b;" horiz-adv-x="563" 
d="M46 265c0 166 101 280 245 280c121 0 211 -74 231 -193l-76 -16c-15 87 -72 136 -155 136c-100 0 -167 -82 -167 -207s67 -207 167 -207c83 0 140 49 155 136l76 -16c-20 -119 -110 -193 -231 -193c-144 0 -245 114 -245 280zM243 605v94h96v-94h-96z" />
    <glyph glyph-name="d" unicode="d" horiz-adv-x="586" 
d="M46 265c0 165 100 280 238 280c64 0 121 -27 156 -71h2v256h78v-730h-75v53h-2c-35 -43 -94 -68 -159 -68c-138 0 -238 115 -238 280zM442 214v103c0 86 -70 155 -158 155c-95 0 -160 -82 -160 -207s65 -207 165 -207c84 0 153 70 153 156z" />
    <glyph glyph-name="eth" unicode="&#xf0;" horiz-adv-x="590" 
d="M545 265c0 -169 -98 -280 -249 -280c-150 0 -250 113 -250 280s99 280 244 280c53 0 98 -15 133 -44h2c-19 45 -46 90 -80 136l-137 -43l-15 44l122 38c-21 27 -50 59 -86 97v2h89c27 -29 49 -55 65 -77l138 44l15 -44l-125 -39c87 -125 134 -261 134 -394zM467 265
c0 125 -67 207 -171 207c-105 0 -172 -82 -172 -207s67 -207 172 -207c104 0 171 82 171 207z" />
    <glyph glyph-name="dcaron" unicode="&#x10f;" horiz-adv-x="659" 
d="M46 265c0 165 100 280 238 280c64 0 121 -27 156 -71h2v256h78v-730h-75v53h-2c-35 -43 -94 -68 -159 -68c-138 0 -238 115 -238 280zM442 214v103c0 86 -70 155 -158 155c-95 0 -160 -82 -160 -207s65 -207 165 -207c84 0 153 70 153 156zM570 546v37c28 5 40 19 40 51
h-45v96h104v-83c0 -63 -35 -98 -99 -101z" />
    <glyph glyph-name="dcroat" unicode="&#x111;" horiz-adv-x="586" 
d="M46 265c0 165 100 280 238 280c64 0 121 -27 156 -71h2v256h78v-730h-75v53h-2c-35 -43 -94 -68 -159 -68c-138 0 -238 115 -238 280zM442 214v103c0 86 -70 155 -158 155c-95 0 -160 -82 -160 -207s65 -207 165 -207c84 0 153 70 153 156zM289 606v59h288v-59h-288z" />
    <glyph glyph-name="uni1E0D" unicode="&#x1e0d;" horiz-adv-x="586" 
d="M46 265c0 165 100 280 238 280c64 0 121 -27 156 -71h2v256h78v-730h-75v53h-2c-35 -43 -94 -68 -159 -68c-138 0 -238 115 -238 280zM442 214v103c0 86 -70 155 -158 155c-95 0 -160 -82 -160 -207s65 -207 165 -207c84 0 153 70 153 156zM246 -143v94h96v-94h-96z" />
    <glyph glyph-name="e" unicode="e" horiz-adv-x="573" 
d="M46 265c0 167 101 280 245 280c142 0 237 -107 237 -263v-40h-403c2 -102 67 -186 164 -186c75 0 117 27 162 106l65 -39c-45 -91 -122 -138 -225 -138c-147 0 -245 113 -245 280zM127 305h322c-1 49 -17 89 -46 121s-66 48 -112 48c-90 0 -162 -80 -164 -169z" />
    <glyph glyph-name="eacute" unicode="&#xe9;" horiz-adv-x="573" 
d="M46 265c0 167 101 280 245 280c142 0 237 -107 237 -263v-40h-403c2 -102 67 -186 164 -186c75 0 117 27 162 106l65 -39c-45 -91 -122 -138 -225 -138c-147 0 -245 113 -245 280zM127 305h322c-1 49 -17 89 -46 121s-66 48 -112 48c-90 0 -162 -80 -164 -169zM244 605
l74 116h98l-102 -116h-70z" />
    <glyph glyph-name="ebreve" unicode="&#x115;" horiz-adv-x="573" 
d="M46 265c0 167 101 280 245 280c142 0 237 -107 237 -263v-40h-403c2 -102 67 -186 164 -186c75 0 117 27 162 106l65 -39c-45 -91 -122 -138 -225 -138c-147 0 -245 113 -245 280zM127 305h322c-1 49 -17 89 -46 121s-66 48 -112 48c-90 0 -162 -80 -164 -169zM164 716
h49c5 -36 35 -56 79 -56c43 0 73 20 78 56h49c-4 -75 -52 -121 -127 -121c-76 0 -124 46 -128 121z" />
    <glyph glyph-name="ecaron" unicode="&#x11b;" horiz-adv-x="573" 
d="M46 265c0 167 101 280 245 280c142 0 237 -107 237 -263v-40h-403c2 -102 67 -186 164 -186c75 0 117 27 162 106l65 -39c-45 -91 -122 -138 -225 -138c-147 0 -245 113 -245 280zM127 305h322c-1 49 -17 89 -46 121s-66 48 -112 48c-90 0 -162 -80 -164 -169zM364 717
l47 -37l-66 -85h-108l-66 85l47 37l73 -92z" />
    <glyph glyph-name="uni0229" unicode="&#x229;" horiz-adv-x="573" 
d="M46 265c0 167 101 280 245 280c142 0 237 -107 237 -263v-40h-403c2 -102 67 -186 164 -186c75 0 117 27 162 106l65 -39c-45 -91 -122 -138 -225 -138c-147 0 -245 113 -245 280zM127 305h322c-1 49 -17 89 -46 121s-66 48 -112 48c-90 0 -162 -80 -164 -169zM414 -139
c0 -55 -44 -91 -103 -91c-39 0 -73 13 -102 40l34 41c21 -20 43 -30 68 -30c29 0 48 17 48 41s-20 40 -47 40c-22 0 -40 -9 -55 -26l-43 19l64 119l46 -14l-35 -60c10 4 21 6 34 6c51 0 91 -36 91 -85z" />
    <glyph glyph-name="ecircumflex" unicode="&#xea;" horiz-adv-x="573" 
d="M46 265c0 167 101 280 245 280c142 0 237 -107 237 -263v-40h-403c2 -102 67 -186 164 -186c75 0 117 27 162 106l65 -39c-45 -91 -122 -138 -225 -138c-147 0 -245 113 -245 280zM127 305h322c-1 49 -17 89 -46 121s-66 48 -112 48c-90 0 -162 -80 -164 -169zM411 622
l-47 -37l-73 92l-73 -92l-47 37l66 85h108z" />
    <glyph glyph-name="uni1EC7" unicode="&#x1ec7;" horiz-adv-x="573" 
d="M46 265c0 167 101 280 245 280c142 0 237 -107 237 -263v-40h-403c2 -102 67 -186 164 -186c75 0 117 27 162 106l65 -39c-45 -91 -122 -138 -225 -138c-147 0 -245 113 -245 280zM127 305h322c-1 49 -17 89 -46 121s-66 48 -112 48c-90 0 -162 -80 -164 -169zM411 622
l-47 -37l-73 92l-73 -92l-47 37l66 85h108zM243 -158v94h96v-94h-96z" />
    <glyph glyph-name="edieresis" unicode="&#xeb;" horiz-adv-x="573" 
d="M46 265c0 167 101 280 245 280c142 0 237 -107 237 -263v-40h-403c2 -102 67 -186 164 -186c75 0 117 27 162 106l65 -39c-45 -91 -122 -138 -225 -138c-147 0 -245 113 -245 280zM127 305h322c-1 49 -17 89 -46 121s-66 48 -112 48c-90 0 -162 -80 -164 -169zM153 595
v94h96v-94h-96zM333 595v94h96v-94h-96z" />
    <glyph glyph-name="edotaccent" unicode="&#x117;" horiz-adv-x="573" 
d="M46 265c0 167 101 280 245 280c142 0 237 -107 237 -263v-40h-403c2 -102 67 -186 164 -186c75 0 117 27 162 106l65 -39c-45 -91 -122 -138 -225 -138c-147 0 -245 113 -245 280zM127 305h322c-1 49 -17 89 -46 121s-66 48 -112 48c-90 0 -162 -80 -164 -169zM243 605
v94h96v-94h-96z" />
    <glyph glyph-name="uni1EB9" unicode="&#x1eb9;" horiz-adv-x="573" 
d="M46 265c0 167 101 280 245 280c142 0 237 -107 237 -263v-40h-403c2 -102 67 -186 164 -186c75 0 117 27 162 106l65 -39c-45 -91 -122 -138 -225 -138c-147 0 -245 113 -245 280zM127 305h322c-1 49 -17 89 -46 121s-66 48 -112 48c-90 0 -162 -80 -164 -169zM243 -158
v94h96v-94h-96z" />
    <glyph glyph-name="egrave" unicode="&#xe8;" horiz-adv-x="573" 
d="M46 265c0 167 101 280 245 280c142 0 237 -107 237 -263v-40h-403c2 -102 67 -186 164 -186c75 0 117 27 162 106l65 -39c-45 -91 -122 -138 -225 -138c-147 0 -245 113 -245 280zM127 305h322c-1 49 -17 89 -46 121s-66 48 -112 48c-90 0 -162 -80 -164 -169zM265 605
l-102 116h98l74 -116h-70z" />
    <glyph glyph-name="emacron" unicode="&#x113;" horiz-adv-x="573" 
d="M46 265c0 167 101 280 245 280c142 0 237 -107 237 -263v-40h-403c2 -102 67 -186 164 -186c75 0 117 27 162 106l65 -39c-45 -91 -122 -138 -225 -138c-147 0 -245 113 -245 280zM127 305h322c-1 49 -17 89 -46 121s-66 48 -112 48c-90 0 -162 -80 -164 -169zM158 605
v63h267v-63h-267z" />
    <glyph glyph-name="eogonek" unicode="&#x119;" horiz-adv-x="573" 
d="M46 265c0 167 101 280 245 280c142 0 237 -107 237 -263v-40h-403c2 -102 67 -186 164 -186c75 0 117 27 162 106l65 -39c-45 -91 -122 -138 -225 -138c-147 0 -245 113 -245 280zM127 305h322c-1 49 -17 89 -46 121s-66 48 -112 48c-90 0 -162 -80 -164 -169zM238 -119
c0 45 39 96 102 131l42 -12c-52 -29 -78 -62 -78 -99c0 -23 11 -35 34 -35c17 0 37 6 59 18l24 -63c-30 -14 -61 -21 -94 -21c-55 0 -89 30 -89 81z" />
    <glyph glyph-name="uni0258" unicode="&#x258;" horiz-adv-x="573" 
d="M57 123l65 39c45 -79 87 -106 162 -106c97 0 162 84 164 186h-403v40c0 156 95 263 237 263c144 0 245 -113 245 -280s-98 -280 -245 -280c-103 0 -180 47 -225 138zM282 474c-46 0 -84 -16 -113 -48s-44 -72 -45 -121h322c-2 89 -74 169 -164 169z" />
    <glyph glyph-name="uni1EBD" unicode="&#x1ebd;" horiz-adv-x="573" 
d="M46 265c0 167 101 280 245 280c142 0 237 -107 237 -263v-40h-403c2 -102 67 -186 164 -186c75 0 117 27 162 106l65 -39c-45 -91 -122 -138 -225 -138c-147 0 -245 113 -245 280zM127 305h322c-1 49 -17 89 -46 121s-66 48 -112 48c-90 0 -162 -80 -164 -169zM278 622
c-16 8 -32 16 -47 16c-19 0 -31 -11 -36 -33h-47c4 57 38 93 87 93c25 0 44 -9 68 -22c16 -8 32 -16 47 -16c19 0 31 11 36 33h47c-4 -57 -38 -93 -87 -93c-25 0 -44 9 -68 22z" />
    <glyph glyph-name="uni0259" unicode="&#x259;" horiz-adv-x="573" 
d="M46 248v40h402c-2 102 -67 186 -164 186c-75 0 -115 -27 -162 -106l-64 36c45 92 123 141 224 141c146 0 246 -113 246 -280s-101 -280 -246 -280c-143 0 -236 107 -236 263zM446 225h-321c1 -49 16 -89 45 -121s66 -48 112 -48c90 0 164 80 164 169z" />
    <glyph glyph-name="f" unicode="f" horiz-adv-x="338" 
d="M111 0v460h-91v70h91v58c0 68 44 112 119 112h78v-73h-69c-33 0 -50 -17 -50 -50v-47h134v-70h-134v-460h-78z" />
    <glyph glyph-name="g" unicode="g" horiz-adv-x="581" 
d="M90 -95l71 32c32 -75 72 -105 144 -105c85 0 137 60 137 157v67h-2c-31 -45 -86 -71 -157 -71c-139 0 -237 116 -237 280c0 165 97 280 238 280c63 0 120 -26 156 -71h2v56h78v-546c0 -133 -86 -224 -215 -224c-101 0 -182 54 -215 145zM442 214v103
c0 86 -70 155 -158 155c-96 0 -160 -83 -160 -207c0 -125 65 -207 165 -207c84 0 153 71 153 156z" />
    <glyph glyph-name="gbreve" unicode="&#x11f;" horiz-adv-x="581" 
d="M90 -95l71 32c32 -75 72 -105 144 -105c85 0 137 60 137 157v67h-2c-31 -45 -86 -71 -157 -71c-139 0 -237 116 -237 280c0 165 97 280 238 280c63 0 120 -26 156 -71h2v56h78v-546c0 -133 -86 -224 -215 -224c-101 0 -182 54 -215 145zM442 214v103
c0 86 -70 155 -158 155c-96 0 -160 -83 -160 -207c0 -125 65 -207 165 -207c84 0 153 71 153 156zM157 716h49c5 -36 35 -56 79 -56c43 0 73 20 78 56h49c-4 -75 -52 -121 -127 -121c-76 0 -124 46 -128 121z" />
    <glyph glyph-name="gcircumflex" unicode="&#x11d;" horiz-adv-x="581" 
d="M90 -95l71 32c32 -75 72 -105 144 -105c85 0 137 60 137 157v67h-2c-31 -45 -86 -71 -157 -71c-139 0 -237 116 -237 280c0 165 97 280 238 280c63 0 120 -26 156 -71h2v56h78v-546c0 -133 -86 -224 -215 -224c-101 0 -182 54 -215 145zM442 214v103
c0 86 -70 155 -158 155c-96 0 -160 -83 -160 -207c0 -125 65 -207 165 -207c84 0 153 71 153 156zM404 622l-47 -37l-73 92l-73 -92l-47 37l66 85h108z" />
    <glyph glyph-name="uni0123" unicode="&#x123;" horiz-adv-x="581" 
d="M90 -95l71 32c32 -75 72 -105 144 -105c85 0 137 60 137 157v67h-2c-31 -45 -86 -71 -157 -71c-139 0 -237 116 -237 280c0 165 97 280 238 280c63 0 120 -26 156 -71h2v56h78v-546c0 -133 -86 -224 -215 -224c-101 0 -182 54 -215 145zM442 214v103
c0 86 -70 155 -158 155c-96 0 -160 -83 -160 -207c0 -125 65 -207 165 -207c84 0 153 71 153 156zM335 789v-37c-31 -5 -43 -19 -43 -51h47v-96h-110v83c0 63 37 98 106 101z" />
    <glyph glyph-name="gdotaccent" unicode="&#x121;" horiz-adv-x="581" 
d="M90 -95l71 32c32 -75 72 -105 144 -105c85 0 137 60 137 157v67h-2c-31 -45 -86 -71 -157 -71c-139 0 -237 116 -237 280c0 165 97 280 238 280c63 0 120 -26 156 -71h2v56h78v-546c0 -133 -86 -224 -215 -224c-101 0 -182 54 -215 145zM442 214v103
c0 86 -70 155 -158 155c-96 0 -160 -83 -160 -207c0 -125 65 -207 165 -207c84 0 153 71 153 156zM236 605v94h96v-94h-96z" />
    <glyph glyph-name="h" unicode="h" horiz-adv-x="555" 
d="M66 0v730h78v-249h2c29 37 90 64 147 64c123 0 201 -78 201 -201v-344h-78v333c0 87 -51 139 -132 139c-84 0 -140 -56 -140 -139v-333h-78z" />
    <glyph glyph-name="hbar" unicode="&#x127;" horiz-adv-x="555" 
d="M66 0v730h78v-249h2c29 37 90 64 147 64c123 0 201 -78 201 -201v-344h-78v333c0 87 -51 139 -132 139c-84 0 -140 -56 -140 -139v-333h-78zM5 606v59h288v-59h-288z" />
    <glyph glyph-name="hcircumflex" unicode="&#x125;" horiz-adv-x="555" 
d="M66 0v730h78v-249h2c29 37 90 64 147 64c123 0 201 -78 201 -201v-344h-78v333c0 87 -51 139 -132 139c-84 0 -140 -56 -140 -139v-333h-78zM408 777l-47 -37l-73 92l-73 -92l-47 37l66 85h108z" />
    <glyph glyph-name="uni1E25" unicode="&#x1e25;" horiz-adv-x="555" 
d="M66 0v730h78v-249h2c29 37 90 64 147 64c123 0 201 -78 201 -201v-344h-78v333c0 87 -51 139 -132 139c-84 0 -140 -56 -140 -139v-333h-78zM232 -143v94h96v-94h-96z" />
    <glyph glyph-name="i" unicode="i" horiz-adv-x="209" 
d="M66 0v530h78v-530h-78zM59 623v87h90v-87h-90z" />
    <glyph glyph-name="dotlessi" unicode="&#x131;" horiz-adv-x="209" 
d="M66 0v530h78v-530h-78z" />
    <glyph glyph-name="iacute" unicode="&#xed;" horiz-adv-x="209" 
d="M66 0v530h78v-530h-78zM58 590l74 116h98l-102 -116h-70z" />
    <glyph glyph-name="ibreve" unicode="&#x12d;" horiz-adv-x="209" 
d="M66 0v530h78v-530h-78zM-22 701h49c5 -36 35 -56 79 -56c43 0 73 20 78 56h49c-4 -75 -52 -121 -127 -121c-76 0 -124 46 -128 121z" />
    <glyph glyph-name="uni01D0" unicode="&#x1d0;" horiz-adv-x="209" 
d="M66 0v530h78v-530h-78zM178 702l47 -37l-66 -85h-108l-66 85l47 37l73 -92z" />
    <glyph glyph-name="icircumflex" unicode="&#xee;" horiz-adv-x="209" 
d="M66 0v530h78v-530h-78zM225 607l-47 -37l-73 92l-73 -92l-47 37l66 85h108z" />
    <glyph glyph-name="idieresis" unicode="&#xef;" horiz-adv-x="199" 
d="M-29 580v94h96v-94h-96zM133 580v94h96v-94h-96zM66 0v530h78v-530h-78z" />
    <glyph glyph-name="i.locl" horiz-adv-x="209" 
d="M66 0v530h78v-530h-78zM60 623v87h90v-87h-90z" />
    <glyph glyph-name="uni1ECB" unicode="&#x1ecb;" horiz-adv-x="209" 
d="M66 0v530h78v-530h-78zM59 623v87h90v-87h-90zM52 -143v94h96v-94h-96z" />
    <glyph glyph-name="igrave" unicode="&#xec;" horiz-adv-x="209" 
d="M66 0v530h78v-530h-78zM79 590l-102 116h98l74 -116h-70z" />
    <glyph glyph-name="imacron" unicode="&#x12b;" horiz-adv-x="209" 
d="M66 0v530h78v-530h-78zM-28 590v63h267v-63h-267z" />
    <glyph glyph-name="iogonek" unicode="&#x12f;" horiz-adv-x="209" 
d="M66 0v530h78v-530h-78zM-8 -119c0 45 39 96 102 131l42 -12c-52 -29 -78 -62 -78 -99c0 -23 11 -35 34 -35c17 0 37 6 59 18l24 -63c-30 -14 -61 -21 -94 -21c-55 0 -89 30 -89 81zM60 623v87h90v-87h-90z" />
    <glyph glyph-name="itilde" unicode="&#x129;" horiz-adv-x="209" 
d="M66 0v530h78v-530h-78zM92 607c-16 8 -32 16 -47 16c-19 0 -31 -11 -36 -33h-47c4 57 38 93 87 93c25 0 44 -9 68 -22c16 -8 32 -16 47 -16c19 0 31 11 36 33h47c-4 -57 -38 -93 -87 -93c-25 0 -44 9 -68 22z" />
    <glyph glyph-name="j" unicode="j" horiz-adv-x="220" 
d="M-10 -174v73h43c29 0 44 13 44 39v592h78v-596c0 -76 -37 -108 -118 -108h-47zM70 623v87h90v-87h-90z" />
    <glyph glyph-name="uni0237" unicode="&#x237;" horiz-adv-x="220" 
d="M-10 -174v73h43c29 0 44 13 44 39v592h78v-596c0 -76 -37 -108 -118 -108h-47z" />
    <glyph glyph-name="jcircumflex" unicode="&#x135;" horiz-adv-x="220" 
d="M-10 -174v73h43c29 0 44 13 44 39v592h78v-596c0 -76 -37 -108 -118 -108h-47zM236 607l-47 -37l-73 92l-73 -92l-47 37l66 85h108z" />
    <glyph glyph-name="k" unicode="k" horiz-adv-x="511" 
d="M66 0v730h78v-436h2l221 236h110l-197 -205l210 -325h-92l-172 269h-2l-80 -85v-184h-78z" />
    <glyph glyph-name="uni0137" unicode="&#x137;" horiz-adv-x="511" 
d="M66 0v730h78v-436h2l221 236h110l-197 -205l210 -325h-92l-172 269h-2l-80 -85v-184h-78zM222 -233v37c28 5 40 19 40 51h-45v96h104v-83c0 -63 -35 -98 -99 -101z" />
    <glyph glyph-name="kgreenlandic" unicode="&#x138;" horiz-adv-x="520" 
d="M66 0v530h78v-236h2l229 236h111l-203 -205l217 -325h-92l-179 269h-2l-83 -85v-184h-78z" />
    <glyph glyph-name="l" unicode="l" horiz-adv-x="209" 
d="M66 0v730h78v-730h-78z" />
    <glyph glyph-name="lacute" unicode="&#x13a;" horiz-adv-x="209" 
d="M66 0v730h78v-730h-78zM58 790l74 116h98l-102 -116h-70z" />
    <glyph glyph-name="lcaron" unicode="&#x13e;" horiz-adv-x="282" 
d="M66 0v730h78v-730h-78zM193 546v37c28 5 40 19 40 51h-45v96h104v-83c0 -63 -35 -98 -99 -101z" />
    <glyph glyph-name="uni013C" unicode="&#x13c;" horiz-adv-x="209" 
d="M66 0v730h78v-730h-78zM59 -233v37c28 5 40 19 40 51h-45v96h104v-83c0 -63 -35 -98 -99 -101z" />
    <glyph glyph-name="ldot" unicode="&#x140;" horiz-adv-x="307" 
d="M66 0v730h78v-730h-78zM188 321v116h119v-116h-119z" />
    <glyph glyph-name="uni1E37" unicode="&#x1e37;" horiz-adv-x="209" 
d="M66 0v730h78v-730h-78zM57 -143v94h96v-94h-96z" />
    <glyph glyph-name="lslash" unicode="&#x142;" horiz-adv-x="295" 
d="M110 0v730h78v-730h-78zM137 346l172 160l-32 35l-140 -132v15l-152 -140l32 -34l120 111v-15z" />
    <glyph glyph-name="m" unicode="m" horiz-adv-x="809" 
d="M66 0v530h77v-41h2c28 35 78 56 129 56c59 0 111 -27 139 -68h2c36 44 88 68 148 68c102 0 185 -69 185 -176v-369h-78v359c0 68 -45 113 -112 113c-68 0 -114 -48 -114 -120v-352h-75v359c0 68 -47 113 -112 113c-68 0 -113 -49 -113 -121v-351h-78z" />
    <glyph glyph-name="n" unicode="n" horiz-adv-x="555" 
d="M66 0v530h76v-49h2c32 39 92 64 149 64c123 0 201 -79 201 -202v-343h-78v333c0 87 -51 139 -132 139c-84 0 -140 -56 -140 -139v-333h-78z" />
    <glyph glyph-name="nacute" unicode="&#x144;" horiz-adv-x="555" 
d="M66 0v530h76v-49h2c32 39 92 64 149 64c123 0 201 -79 201 -202v-343h-78v333c0 87 -51 139 -132 139c-84 0 -140 -56 -140 -139v-333h-78zM245 605l74 116h98l-102 -116h-70z" />
    <glyph glyph-name="ncaron" unicode="&#x148;" horiz-adv-x="555" 
d="M66 0v530h76v-49h2c32 39 92 64 149 64c123 0 201 -79 201 -202v-343h-78v333c0 87 -51 139 -132 139c-84 0 -140 -56 -140 -139v-333h-78zM365 717l47 -37l-66 -85h-108l-66 85l47 37l73 -92z" />
    <glyph glyph-name="uni0146" unicode="&#x146;" horiz-adv-x="555" 
d="M66 0v530h76v-49h2c32 39 92 64 149 64c123 0 201 -79 201 -202v-343h-78v333c0 87 -51 139 -132 139c-84 0 -140 -56 -140 -139v-333h-78zM233 -233v37c28 5 40 19 40 51h-45v96h104v-83c0 -63 -35 -98 -99 -101z" />
    <glyph glyph-name="uni1E45" unicode="&#x1e45;" horiz-adv-x="555" 
d="M66 0v530h76v-49h2c32 39 92 64 149 64c123 0 201 -79 201 -202v-343h-78v333c0 87 -51 139 -132 139c-84 0 -140 -56 -140 -139v-333h-78zM244 605v94h96v-94h-96z" />
    <glyph glyph-name="uni1E47" unicode="&#x1e47;" horiz-adv-x="555" 
d="M66 0v530h76v-49h2c32 39 92 64 149 64c123 0 201 -79 201 -202v-343h-78v333c0 87 -51 139 -132 139c-84 0 -140 -56 -140 -139v-333h-78zM232 -143v94h96v-94h-96z" />
    <glyph glyph-name="eng" unicode="&#x14b;" horiz-adv-x="555" 
d="M494 343v-411c0 -75 -36 -106 -121 -106h-43v73h43c29 0 43 13 43 39v395c0 87 -51 139 -132 139c-84 0 -140 -56 -140 -139v-333h-78v530h76v-49h2c32 39 92 64 149 64c123 0 201 -79 201 -202z" />
    <glyph glyph-name="ntilde" unicode="&#xf1;" horiz-adv-x="555" 
d="M66 0v530h76v-49h2c32 39 92 64 149 64c123 0 201 -79 201 -202v-343h-78v333c0 87 -51 139 -132 139c-84 0 -140 -56 -140 -139v-333h-78zM279 622c-16 8 -32 16 -47 16c-19 0 -31 -11 -36 -33h-47c4 57 38 93 87 93c25 0 44 -9 68 -22c16 -8 32 -16 47 -16
c19 0 31 11 36 33h47c-4 -57 -38 -93 -87 -93c-25 0 -44 9 -68 22z" />
    <glyph glyph-name="o" unicode="o" horiz-adv-x="590" 
d="M46 265c0 167 100 280 249 280c150 0 250 -113 250 -280s-100 -280 -250 -280c-149 0 -249 113 -249 280zM467 265c0 127 -67 207 -172 207s-171 -80 -171 -207s66 -207 171 -207s172 80 172 207z" />
    <glyph glyph-name="oacute" unicode="&#xf3;" horiz-adv-x="590" 
d="M46 265c0 167 100 280 249 280c150 0 250 -113 250 -280s-100 -280 -250 -280c-149 0 -249 113 -249 280zM467 265c0 127 -67 207 -172 207s-171 -80 -171 -207s66 -207 171 -207s172 80 172 207zM248 605l74 116h98l-102 -116h-70z" />
    <glyph glyph-name="obreve" unicode="&#x14f;" horiz-adv-x="590" 
d="M46 265c0 167 100 280 249 280c150 0 250 -113 250 -280s-100 -280 -250 -280c-149 0 -249 113 -249 280zM467 265c0 127 -67 207 -172 207s-171 -80 -171 -207s66 -207 171 -207s172 80 172 207zM168 716h49c5 -36 35 -56 79 -56c43 0 73 20 78 56h49
c-4 -75 -52 -121 -127 -121c-76 0 -124 46 -128 121z" />
    <glyph glyph-name="uni01D2" unicode="&#x1d2;" horiz-adv-x="590" 
d="M46 265c0 167 100 280 249 280c150 0 250 -113 250 -280s-100 -280 -250 -280c-149 0 -249 113 -249 280zM467 265c0 127 -67 207 -172 207s-171 -80 -171 -207s66 -207 171 -207s172 80 172 207zM368 717l47 -37l-66 -85h-108l-66 85l47 37l73 -92z" />
    <glyph glyph-name="ocircumflex" unicode="&#xf4;" horiz-adv-x="590" 
d="M46 265c0 167 100 280 249 280c150 0 250 -113 250 -280s-100 -280 -250 -280c-149 0 -249 113 -249 280zM467 265c0 127 -67 207 -172 207s-171 -80 -171 -207s66 -207 171 -207s172 80 172 207zM415 622l-47 -37l-73 92l-73 -92l-47 37l66 85h108z" />
    <glyph glyph-name="uni1ED9" unicode="&#x1ed9;" horiz-adv-x="590" 
d="M46 265c0 167 100 280 249 280c150 0 250 -113 250 -280s-100 -280 -250 -280c-149 0 -249 113 -249 280zM467 265c0 127 -67 207 -172 207s-171 -80 -171 -207s66 -207 171 -207s172 80 172 207zM415 622l-47 -37l-73 92l-73 -92l-47 37l66 85h108zM247 -158v94h96v-94
h-96z" />
    <glyph glyph-name="odieresis" unicode="&#xf6;" horiz-adv-x="590" 
d="M46 265c0 167 100 280 249 280c150 0 250 -113 250 -280s-100 -280 -250 -280c-149 0 -249 113 -249 280zM467 265c0 127 -67 207 -172 207s-171 -80 -171 -207s66 -207 171 -207s172 80 172 207zM157 595v94h96v-94h-96zM337 595v94h96v-94h-96z" />
    <glyph glyph-name="uni1ECD" unicode="&#x1ecd;" horiz-adv-x="590" 
d="M46 265c0 167 100 280 249 280c150 0 250 -113 250 -280s-100 -280 -250 -280c-149 0 -249 113 -249 280zM467 265c0 127 -67 207 -172 207s-171 -80 -171 -207s66 -207 171 -207s172 80 172 207zM247 -158v94h96v-94h-96z" />
    <glyph glyph-name="ograve" unicode="&#xf2;" horiz-adv-x="590" 
d="M46 265c0 167 100 280 249 280c150 0 250 -113 250 -280s-100 -280 -250 -280c-149 0 -249 113 -249 280zM467 265c0 127 -67 207 -172 207s-171 -80 -171 -207s66 -207 171 -207s172 80 172 207zM269 605l-102 116h98l74 -116h-70z" />
    <glyph glyph-name="ohungarumlaut" unicode="&#x151;" horiz-adv-x="590" 
d="M46 265c0 167 100 280 249 280c150 0 250 -113 250 -280s-100 -280 -250 -280c-149 0 -249 113 -249 280zM467 265c0 127 -67 207 -172 207s-171 -80 -171 -207s66 -207 171 -207s172 80 172 207zM162 605l74 116h98l-102 -116h-70zM316 605l74 116h98l-102 -116h-70z
" />
    <glyph glyph-name="omacron" unicode="&#x14d;" horiz-adv-x="590" 
d="M46 265c0 167 100 280 249 280c150 0 250 -113 250 -280s-100 -280 -250 -280c-149 0 -249 113 -249 280zM467 265c0 127 -67 207 -172 207s-171 -80 -171 -207s66 -207 171 -207s172 80 172 207zM162 605v63h267v-63h-267z" />
    <glyph glyph-name="oslash" unicode="&#xf8;" horiz-adv-x="591" 
d="M545 265c0 -167 -100 -280 -249 -280c-59 0 -109 17 -152 50l-36 -46l-35 26l40 50c-44 49 -67 119 -67 200c0 167 102 280 250 280c60 0 111 -17 153 -51l36 46l35 -27l-39 -50c41 -49 64 -118 64 -198zM159 125l245 312c-29 26 -65 39 -108 39c-53 0 -95 -19 -127 -58
s-48 -90 -48 -153c0 -55 13 -102 38 -140zM470 265c0 55 -12 101 -36 138l-245 -311c29 -25 64 -38 107 -38c107 0 174 83 174 211z" />
    <glyph glyph-name="oslashacute" unicode="&#x1ff;" horiz-adv-x="591" 
d="M545 265c0 -167 -100 -280 -249 -280c-59 0 -109 17 -152 50l-36 -46l-35 26l40 50c-44 49 -67 119 -67 200c0 167 102 280 250 280c60 0 111 -17 153 -51l36 46l35 -27l-39 -50c41 -49 64 -118 64 -198zM159 125l245 312c-29 26 -65 39 -108 39c-53 0 -95 -19 -127 -58
s-48 -90 -48 -153c0 -55 13 -102 38 -140zM470 265c0 55 -12 101 -36 138l-245 -311c29 -25 64 -38 107 -38c107 0 174 83 174 211zM249 605l74 116h98l-102 -116h-70z" />
    <glyph glyph-name="otilde" unicode="&#xf5;" horiz-adv-x="590" 
d="M46 265c0 167 100 280 249 280c150 0 250 -113 250 -280s-100 -280 -250 -280c-149 0 -249 113 -249 280zM467 265c0 127 -67 207 -172 207s-171 -80 -171 -207s66 -207 171 -207s172 80 172 207zM282 622c-16 8 -32 16 -47 16c-19 0 -31 -11 -36 -33h-47
c4 57 38 93 87 93c25 0 44 -9 68 -22c16 -8 32 -16 47 -16c19 0 31 11 36 33h47c-4 -57 -38 -93 -87 -93c-25 0 -44 9 -68 22z" />
    <glyph glyph-name="uni1E4D" unicode="&#x1e4d;" horiz-adv-x="590" 
d="M46 265c0 167 100 280 249 280c150 0 250 -113 250 -280s-100 -280 -250 -280c-149 0 -249 113 -249 280zM467 265c0 127 -67 207 -172 207s-171 -80 -171 -207s66 -207 171 -207s172 80 172 207zM282 622c-16 8 -32 16 -47 16c-19 0 -31 -11 -36 -33h-47
c4 57 38 93 87 93c25 0 44 -9 68 -22c16 -8 32 -16 47 -16c19 0 31 11 36 33h47c-4 -57 -38 -93 -87 -93c-25 0 -44 9 -68 22zM248 728l74 116h98l-102 -116h-70z" />
    <glyph glyph-name="oe" unicode="&#x153;" horiz-adv-x="995" 
d="M949 282v-40h-402c2 -103 67 -187 163 -187c76 0 117 28 164 107l63 -39c-45 -91 -122 -138 -225 -138c-92 0 -166 45 -206 122c-41 -77 -117 -122 -210 -122c-150 0 -250 113 -250 280s100 280 250 280c93 0 169 -45 210 -122c41 77 114 122 206 122
c142 0 237 -107 237 -263zM468 265c0 127 -68 210 -172 210c-53 0 -95 -19 -126 -58c-31 -38 -47 -89 -47 -152s16 -114 47 -153c31 -38 73 -57 126 -57c104 0 172 83 172 210zM549 305h322c-1 49 -17 90 -46 122s-66 48 -113 48c-90 0 -163 -81 -163 -170z" />
    <glyph glyph-name="p" unicode="p" horiz-adv-x="586" 
d="M66 -225v755h78v-56h2c35 43 92 71 155 71c139 0 239 -115 239 -280s-100 -280 -237 -280c-64 0 -124 27 -157 68h-2v-278h-78zM462 265c0 124 -65 207 -161 207c-87 0 -157 -69 -157 -155v-103c0 -86 69 -156 153 -156c100 0 165 82 165 207z" />
    <glyph glyph-name="thorn" unicode="&#xfe;" horiz-adv-x="586" 
d="M540 265c0 -165 -100 -280 -237 -280c-64 0 -124 27 -157 68h-2v-278h-78v955h78v-256h2c35 43 92 71 155 71c139 0 239 -115 239 -280zM462 265c0 124 -65 207 -161 207c-87 0 -157 -69 -157 -155v-103c0 -86 69 -156 153 -156c100 0 165 82 165 207z" />
    <glyph glyph-name="q" unicode="q" horiz-adv-x="586" 
d="M520 -225h-78v278h-2c-33 -41 -93 -68 -157 -68c-137 0 -237 115 -237 280s100 280 239 280c63 0 120 -28 155 -71h2v56h78v-755zM442 214v103c0 86 -70 155 -157 155c-96 0 -161 -83 -161 -207c0 -125 65 -207 165 -207c84 0 153 70 153 156z" />
    <glyph glyph-name="r" unicode="r" horiz-adv-x="325" 
d="M66 0v530h74v-44h2c20 33 59 53 110 53c16 0 34 -3 53 -8l-17 -81c-19 6 -37 9 -52 9c-63 0 -92 -42 -92 -141v-318h-78z" />
    <glyph glyph-name="racute" unicode="&#x155;" horiz-adv-x="325" 
d="M66 0v530h74v-44h2c20 33 59 53 110 53c16 0 34 -3 53 -8l-17 -81c-19 6 -37 9 -52 9c-63 0 -92 -42 -92 -141v-318h-78zM110 590l74 116h98l-102 -116h-70z" />
    <glyph glyph-name="rcaron" unicode="&#x159;" horiz-adv-x="325" 
d="M66 0v530h74v-44h2c20 33 59 53 110 53c16 0 34 -3 53 -8l-17 -81c-19 6 -37 9 -52 9c-63 0 -92 -42 -92 -141v-318h-78zM230 702l47 -37l-66 -85h-108l-66 85l47 37l73 -92z" />
    <glyph glyph-name="uni0157" unicode="&#x157;" horiz-adv-x="325" 
d="M66 0v530h74v-44h2c20 33 59 53 110 53c16 0 34 -3 53 -8l-17 -81c-19 6 -37 9 -52 9c-63 0 -92 -42 -92 -141v-318h-78zM59 -233v37c28 5 40 19 40 51h-45v96h104v-83c0 -63 -35 -98 -99 -101z" />
    <glyph glyph-name="s" unicode="s" horiz-adv-x="502" 
d="M36 181l76 14c16 -97 62 -137 159 -137c72 0 117 29 117 76c0 52 -31 73 -146 107c-136 40 -181 76 -181 152c0 88 77 152 185 152c105 0 185 -61 205 -158l-76 -17c-19 67 -62 102 -129 102c-64 0 -107 -31 -107 -76c0 -37 30 -57 129 -86c149 -44 199 -87 199 -173
c0 -92 -77 -152 -196 -152c-137 0 -223 71 -235 196z" />
    <glyph glyph-name="sacute" unicode="&#x15b;" horiz-adv-x="502" 
d="M36 181l76 14c16 -97 62 -137 159 -137c72 0 117 29 117 76c0 52 -31 73 -146 107c-136 40 -181 76 -181 152c0 88 77 152 185 152c105 0 185 -61 205 -158l-76 -17c-19 67 -62 102 -129 102c-64 0 -107 -31 -107 -76c0 -37 30 -57 129 -86c149 -44 199 -87 199 -173
c0 -92 -77 -152 -196 -152c-137 0 -223 71 -235 196zM199 605l74 116h98l-102 -116h-70z" />
    <glyph glyph-name="scaron" unicode="&#x161;" horiz-adv-x="502" 
d="M36 181l76 14c16 -97 62 -137 159 -137c72 0 117 29 117 76c0 52 -31 73 -146 107c-136 40 -181 76 -181 152c0 88 77 152 185 152c105 0 185 -61 205 -158l-76 -17c-19 67 -62 102 -129 102c-64 0 -107 -31 -107 -76c0 -37 30 -57 129 -86c149 -44 199 -87 199 -173
c0 -92 -77 -152 -196 -152c-137 0 -223 71 -235 196zM319 717l47 -37l-66 -85h-108l-66 85l47 37l73 -92z" />
    <glyph glyph-name="scedilla" unicode="&#x15f;" horiz-adv-x="502" 
d="M36 181l76 14c16 -97 62 -137 159 -137c72 0 117 29 117 76c0 52 -31 73 -146 107c-136 40 -181 76 -181 152c0 88 77 152 185 152c105 0 185 -61 205 -158l-76 -17c-19 67 -62 102 -129 102c-64 0 -107 -31 -107 -76c0 -37 30 -57 129 -86c149 -44 199 -87 199 -173
c0 -92 -77 -152 -196 -152c-137 0 -223 71 -235 196zM394 -139c0 -55 -44 -91 -103 -91c-39 0 -73 13 -102 40l34 41c21 -20 43 -30 68 -30c29 0 48 17 48 41s-20 40 -47 40c-22 0 -40 -9 -55 -26l-43 19l64 119l46 -14l-35 -60c10 4 21 6 34 6c51 0 91 -36 91 -85z" />
    <glyph glyph-name="scircumflex" unicode="&#x15d;" horiz-adv-x="502" 
d="M36 181l76 14c16 -97 62 -137 159 -137c72 0 117 29 117 76c0 52 -31 73 -146 107c-136 40 -181 76 -181 152c0 88 77 152 185 152c105 0 185 -61 205 -158l-76 -17c-19 67 -62 102 -129 102c-64 0 -107 -31 -107 -76c0 -37 30 -57 129 -86c149 -44 199 -87 199 -173
c0 -92 -77 -152 -196 -152c-137 0 -223 71 -235 196zM366 622l-47 -37l-73 92l-73 -92l-47 37l66 85h108z" />
    <glyph glyph-name="uni0219" unicode="&#x219;" horiz-adv-x="502" 
d="M36 181l76 14c16 -97 62 -137 159 -137c72 0 117 29 117 76c0 52 -31 73 -146 107c-136 40 -181 76 -181 152c0 88 77 152 185 152c105 0 185 -61 205 -158l-76 -17c-19 67 -62 102 -129 102c-64 0 -107 -31 -107 -76c0 -37 30 -57 129 -86c149 -44 199 -87 199 -173
c0 -92 -77 -152 -196 -152c-137 0 -223 71 -235 196zM224 -248v37c28 5 40 19 40 51h-45v96h104v-83c0 -63 -35 -98 -99 -101z" />
    <glyph glyph-name="uni1E63" unicode="&#x1e63;" horiz-adv-x="502" 
d="M36 181l76 14c16 -97 62 -137 159 -137c72 0 117 29 117 76c0 52 -31 73 -146 107c-136 40 -181 76 -181 152c0 88 77 152 185 152c105 0 185 -61 205 -158l-76 -17c-19 67 -62 102 -129 102c-64 0 -107 -31 -107 -76c0 -37 30 -57 129 -86c149 -44 199 -87 199 -173
c0 -92 -77 -152 -196 -152c-137 0 -223 71 -235 196zM223 -158v94h96v-94h-96z" />
    <glyph glyph-name="germandbls" unicode="&#xdf;" horiz-adv-x="556" 
d="M66 0v511c0 122 84 204 211 204c118 0 203 -77 203 -184c0 -59 -31 -108 -83 -139v-2c69 -25 113 -92 113 -176c0 -135 -91 -214 -244 -214h-43v73h43c105 0 166 52 166 143c0 83 -51 131 -140 131h-69v70h50c81 0 129 41 129 110c0 71 -48 115 -125 115
c-85 0 -133 -51 -133 -146v-496h-78z" />
    <glyph glyph-name="longs" unicode="&#x17f;" horiz-adv-x="273" 
d="M101 0v459h-81v71h81v73c0 68 44 111 119 111h78v-73h-69c-35 0 -50 -15 -50 -50v-591h-78z" />
    <glyph glyph-name="t" unicode="t" horiz-adv-x="338" 
d="M308 460h-130v-339c0 -35 15 -48 58 -48h44v-73h-50c-96 0 -130 31 -130 122v338h-80v70h80v120h78v-120h130v-70z" />
    <glyph glyph-name="tbar" unicode="&#x167;" horiz-adv-x="338" 
d="M308 460h-130v-339c0 -35 15 -48 58 -48h44v-73h-50c-96 0 -130 31 -130 122v338h-80v70h80v120h78v-120h130v-70zM20 246v59h288v-59h-288z" />
    <glyph glyph-name="tcaron" unicode="&#x165;" horiz-adv-x="338" 
d="M308 460h-130v-339c0 -35 15 -48 58 -48h44v-73h-50c-96 0 -130 31 -130 122v338h-80v70h80v120h78v-120h130v-70zM238 583v37c28 5 40 19 40 51h-45v96h104v-83c0 -63 -35 -98 -99 -101z" />
    <glyph glyph-name="uni0163" unicode="&#x163;" horiz-adv-x="338" 
d="M308 460h-130v-339c0 -35 15 -48 58 -48h44v-73h-50c-96 0 -130 31 -130 122v338h-80v70h80v120h78v-120h130v-70zM310 -125c0 -55 -44 -91 -103 -91c-39 0 -73 13 -102 40l34 41c21 -20 43 -30 68 -30c29 0 48 17 48 41s-20 40 -47 40c-22 0 -40 -9 -55 -26l-43 19
l64 119l46 -14l-35 -60c10 4 21 6 34 6c51 0 91 -36 91 -85z" />
    <glyph glyph-name="uni021B" unicode="&#x21b;" horiz-adv-x="338" 
d="M308 460h-130v-339c0 -35 15 -48 58 -48h44v-73h-50c-96 0 -130 31 -130 122v338h-80v70h80v120h78v-120h130v-70zM140 -233v37c28 5 40 19 40 51h-45v96h104v-83c0 -63 -35 -98 -99 -101z" />
    <glyph glyph-name="uni1E6D" unicode="&#x1e6d;" horiz-adv-x="338" 
d="M308 460h-130v-339c0 -35 15 -48 58 -48h44v-73h-50c-96 0 -130 31 -130 122v338h-80v70h80v120h78v-120h130v-70zM139 -143v94h96v-94h-96z" />
    <glyph glyph-name="u" unicode="u" horiz-adv-x="543" 
d="M56 186v344h78v-333c0 -95 43 -139 132 -139c80 0 133 55 133 139v333h78v-530h-76v49h-2c-33 -39 -92 -64 -156 -64c-119 0 -187 73 -187 201z" />
    <glyph glyph-name="uacute" unicode="&#xfa;" horiz-adv-x="543" 
d="M56 186v344h78v-333c0 -95 43 -139 132 -139c80 0 133 55 133 139v333h78v-530h-76v49h-2c-33 -39 -92 -64 -156 -64c-119 0 -187 73 -187 201zM220 590l74 116h98l-102 -116h-70z" />
    <glyph glyph-name="ubreve" unicode="&#x16d;" horiz-adv-x="543" 
d="M56 186v344h78v-333c0 -95 43 -139 132 -139c80 0 133 55 133 139v333h78v-530h-76v49h-2c-33 -39 -92 -64 -156 -64c-119 0 -187 73 -187 201zM140 701h49c5 -36 35 -56 79 -56c43 0 73 20 78 56h49c-4 -75 -52 -121 -127 -121c-76 0 -124 46 -128 121z" />
    <glyph glyph-name="uni01D4" unicode="&#x1d4;" horiz-adv-x="543" 
d="M56 186v344h78v-333c0 -95 43 -139 132 -139c80 0 133 55 133 139v333h78v-530h-76v49h-2c-33 -39 -92 -64 -156 -64c-119 0 -187 73 -187 201zM340 702l47 -37l-66 -85h-108l-66 85l47 37l73 -92z" />
    <glyph glyph-name="ucircumflex" unicode="&#xfb;" horiz-adv-x="543" 
d="M56 186v344h78v-333c0 -95 43 -139 132 -139c80 0 133 55 133 139v333h78v-530h-76v49h-2c-33 -39 -92 -64 -156 -64c-119 0 -187 73 -187 201zM387 607l-47 -37l-73 92l-73 -92l-47 37l66 85h108z" />
    <glyph glyph-name="udieresis" unicode="&#xfc;" horiz-adv-x="543" 
d="M56 186v344h78v-333c0 -95 43 -139 132 -139c80 0 133 55 133 139v333h78v-530h-76v49h-2c-33 -39 -92 -64 -156 -64c-119 0 -187 73 -187 201zM129 580v94h96v-94h-96zM309 580v94h96v-94h-96z" />
    <glyph glyph-name="uni01D8" unicode="&#x1d8;" horiz-adv-x="543" 
d="M56 186v344h78v-333c0 -95 43 -139 132 -139c80 0 133 55 133 139v333h78v-530h-76v49h-2c-33 -39 -92 -64 -156 -64c-119 0 -187 73 -187 201zM129 580v94h96v-94h-96zM309 580v94h96v-94h-96zM220 714l74 116h98l-102 -116h-70z" />
    <glyph glyph-name="uni01DA" unicode="&#x1da;" horiz-adv-x="543" 
d="M56 186v344h78v-333c0 -95 43 -139 132 -139c80 0 133 55 133 139v333h78v-530h-76v49h-2c-33 -39 -92 -64 -156 -64c-119 0 -187 73 -187 201zM129 580v94h96v-94h-96zM309 580v94h96v-94h-96zM340 826l47 -37l-66 -85h-108l-66 85l47 37l73 -92z" />
    <glyph glyph-name="uni01DC" unicode="&#x1dc;" horiz-adv-x="543" 
d="M56 186v344h78v-333c0 -95 43 -139 132 -139c80 0 133 55 133 139v333h78v-530h-76v49h-2c-33 -39 -92 -64 -156 -64c-119 0 -187 73 -187 201zM129 580v94h96v-94h-96zM309 580v94h96v-94h-96zM241 714l-102 116h98l74 -116h-70z" />
    <glyph glyph-name="uni01D6" unicode="&#x1d6;" horiz-adv-x="543" 
d="M56 186v344h78v-333c0 -95 43 -139 132 -139c80 0 133 55 133 139v333h78v-530h-76v49h-2c-33 -39 -92 -64 -156 -64c-119 0 -187 73 -187 201zM129 580v94h96v-94h-96zM309 580v94h96v-94h-96zM134 714v63h267v-63h-267z" />
    <glyph glyph-name="uni1EE5" unicode="&#x1ee5;" horiz-adv-x="543" 
d="M56 186v344h78v-333c0 -95 43 -139 132 -139c80 0 133 55 133 139v333h78v-530h-76v49h-2c-33 -39 -92 -64 -156 -64c-119 0 -187 73 -187 201zM195 -158v94h96v-94h-96z" />
    <glyph glyph-name="ugrave" unicode="&#xf9;" horiz-adv-x="543" 
d="M56 186v344h78v-333c0 -95 43 -139 132 -139c80 0 133 55 133 139v333h78v-530h-76v49h-2c-33 -39 -92 -64 -156 -64c-119 0 -187 73 -187 201zM241 590l-102 116h98l74 -116h-70z" />
    <glyph glyph-name="uhungarumlaut" unicode="&#x171;" horiz-adv-x="543" 
d="M56 186v344h78v-333c0 -95 43 -139 132 -139c80 0 133 55 133 139v333h78v-530h-76v49h-2c-33 -39 -92 -64 -156 -64c-119 0 -187 73 -187 201zM134 590l74 116h98l-102 -116h-70zM288 590l74 116h98l-102 -116h-70z" />
    <glyph glyph-name="umacron" unicode="&#x16b;" horiz-adv-x="543" 
d="M56 186v344h78v-333c0 -95 43 -139 132 -139c80 0 133 55 133 139v333h78v-530h-76v49h-2c-33 -39 -92 -64 -156 -64c-119 0 -187 73 -187 201zM134 590v63h267v-63h-267z" />
    <glyph glyph-name="uogonek" unicode="&#x173;" horiz-adv-x="543" 
d="M56 186v344h78v-333c0 -95 43 -139 132 -139c80 0 133 55 133 139v333h78v-530h-76v49h-2c-33 -39 -92 -64 -156 -64c-119 0 -187 73 -187 201zM326 -119c0 45 39 96 102 131l42 -12c-52 -29 -78 -62 -78 -99c0 -23 11 -35 34 -35c17 0 37 6 59 18l24 -63
c-30 -14 -61 -21 -94 -21c-55 0 -89 30 -89 81z" />
    <glyph glyph-name="uring" unicode="&#x16f;" horiz-adv-x="543" 
d="M56 186v344h78v-333c0 -95 43 -139 132 -139c80 0 133 55 133 139v333h78v-530h-76v49h-2c-33 -39 -92 -64 -156 -64c-119 0 -187 73 -187 201zM150 643c0 65 51 114 122 114s122 -47 122 -114c0 -65 -51 -113 -122 -113s-122 48 -122 113zM338 643c0 39 -27 66 -66 66
s-65 -27 -65 -66c0 -37 26 -65 65 -65s66 28 66 65z" />
    <glyph glyph-name="utilde" unicode="&#x169;" horiz-adv-x="543" 
d="M56 186v344h78v-333c0 -95 43 -139 132 -139c80 0 133 55 133 139v333h78v-530h-76v49h-2c-33 -39 -92 -64 -156 -64c-119 0 -187 73 -187 201zM254 607c-16 8 -32 16 -47 16c-19 0 -31 -11 -36 -33h-47c4 57 38 93 87 93c25 0 44 -9 68 -22c16 -8 32 -16 47 -16
c19 0 31 11 36 33h47c-4 -57 -38 -93 -87 -93c-25 0 -44 9 -68 22z" />
    <glyph glyph-name="v" unicode="v" horiz-adv-x="536" 
d="M234 0l-224 530h84l173 -423h2l173 423h84l-224 -530h-68z" />
    <glyph glyph-name="w" unicode="w" horiz-adv-x="755" 
d="M152 0l-127 530h77l96 -412h2l142 412h71l142 -412h2l96 412h77l-127 -530h-74l-150 433h-2l-151 -433h-74z" />
    <glyph glyph-name="wacute" unicode="&#x1e83;" horiz-adv-x="755" 
d="M152 0l-127 530h77l96 -412h2l142 412h71l142 -412h2l96 412h77l-127 -530h-74l-150 433h-2l-151 -433h-74zM331 590l74 116h98l-102 -116h-70z" />
    <glyph glyph-name="wcircumflex" unicode="&#x175;" horiz-adv-x="755" 
d="M152 0l-127 530h77l96 -412h2l142 412h71l142 -412h2l96 412h77l-127 -530h-74l-150 433h-2l-151 -433h-74zM498 607l-47 -37l-73 92l-73 -92l-47 37l66 85h108z" />
    <glyph glyph-name="wdieresis" unicode="&#x1e85;" horiz-adv-x="755" 
d="M152 0l-127 530h77l96 -412h2l142 412h71l142 -412h2l96 412h77l-127 -530h-74l-150 433h-2l-151 -433h-74zM240 580v94h96v-94h-96zM420 580v94h96v-94h-96z" />
    <glyph glyph-name="wgrave" unicode="&#x1e81;" horiz-adv-x="755" 
d="M152 0l-127 530h77l96 -412h2l142 412h71l142 -412h2l96 412h77l-127 -530h-74l-150 433h-2l-151 -433h-74zM352 590l-102 116h98l74 -116h-70z" />
    <glyph glyph-name="x" unicode="x" horiz-adv-x="469" 
d="M5 0l182 270l-176 260h92l130 -199h2l131 199h92l-177 -260l183 -270h-92l-137 209h-2l-136 -209h-92z" />
    <glyph glyph-name="y" unicode="y" horiz-adv-x="511" 
d="M102 -225l112 270l-204 485h83l161 -395h2l162 395h83l-318 -755h-81z" />
    <glyph glyph-name="yacute" unicode="&#xfd;" horiz-adv-x="511" 
d="M102 -225l112 270l-204 485h83l161 -395h2l162 395h83l-318 -755h-81zM209 590l74 116h98l-102 -116h-70z" />
    <glyph glyph-name="ycircumflex" unicode="&#x177;" horiz-adv-x="511" 
d="M102 -225l112 270l-204 485h83l161 -395h2l162 395h83l-318 -755h-81zM376 607l-47 -37l-73 92l-73 -92l-47 37l66 85h108z" />
    <glyph glyph-name="ydieresis" unicode="&#xff;" horiz-adv-x="511" 
d="M102 -225l112 270l-204 485h83l161 -395h2l162 395h83l-318 -755h-81zM118 580v94h96v-94h-96zM298 580v94h96v-94h-96z" />
    <glyph glyph-name="uni1EF5" unicode="&#x1ef5;" horiz-adv-x="511" 
d="M102 -225l112 270l-204 485h83l161 -395h2l162 395h83l-318 -755h-81zM307 -143v94h96v-94h-96z" />
    <glyph glyph-name="ygrave" unicode="&#x1ef3;" horiz-adv-x="511" 
d="M102 -225l112 270l-204 485h83l161 -395h2l162 395h83l-318 -755h-81zM230 590l-102 116h98l74 -116h-70z" />
    <glyph glyph-name="uni1EF9" unicode="&#x1ef9;" horiz-adv-x="511" 
d="M102 -225l112 270l-204 485h83l161 -395h2l162 395h83l-318 -755h-81zM243 607c-16 8 -32 16 -47 16c-19 0 -31 -11 -36 -33h-47c4 57 38 93 87 93c25 0 44 -9 68 -22c16 -8 32 -16 47 -16c19 0 31 11 36 33h47c-4 -57 -38 -93 -87 -93c-25 0 -44 9 -68 22z" />
    <glyph glyph-name="z" unicode="z" horiz-adv-x="500" 
d="M30 0v70l337 388v2h-325v70h420v-70l-337 -388v-2h345v-70h-440z" />
    <glyph glyph-name="zacute" unicode="&#x17a;" horiz-adv-x="500" 
d="M30 0v70l337 388v2h-325v70h420v-70l-337 -388v-2h345v-70h-440zM203 590l74 116h98l-102 -116h-70z" />
    <glyph glyph-name="zcaron" unicode="&#x17e;" horiz-adv-x="500" 
d="M30 0v70l337 388v2h-325v70h420v-70l-337 -388v-2h345v-70h-440zM323 702l47 -37l-66 -85h-108l-66 85l47 37l73 -92z" />
    <glyph glyph-name="zdotaccent" unicode="&#x17c;" horiz-adv-x="500" 
d="M30 0v70l337 388v2h-325v70h420v-70l-337 -388v-2h345v-70h-440zM205 623v87h90v-87h-90z" />
    <glyph glyph-name="uni1E93" unicode="&#x1e93;" horiz-adv-x="500" 
d="M30 0v70l337 388v2h-325v70h420v-70l-337 -388v-2h345v-70h-440zM202 -143v94h96v-94h-96z" />
    <glyph glyph-name="A.ordn" horiz-adv-x="280" 
d="M17 495c0 48 32 74 108 91c47 11 63 20 63 36c0 21 -19 33 -48 33c-35 0 -59 -19 -64 -52l-61 10c9 56 60 94 125 94c67 0 110 -38 110 -97v-186h-55v29h-1c-15 -23 -48 -36 -85 -36c-56 0 -92 30 -92 78zM189 524v42h-1c-7 -12 -20 -17 -51 -25c-44 -13 -58 -22 -58 -41
c0 -20 15 -30 44 -30c35 0 66 25 66 54z" />
    <glyph glyph-name="B.ccmp" horiz-adv-x="318" 
d="M303 562c0 -85 -52 -145 -127 -145c-36 0 -67 13 -83 34h-1v-27h-62v380h64v-129h1c17 20 46 32 81 32c75 0 127 -60 127 -145zM241 562c0 53 -32 89 -77 89c-39 0 -70 -30 -70 -67v-44c0 -37 31 -66 70 -66c45 0 77 36 77 88z" />
    <glyph glyph-name="C.ccmp" horiz-adv-x="297" 
d="M15 562c0 85 57 145 137 145c68 0 121 -42 130 -102l-62 -11c-8 37 -31 56 -68 56c-45 0 -73 -35 -73 -88s28 -88 73 -88c37 0 60 19 68 56l62 -11c-9 -60 -62 -102 -130 -102c-80 0 -137 60 -137 145z" />
    <glyph glyph-name="D.ccmp" horiz-adv-x="318" 
d="M223 675h1v129h64v-380h-62v27h-1c-16 -21 -47 -34 -83 -34c-75 0 -127 60 -127 145s52 145 127 145c35 0 64 -12 81 -32zM224 540v44c0 37 -31 67 -70 67c-45 0 -77 -36 -77 -89c0 -52 32 -88 77 -88c39 0 70 29 70 66z" />
    <glyph glyph-name="E.ccmp" horiz-adv-x="302" 
d="M287 563v-26h-207c7 -40 35 -63 76 -63c27 0 47 11 71 42l49 -37c-28 -41 -69 -62 -122 -62c-84 0 -139 57 -139 145c0 42 13 77 39 104s59 41 98 41c80 0 135 -59 135 -144zM80 590h144c-1 36 -32 60 -72 60c-39 0 -67 -23 -72 -60z" />
    <glyph glyph-name="F.ccmp" horiz-adv-x="198" 
d="M54 424v219h-49v57h49v28c0 49 30 75 83 75h46v-54h-41c-17 0 -25 -7 -25 -24v-25h76v-57h-76v-219h-63z" />
    <glyph glyph-name="G.ccmp" horiz-adv-x="314" 
d="M34 366l51 32c15 -30 39 -45 72 -45c39 0 65 23 65 71v23h-1c-18 -20 -44 -30 -79 -30c-76 0 -127 60 -127 145c0 81 54 145 131 145c31 0 60 -11 77 -31h1v24h60v-272c0 -83 -51 -132 -127 -132c-53 0 -100 25 -123 70zM221 530v66c0 29 -30 54 -67 54
c-45 0 -75 -36 -75 -88s30 -88 75 -88c39 0 67 24 67 56z" />
    <glyph glyph-name="H.ccmp" horiz-adv-x="311" 
d="M30 424v380h64v-134h1c19 25 48 37 85 37c64 0 106 -38 106 -98v-185h-63v160c0 40 -24 67 -64 67s-65 -26 -65 -65v-162h-64z" />
    <glyph glyph-name="I.ordn" horiz-adv-x="129" 
d="M30 747v64h69v-64h-69zM33 424v276h64v-276h-64z" />
    <glyph glyph-name="J.ordn" horiz-adv-x="135" 
d="M36 747v64h69v-64h-69zM-20 323v58h29c23 0 30 7 30 28v291h64v-298c0 -56 -26 -79 -85 -79h-38z" />
    <glyph glyph-name="K.ccmp" horiz-adv-x="275" 
d="M30 424v380h64v-208h1l96 104h84l-104 -109l103 -167h-74l-71 121h-1l-34 -36v-85h-64z" />
    <glyph glyph-name="L.ccmp" horiz-adv-x="124" 
d="M30 424v380h64v-380h-64z" />
    <glyph glyph-name="M.ccmp" horiz-adv-x="455" 
d="M30 424v276h62v-27h1c17 23 45 34 74 34c32 0 63 -14 79 -37h1c17 23 49 37 81 37c61 0 102 -41 102 -102v-181h-64v175c0 32 -20 51 -51 51c-32 0 -54 -20 -54 -52v-174h-61v175c0 32 -21 51 -53 51s-53 -20 -53 -52v-174h-64z" />
    <glyph glyph-name="N.ccmp" horiz-adv-x="311" 
d="M30 424v276h61v-33h1c21 27 51 40 88 40c64 0 106 -38 106 -98v-185h-63v160c0 40 -24 66 -64 66s-65 -25 -65 -64v-162h-64z" />
    <glyph glyph-name="O.ordn" horiz-adv-x="310" 
d="M15 562c0 85 57 145 140 145s140 -60 140 -145s-57 -145 -140 -145s-140 60 -140 145zM231 562c0 55 -29 88 -76 88s-76 -33 -76 -88s29 -88 76 -88s76 33 76 88z" />
    <glyph glyph-name="P.ccmp" horiz-adv-x="321" 
d="M306 562c0 -85 -54 -145 -129 -145c-35 0 -65 12 -82 32h-1v-146h-64v397h61v-29h1c16 23 48 36 85 36c75 0 129 -60 129 -145zM243 562c0 53 -31 89 -78 89c-39 0 -71 -30 -71 -67v-44c0 -37 32 -66 71 -66c47 0 78 35 78 88z" />
    <glyph glyph-name="Q.ccmp" horiz-adv-x="321" 
d="M229 671h1v29h61v-397h-64v146h-1c-17 -20 -47 -32 -82 -32c-75 0 -129 60 -129 145s54 145 129 145c37 0 69 -13 85 -36zM227 540v44c0 37 -32 67 -71 67c-47 0 -78 -36 -78 -89s31 -88 78 -88c39 0 71 29 71 66z" />
    <glyph glyph-name="R.ccmp" horiz-adv-x="196" 
d="M196 701l-11 -59c-11 3 -20 4 -28 4c-42 0 -63 -27 -63 -80v-142h-64v276h60v-27h1c13 20 39 32 68 32c13 0 25 -1 37 -4z" />
    <glyph glyph-name="S.ccmp" horiz-adv-x="292" 
d="M25 515l56 15c11 -43 32 -61 75 -61c34 0 51 12 51 35c0 17 -15 25 -66 40c-76 19 -104 41 -104 82c0 48 42 81 103 81c60 0 104 -30 119 -81l-55 -16c-9 29 -33 45 -64 45c-27 0 -42 -10 -42 -27c0 -15 13 -23 60 -35c79 -19 109 -43 109 -87c0 -53 -44 -89 -111 -89
c-71 0 -120 37 -131 98z" />
    <glyph glyph-name="T.ccmp" horiz-adv-x="189" 
d="M183 643h-72v-136c0 -17 7 -22 30 -22h31v-61h-35c-64 0 -89 22 -89 77v142h-43v57h43v67h63v-67h72v-57z" />
    <glyph glyph-name="U.ccmp" horiz-adv-x="303" 
d="M210 700h63v-276h-61v24h-1c-18 -21 -44 -31 -79 -31c-65 0 -107 37 -107 108v175h64v-170c0 -37 20 -56 59 -56c37 0 62 25 62 64v162z" />
    <glyph glyph-name="V.ccmp" horiz-adv-x="305" 
d="M125 424l-115 276h69l74 -187h1l73 187h68l-116 -276h-54z" />
    <glyph glyph-name="W.ccmp" horiz-adv-x="429" 
d="M76 424l-66 276h67l41 -192h1l65 192h62l64 -192h1l41 192h67l-66 -276h-67l-71 197h-1l-70 -197h-68z" />
    <glyph glyph-name="X.ccmp" horiz-adv-x="311" 
d="M10 424l106 139l-104 137h78l65 -92h1l65 92h78l-104 -137l106 -139h-80l-65 94h-1l-65 -94h-80z" />
    <glyph glyph-name="Y.ccmp" horiz-adv-x="309" 
d="M229 700h70l-169 -397h-69l60 143l-111 254h71l73 -179h1z" />
    <glyph glyph-name="Z.ccmp" horiz-adv-x="279" 
d="M10 424v51l163 167v1h-159v57h249v-51l-163 -167v-1h168v-57h-258z" />
    <glyph glyph-name="a.salt" horiz-adv-x="580" 
d="M441 530h74v-530h-74v48h-2c-33 -39 -91 -63 -155 -63c-138 0 -238 112 -238 280s100 280 238 280c64 0 122 -24 155 -63h2v48zM437 187v156c0 69 -63 129 -147 129c-101 0 -166 -76 -166 -207s65 -207 166 -207c84 0 147 60 147 129z" />
    <glyph glyph-name="aacute.salt" horiz-adv-x="580" 
d="M441 530h74v-530h-74v48h-2c-33 -39 -91 -63 -155 -63c-138 0 -238 112 -238 280s100 280 238 280c64 0 122 -24 155 -63h2v48zM437 187v156c0 69 -63 129 -147 129c-101 0 -166 -76 -166 -207s65 -207 166 -207c84 0 147 60 147 129zM249 605l74 116h98l-102 -116h-70z
" />
    <glyph glyph-name="abreve.salt" horiz-adv-x="580" 
d="M441 530h74v-530h-74v48h-2c-33 -39 -91 -63 -155 -63c-138 0 -238 112 -238 280s100 280 238 280c64 0 122 -24 155 -63h2v48zM437 187v156c0 69 -63 129 -147 129c-101 0 -166 -76 -166 -207s65 -207 166 -207c84 0 147 60 147 129zM169 716h49c5 -36 35 -56 79 -56
c43 0 73 20 78 56h49c-4 -75 -52 -121 -127 -121c-76 0 -124 46 -128 121z" />
    <glyph glyph-name="uni01CE.salt" horiz-adv-x="580" 
d="M441 530h74v-530h-74v48h-2c-33 -39 -91 -63 -155 -63c-138 0 -238 112 -238 280s100 280 238 280c64 0 122 -24 155 -63h2v48zM437 187v156c0 69 -63 129 -147 129c-101 0 -166 -76 -166 -207s65 -207 166 -207c84 0 147 60 147 129zM369 717l47 -37l-66 -85h-108
l-66 85l47 37l73 -92z" />
    <glyph glyph-name="acircumflex.salt" horiz-adv-x="580" 
d="M441 530h74v-530h-74v48h-2c-33 -39 -91 -63 -155 -63c-138 0 -238 112 -238 280s100 280 238 280c64 0 122 -24 155 -63h2v48zM437 187v156c0 69 -63 129 -147 129c-101 0 -166 -76 -166 -207s65 -207 166 -207c84 0 147 60 147 129zM416 622l-47 -37l-73 92l-73 -92
l-47 37l66 85h108z" />
    <glyph glyph-name="uni1EAD.salt" horiz-adv-x="580" 
d="M441 530h74v-530h-74v48h-2c-33 -39 -91 -63 -155 -63c-138 0 -238 112 -238 280s100 280 238 280c64 0 122 -24 155 -63h2v48zM437 187v156c0 69 -63 129 -147 129c-101 0 -166 -76 -166 -207s65 -207 166 -207c84 0 147 60 147 129zM416 622l-47 -37l-73 92l-73 -92
l-47 37l66 85h108zM248 -158v94h96v-94h-96z" />
    <glyph glyph-name="adieresis.salt" horiz-adv-x="580" 
d="M441 530h74v-530h-74v48h-2c-33 -39 -91 -63 -155 -63c-138 0 -238 112 -238 280s100 280 238 280c64 0 122 -24 155 -63h2v48zM437 187v156c0 69 -63 129 -147 129c-101 0 -166 -76 -166 -207s65 -207 166 -207c84 0 147 60 147 129zM158 595v94h96v-94h-96zM338 595v94
h96v-94h-96z" />
    <glyph glyph-name="uni01DF.salt" horiz-adv-x="580" 
d="M441 530h74v-530h-74v48h-2c-33 -39 -91 -63 -155 -63c-138 0 -238 112 -238 280s100 280 238 280c64 0 122 -24 155 -63h2v48zM437 187v156c0 69 -63 129 -147 129c-101 0 -166 -76 -166 -207s65 -207 166 -207c84 0 147 60 147 129zM158 595v94h96v-94h-96zM338 595v94
h96v-94h-96zM163 729v63h267v-63h-267z" />
    <glyph glyph-name="uni1EA1.salt" horiz-adv-x="580" 
d="M441 530h74v-530h-74v48h-2c-33 -39 -91 -63 -155 -63c-138 0 -238 112 -238 280s100 280 238 280c64 0 122 -24 155 -63h2v48zM437 187v156c0 69 -63 129 -147 129c-101 0 -166 -76 -166 -207s65 -207 166 -207c84 0 147 60 147 129zM248 -158v94h96v-94h-96z" />
    <glyph glyph-name="agrave.salt" horiz-adv-x="580" 
d="M441 530h74v-530h-74v48h-2c-33 -39 -91 -63 -155 -63c-138 0 -238 112 -238 280s100 280 238 280c64 0 122 -24 155 -63h2v48zM437 187v156c0 69 -63 129 -147 129c-101 0 -166 -76 -166 -207s65 -207 166 -207c84 0 147 60 147 129zM270 605l-102 116h98l74 -116h-70z
" />
    <glyph glyph-name="amacron.salt" horiz-adv-x="580" 
d="M441 530h74v-530h-74v48h-2c-33 -39 -91 -63 -155 -63c-138 0 -238 112 -238 280s100 280 238 280c64 0 122 -24 155 -63h2v48zM437 187v156c0 69 -63 129 -147 129c-101 0 -166 -76 -166 -207s65 -207 166 -207c84 0 147 60 147 129zM163 605v63h267v-63h-267z" />
    <glyph glyph-name="aogonek.salt" horiz-adv-x="580" 
d="M441 530h74v-530h-74v48h-2c-33 -39 -91 -63 -155 -63c-138 0 -238 112 -238 280s100 280 238 280c64 0 122 -24 155 -63h2v48zM437 187v156c0 69 -63 129 -147 129c-101 0 -166 -76 -166 -207s65 -207 166 -207c84 0 147 60 147 129zM365 -119c0 45 39 96 102 131
l42 -12c-52 -29 -78 -62 -78 -99c0 -23 11 -35 34 -35c17 0 37 6 59 18l24 -63c-30 -14 -61 -21 -94 -21c-55 0 -89 30 -89 81z" />
    <glyph glyph-name="aring.salt" horiz-adv-x="581" 
d="M172 679c0 60 47 103 110 103c64 0 110 -43 110 -103c0 -59 -46 -101 -110 -101c-63 0 -110 44 -110 101zM342 679c0 36 -25 60 -60 60s-59 -24 -59 -60c0 -33 24 -58 59 -58s60 25 60 58zM441 530h74v-530h-74v48h-2c-33 -39 -91 -63 -155 -63c-138 0 -238 112 -238 280
s100 280 238 280c64 0 122 -24 155 -63h2v48zM437 187v156c0 69 -63 129 -147 129c-101 0 -166 -76 -166 -207s65 -207 166 -207c84 0 147 60 147 129z" />
    <glyph glyph-name="aringacute.salt" horiz-adv-x="580" 
d="M172 679c0 47 28 84 72 97l69 108h98l-94 -107c45 -12 75 -50 75 -98c0 -59 -46 -101 -110 -101c-63 0 -110 44 -110 101zM223 679c0 -33 24 -58 59 -58s60 25 60 58c0 36 -25 60 -60 60s-59 -24 -59 -60zM441 530h74v-530h-74v48h-2c-33 -39 -91 -63 -155 -63
c-138 0 -238 112 -238 280s100 280 238 280c64 0 122 -24 155 -63h2v48zM437 187v156c0 69 -63 129 -147 129c-101 0 -166 -76 -166 -207s65 -207 166 -207c84 0 147 60 147 129z" />
    <glyph glyph-name="atilde.salt" horiz-adv-x="580" 
d="M441 530h74v-530h-74v48h-2c-33 -39 -91 -63 -155 -63c-138 0 -238 112 -238 280s100 280 238 280c64 0 122 -24 155 -63h2v48zM437 187v156c0 69 -63 129 -147 129c-101 0 -166 -76 -166 -207s65 -207 166 -207c84 0 147 60 147 129zM283 622c-16 8 -32 16 -47 16
c-19 0 -31 -11 -36 -33h-47c4 57 38 93 87 93c25 0 44 -9 68 -22c16 -8 32 -16 47 -16c19 0 31 11 36 33h47c-4 -57 -38 -93 -87 -93c-25 0 -44 9 -68 22z" />
    <glyph glyph-name="aring.ss02" horiz-adv-x="510" 
d="M46 135c0 89 53 136 186 168c103 25 135 47 135 90c0 49 -44 81 -109 81c-69 0 -118 -43 -133 -114l-79 15c9 52 32 93 71 124s86 46 141 46c119 0 191 -65 191 -172v-373h-73v56h-2c-31 -44 -87 -71 -154 -71c-107 0 -174 58 -174 150zM371 179v119h-2
c-11 -25 -45 -43 -116 -62c-93 -24 -129 -51 -129 -96c0 -53 37 -82 102 -82c85 0 145 50 145 121zM136 610c0 65 51 114 122 114s122 -47 122 -114c0 -65 -51 -113 -122 -113s-122 48 -122 113zM324 610c0 39 -27 66 -66 66s-65 -27 -65 -66c0 -37 26 -65 65 -65
s66 28 66 65z" />
    <glyph glyph-name="aringacute.ss02" horiz-adv-x="510" 
d="M46 135c0 89 53 136 186 168c103 25 135 47 135 90c0 49 -44 81 -109 81c-69 0 -118 -43 -133 -114l-79 15c9 52 32 93 71 124s86 46 141 46c119 0 191 -65 191 -172v-373h-73v56h-2c-31 -44 -87 -71 -154 -71c-107 0 -174 58 -174 150zM371 179v119h-2
c-11 -25 -45 -43 -116 -62c-93 -24 -129 -51 -129 -96c0 -53 37 -82 102 -82c85 0 145 50 145 121zM136 610c0 65 51 114 122 114s122 -47 122 -114c0 -65 -51 -113 -122 -113s-122 48 -122 113zM324 610c0 39 -27 66 -66 66s-65 -27 -65 -66c0 -37 26 -65 65 -65
s66 28 66 65zM211 714l74 116h98l-102 -116h-70z" />
    <glyph glyph-name="f.ss03" horiz-adv-x="309" 
d="M111 0v460h-91v70h91v58c0 68 44 112 119 112h78v-73h-69c-33 0 -50 -17 -50 -50v-47h104v-70h-104v-460h-78z" />
    <glyph glyph-name="j.ss03" horiz-adv-x="209" 
d="M59 623v87h90v-87h-90zM66 -225v755h78v-755h-78z" />
    <glyph glyph-name="t.ss03" horiz-adv-x="318" 
d="M289 460h-111v-339c0 -35 15 -48 58 -48h44v-73h-50c-96 0 -130 31 -130 122v338h-80v70h80v120h78v-120h111v-70z" />
    <glyph glyph-name="ordfeminine" unicode="&#xaa;" horiz-adv-x="280" 
d="M17 495c0 48 32 74 108 91c47 11 63 20 63 36c0 21 -19 33 -48 33c-35 0 -59 -19 -64 -52l-61 10c9 56 60 94 125 94c67 0 110 -38 110 -97v-186h-55v29h-1c-15 -23 -48 -36 -85 -36c-56 0 -92 30 -92 78zM189 524v42h-1c-7 -12 -20 -17 -51 -25c-44 -13 -58 -22 -58 -41
c0 -20 15 -30 44 -30c35 0 66 25 66 54z" />
    <glyph glyph-name="ordmasculine" unicode="&#xba;" horiz-adv-x="310" 
d="M15 562c0 85 57 145 140 145s140 -60 140 -145s-57 -145 -140 -145s-140 60 -140 145zM231 562c0 55 -29 88 -76 88s-76 -33 -76 -88s29 -88 76 -88s76 33 76 88z" />
    <glyph glyph-name="uni0394" unicode="&#x394;" horiz-adv-x="594" 
d="M338 700l251 -700h-584l253 700h80zM116 73h362l-180 514h-2z" />
    <glyph glyph-name="uni03A9" unicode="&#x3a9;" horiz-adv-x="680" 
d="M491 70v-2h130v-68h-245v66c98 20 176 149 176 294c0 168 -83 277 -212 277s-212 -109 -212 -277c-2 -143 79 -277 175 -294v-66h-246v68h129v2c-87 53 -141 165 -141 290c0 210 120 355 295 355s295 -145 295 -355c0 -127 -55 -237 -144 -290z" />
    <glyph glyph-name="uni03BC" unicode="&#x3bc;" horiz-adv-x="553" 
d="M409 530h78v-530h-76v49h-2c-31 -39 -85 -64 -142 -64c-51 0 -92 14 -121 41h-2v-251h-78v755h78v-333c0 -95 43 -139 132 -139c80 0 133 55 133 139v333z" />
    <glyph glyph-name="pi" unicode="&#x3c0;" horiz-adv-x="646" 
d="M596 457h-107v-326c0 -44 14 -58 58 -58h44v-73h-59c-83 0 -121 37 -121 120v337h-209v-457h-78v457h-104v73h576v-73z" />
    <glyph glyph-name="zero" unicode="0" horiz-adv-x="644" 
d="M45 336c0 216 113 350 277 350s277 -134 277 -350c0 -215 -114 -350 -277 -350s-277 135 -277 350zM521 336c0 174 -78 277 -199 277s-199 -103 -199 -277s78 -277 199 -277s199 103 199 277z" />
    <glyph glyph-name="one" unicode="1" horiz-adv-x="371" 
d="M192 0v582l-157 -98v84l166 104h69v-672h-78z" />
    <glyph glyph-name="two" unicode="2" horiz-adv-x="596" 
d="M149 73h381v-73h-464v63c0 55 9 99 28 130c13 22 33 42 58 61c26 19 67 42 122 69c147 72 189 111 189 178c0 65 -62 112 -150 112c-107 0 -172 -60 -180 -164l-77 6c4 71 29 127 75 168c47 42 107 63 182 63c129 0 228 -81 228 -185c0 -100 -51 -154 -207 -230
c-59 -29 -99 -50 -122 -65c-22 -15 -38 -30 -47 -47c-11 -20 -15 -43 -16 -86z" />
    <glyph glyph-name="three" unicode="3" horiz-adv-x="588" 
d="M46 223l77 12c13 -116 75 -176 180 -176c92 0 152 52 152 131c0 91 -55 134 -167 134h-50v69h50c84 0 149 48 149 109c0 69 -51 111 -135 111c-88 0 -149 -47 -161 -126l-77 11c8 57 33 103 76 137s97 51 162 51c127 0 213 -71 213 -178c0 -60 -37 -116 -96 -141v-2
c71 -27 114 -91 114 -175c0 -121 -92 -204 -230 -204c-148 0 -241 86 -257 237z" />
    <glyph glyph-name="four" unicode="4" horiz-adv-x="560" 
d="M361 0v134h-351v72l311 466h118v-465h91v-73h-91v-134h-78zM89 207h272v403h-2z" />
    <glyph glyph-name="five" unicode="5" horiz-adv-x="585" 
d="M40 178l75 19c21 -92 80 -138 181 -138c104 0 175 66 175 166c0 47 -16 86 -48 116c-32 31 -74 46 -127 46c-69 0 -123 -25 -170 -72l-71 18l68 339h366v-73h-306l-39 -190l2 -1c43 32 97 48 162 48c139 0 241 -99 241 -231c0 -142 -104 -239 -253 -239
c-137 0 -229 69 -256 192z" />
    <glyph glyph-name="six" unicode="6" horiz-adv-x="614" 
d="M579 217c0 -139 -110 -231 -248 -231c-181 0 -286 130 -286 340c-3 207 126 363 289 360c120 0 206 -63 234 -179l-76 -18c-24 87 -76 124 -156 124c-115 0 -202 -106 -208 -269h3c35 63 112 103 209 103c137 0 239 -97 239 -230zM501 217c0 97 -71 161 -171 161
c-105 0 -177 -69 -177 -161c0 -90 71 -158 178 -158c93 0 170 60 170 158z" />
    <glyph glyph-name="seven" unicode="7" horiz-adv-x="502" 
d="M99 0l285 598v1h-369v73h457v-69l-286 -603h-87z" />
    <glyph glyph-name="eight" unicode="8" horiz-adv-x="566" 
d="M25 186c0 84 49 149 134 180v2c-63 32 -95 79 -95 141c0 101 92 177 219 177s219 -76 219 -177c0 -61 -31 -108 -94 -141v-2c83 -32 133 -96 133 -180c0 -121 -103 -201 -258 -201s-258 80 -258 201zM425 505c0 65 -58 111 -142 111c-85 0 -141 -44 -141 -111
c0 -65 56 -107 141 -107s142 42 142 107zM460 191c0 80 -69 134 -177 134s-177 -54 -177 -134c0 -81 68 -131 177 -131c108 0 177 50 177 131z" />
    <glyph glyph-name="nine" unicode="9" horiz-adv-x="590" 
d="M545 375c0 -273 -76 -390 -255 -390c-112 0 -196 63 -225 171l76 20c25 -77 74 -116 149 -116c112 0 163 70 171 243h-3c-37 -48 -99 -76 -179 -76c-151 0 -244 89 -244 232c0 132 105 227 248 227c163 0 262 -108 262 -311zM449 454c0 95 -66 157 -166 157
c-101 0 -167 -61 -167 -152c0 -97 64 -159 167 -159c99 0 166 62 166 154z" />
    <glyph glyph-name="zero.ccmp" horiz-adv-x="644" 
d="M45 350c0 225 113 365 277 365s277 -140 277 -365s-113 -365 -277 -365c-163 0 -277 141 -277 365zM516 350c0 180 -75 287 -194 287s-194 -107 -194 -287s75 -287 194 -287s194 107 194 287z" />
    <glyph glyph-name="one.ccmp" horiz-adv-x="375" 
d="M191 0v606l-156 -101v87l166 108h73v-700h-83z" />
    <glyph glyph-name="two.ccmp" horiz-adv-x="598" 
d="M154 78h377v-78h-465v66c0 57 10 101 29 133c13 23 32 45 57 65c26 20 66 44 121 72c147 76 187 116 187 187c0 67 -61 114 -146 114c-105 0 -168 -61 -175 -170l-83 7c4 74 29 133 75 176c47 43 108 65 183 65c128 0 229 -85 229 -192c0 -104 -51 -162 -206 -242
c-58 -29 -98 -52 -120 -68c-22 -15 -38 -32 -47 -49c-10 -19 -15 -48 -16 -86z" />
    <glyph glyph-name="three.ccmp" horiz-adv-x="592" 
d="M46 233l82 13c14 -122 73 -183 176 -183c91 0 150 54 150 135c0 95 -54 140 -165 140h-50v72h50c82 0 147 50 147 113c0 72 -50 116 -133 116c-87 0 -146 -49 -158 -132l-81 12c8 59 34 107 77 142c43 36 97 54 162 54c126 0 216 -76 216 -186c0 -60 -38 -119 -95 -147
v-2c69 -27 112 -97 112 -182c0 -127 -94 -213 -232 -213c-148 0 -241 89 -258 248z" />
    <glyph glyph-name="four.ccmp" horiz-adv-x="563" 
d="M360 0v143h-350v72l308 485h125v-484h89v-73h-89v-143h-83zM92 216h268v419h-2z" />
    <glyph glyph-name="five.ccmp" horiz-adv-x="591" 
d="M40 185l81 20c21 -96 78 -142 179 -142c104 0 173 67 173 171c0 49 -16 90 -48 121c-31 32 -73 48 -125 48c-65 0 -121 -25 -169 -74l-73 18l67 353h367v-78h-304l-38 -194l2 -1c43 32 97 48 161 48c139 0 243 -102 243 -241c0 -147 -106 -249 -256 -249
c-139 0 -233 73 -260 200z" />
    <glyph glyph-name="six.ccmp" horiz-adv-x="615" 
d="M580 226c0 -144 -110 -241 -248 -241c-182 0 -287 137 -287 354c-2 215 125 380 290 376c120 0 205 -67 234 -187l-78 -19c-24 91 -75 130 -154 130c-114 0 -201 -111 -207 -278h2c37 63 114 105 209 105c137 0 239 -103 239 -240zM499 226c0 51 -16 91 -47 122
s-72 46 -121 46c-105 0 -176 -73 -176 -168c0 -94 71 -165 177 -165c90 0 167 62 167 165z" />
    <glyph glyph-name="seven.ccmp" horiz-adv-x="503" 
d="M96 0l283 620v2h-364v78h458v-72l-284 -628h-93z" />
    <glyph glyph-name="eight.ccmp" horiz-adv-x="567" 
d="M25 195c0 87 48 155 131 188v2c-61 33 -92 81 -92 146c0 105 94 184 220 184s220 -79 220 -184c0 -64 -31 -113 -92 -146v-2c81 -33 130 -101 130 -188c0 -126 -103 -210 -258 -210c-156 0 -259 84 -259 210zM422 526c0 68 -55 114 -138 114s-138 -46 -138 -114
c0 -67 55 -110 138 -110s138 43 138 110zM457 200c0 84 -68 138 -173 138c-107 0 -174 -54 -174 -138c0 -83 67 -135 174 -135s173 52 173 135z" />
    <glyph glyph-name="nine.ccmp" horiz-adv-x="590" 
d="M545 392c0 -285 -76 -407 -255 -407c-112 0 -196 66 -225 178l76 20c24 -81 74 -122 149 -122c112 0 163 73 170 256h-1c-37 -51 -100 -79 -180 -79c-151 0 -244 92 -244 240c0 137 105 237 248 237c163 0 262 -112 262 -323zM449 473c0 100 -66 166 -166 166
c-101 0 -167 -64 -167 -161c0 -103 64 -167 167 -167c99 0 166 65 166 162z" />
    <glyph glyph-name="zero.tnum" 
d="M48 350c0 225 113 365 277 365s277 -140 277 -365s-113 -365 -277 -365c-163 0 -277 141 -277 365zM519 350c0 180 -75 287 -194 287s-194 -107 -194 -287s75 -287 194 -287s194 107 194 287z" />
    <glyph glyph-name="one.tnum" 
d="M372 78h151v-78h-397v78h163v528l-156 -101v87l166 108h73v-622z" />
    <glyph glyph-name="two.tnum" 
d="M180 78h377v-78h-465v66c0 57 10 101 29 133c13 23 32 45 57 65c26 20 66 44 121 72c147 76 187 116 187 187c0 67 -61 114 -146 114c-105 0 -168 -61 -175 -170l-83 7c4 74 29 133 75 176c47 43 108 65 183 65c128 0 229 -85 229 -192c0 -104 -51 -162 -206 -242
c-58 -29 -98 -52 -120 -68c-22 -15 -38 -32 -47 -49c-10 -19 -15 -48 -16 -86z" />
    <glyph glyph-name="three.tnum" 
d="M80 233l82 13c14 -122 73 -183 176 -183c91 0 150 54 150 135c0 95 -54 140 -165 140h-50v72h50c82 0 147 50 147 113c0 72 -50 116 -133 116c-87 0 -146 -49 -158 -132l-81 12c8 59 34 107 77 142c43 36 97 54 162 54c126 0 216 -76 216 -186c0 -60 -38 -119 -95 -147
v-2c69 -27 112 -97 112 -182c0 -127 -94 -213 -232 -213c-148 0 -241 89 -258 248z" />
    <glyph glyph-name="four.tnum" 
d="M413 0v143h-350v72l308 485h125v-484h89v-73h-89v-143h-83zM145 216h268v419h-2z" />
    <glyph glyph-name="five.tnum" 
d="M66 185l81 20c21 -96 78 -142 179 -142c104 0 173 67 173 171c0 49 -16 90 -48 121c-31 32 -73 48 -125 48c-65 0 -121 -25 -169 -74l-73 18l67 353h367v-78h-304l-38 -194l2 -1c43 32 97 48 161 48c139 0 243 -102 243 -241c0 -147 -106 -249 -256 -249
c-139 0 -233 73 -260 200z" />
    <glyph glyph-name="six.tnum" 
d="M596 226c0 -144 -110 -241 -248 -241c-182 0 -287 137 -287 354c-2 215 125 380 290 376c120 0 205 -67 234 -187l-78 -19c-24 91 -75 130 -154 130c-114 0 -201 -111 -207 -278h2c37 63 114 105 209 105c137 0 239 -103 239 -240zM515 226c0 51 -16 91 -47 122
s-72 46 -121 46c-105 0 -176 -73 -176 -168c0 -94 71 -165 177 -165c90 0 167 62 167 165z" />
    <glyph glyph-name="seven.tnum" 
d="M177 0l283 620v2h-364v78h458v-72l-284 -628h-93z" />
    <glyph glyph-name="eight.tnum" 
d="M67 195c0 87 48 155 131 188v2c-61 33 -92 81 -92 146c0 105 94 184 220 184s220 -79 220 -184c0 -64 -31 -113 -92 -146v-2c81 -33 130 -101 130 -188c0 -126 -103 -210 -258 -210c-156 0 -259 84 -259 210zM464 526c0 68 -55 114 -138 114s-138 -46 -138 -114
c0 -67 55 -110 138 -110s138 43 138 110zM499 200c0 84 -68 138 -173 138c-107 0 -174 -54 -174 -138c0 -83 67 -135 174 -135s173 52 173 135z" />
    <glyph glyph-name="nine.tnum" 
d="M584 392c0 -285 -76 -407 -255 -407c-112 0 -196 66 -225 178l76 20c24 -81 74 -122 149 -122c112 0 163 73 170 256h-1c-37 -51 -100 -79 -180 -79c-151 0 -244 92 -244 240c0 137 105 237 248 237c163 0 262 -112 262 -323zM488 473c0 100 -66 166 -166 166
c-101 0 -167 -64 -167 -161c0 -103 64 -167 167 -167c99 0 166 65 166 162z" />
    <glyph glyph-name="zero.zero" horiz-adv-x="644" 
d="M599 336c0 -215 -114 -350 -277 -350s-277 135 -277 350c0 216 113 350 277 350s277 -134 277 -350zM184 119l225 476c-26 14 -55 21 -87 21c-121 0 -201 -103 -201 -280c0 -93 23 -168 63 -217zM523 336c0 96 -23 172 -66 220l-225 -477c27 -15 57 -23 90 -23
c120 0 201 103 201 280z" />
    <glyph glyph-name="zero.ordn" horiz-adv-x="644" 
d="M599 350c0 -225 -113 -365 -277 -365c-163 0 -277 141 -277 365c0 225 113 365 277 365s277 -140 277 -365zM183 127l232 490c-27 17 -58 26 -93 26c-120 0 -198 -108 -198 -293c0 -95 20 -170 59 -223zM520 350c0 96 -20 170 -59 222l-232 -489c27 -17 58 -26 93 -26
c120 0 198 108 198 293z" />
    <glyph glyph-name="zero.tnum_zero" 
d="M602 350c0 -225 -113 -365 -277 -365c-163 0 -277 141 -277 365c0 225 113 365 277 365s277 -140 277 -365zM186 127l232 490c-27 17 -58 26 -93 26c-120 0 -198 -108 -198 -293c0 -95 20 -170 59 -223zM523 350c0 96 -20 170 -59 222l-232 -489c27 -17 58 -26 93 -26
c120 0 198 108 198 293z" />
    <glyph glyph-name="zero.subs" horiz-adv-x="408" 
d="M30 61c0 135 66 219 174 219c107 0 174 -84 174 -219s-67 -219 -174 -219c-108 0 -174 84 -174 219zM308 61c0 100 -37 156 -104 156s-104 -56 -104 -156s37 -156 104 -156s104 56 104 156z" />
    <glyph glyph-name="one.subs" horiz-adv-x="271" 
d="M130 -149v345l-105 -63v73l109 65h66v-420h-70z" />
    <glyph glyph-name="two.subs" horiz-adv-x="372" 
d="M111 -86h229v-63h-305v52c0 42 8 73 25 92c20 24 53 44 113 69c76 33 99 55 99 91c0 37 -31 63 -78 63c-55 0 -91 -34 -94 -89l-70 5c4 88 69 146 164 146c85 0 148 -53 148 -125c0 -63 -30 -96 -122 -139c-38 -18 -63 -30 -74 -36c-11 -7 -19 -13 -24 -19
c-8 -11 -10 -20 -11 -47z" />
    <glyph glyph-name="three.subs" horiz-adv-x="370" 
d="M25 -8l69 10c7 -63 39 -96 96 -96c51 0 81 26 81 69c0 44 -28 66 -85 66h-36v57h29c51 0 78 22 78 59c0 35 -29 60 -72 60c-45 0 -76 -26 -83 -70l-69 11c11 75 69 122 152 122s142 -48 142 -116c0 -35 -15 -62 -51 -87v-1c43 -22 64 -58 64 -107
c0 -76 -61 -127 -150 -127c-97 0 -157 54 -165 150z" />
    <glyph glyph-name="four.subs" horiz-adv-x="373" 
d="M232 -149v78h-222v65l179 277h114v-278h55v-64h-55v-78h-71zM82 -7h150v229h-1z" />
    <glyph glyph-name="five.subs" horiz-adv-x="388" 
d="M30 -41l66 21c11 -48 47 -75 100 -75s92 37 92 86c0 51 -37 85 -92 85c-36 0 -69 -14 -93 -41l-64 18l41 218h236v-64h-183l-18 -98l1 -1c25 17 55 25 88 25c91 0 154 -58 154 -141c0 -86 -69 -150 -162 -150c-85 0 -150 46 -166 117z" />
    <glyph glyph-name="six.subs" horiz-adv-x="398" 
d="M368 -11c0 -88 -65 -148 -160 -148c-115 0 -178 81 -178 217c0 133 75 222 181 222c77 0 129 -39 148 -106l-66 -18c-12 41 -39 61 -82 61c-61 0 -101 -48 -106 -132h2c25 29 65 47 109 47c91 0 152 -58 152 -143zM298 -9c0 52 -34 84 -87 84c-52 0 -92 -33 -92 -84
c0 -52 30 -86 89 -86c53 0 90 33 90 86z" />
    <glyph glyph-name="seven.subs" horiz-adv-x="306" 
d="M51 -149l171 355v1h-222v64h301v-59l-171 -361h-79z" />
    <glyph glyph-name="eight.subs" horiz-adv-x="395" 
d="M30 -31c0 51 28 90 76 114v1c-33 17 -53 47 -53 82c0 67 60 114 145 114c84 0 144 -47 144 -114c0 -36 -20 -65 -52 -82v-1c48 -24 75 -63 75 -114c0 -77 -64 -127 -167 -127s-168 50 -168 127zM278 163c0 35 -33 59 -80 59s-78 -24 -78 -59s30 -59 78 -59s80 24 80 59z
M295 -22c0 43 -40 72 -97 72s-98 -29 -98 -72c0 -45 38 -73 98 -73s97 28 97 73z" />
    <glyph glyph-name="nine.subs" horiz-adv-x="390" 
d="M360 74c0 -155 -55 -232 -165 -232c-80 0 -136 42 -152 110l68 17c11 -44 36 -64 84 -64c57 0 92 46 93 127c-23 -25 -57 -38 -100 -38c-95 0 -158 56 -158 141c0 87 65 145 158 145c108 0 172 -77 172 -206zM190 55c55 0 89 30 89 81c0 48 -38 81 -91 81
s-88 -31 -88 -82c0 -49 35 -80 90 -80z" />
    <glyph glyph-name="zero.dnom" horiz-adv-x="408" 
d="M30 210c0 135 66 219 174 219c107 0 174 -84 174 -219s-67 -219 -174 -219c-108 0 -174 84 -174 219zM308 210c0 100 -37 156 -104 156s-104 -56 -104 -156s37 -156 104 -156s104 56 104 156z" />
    <glyph glyph-name="one.dnom" horiz-adv-x="271" 
d="M130 0v345l-105 -63v73l109 65h66v-420h-70z" />
    <glyph glyph-name="two.dnom" horiz-adv-x="372" 
d="M111 63h229v-63h-305v52c0 42 8 73 25 92c20 24 53 44 113 69c76 33 99 55 99 91c0 37 -31 63 -78 63c-55 0 -91 -34 -94 -89l-70 5c4 88 69 146 164 146c85 0 148 -53 148 -125c0 -63 -30 -96 -122 -139c-38 -18 -63 -30 -74 -37c-11 -6 -19 -12 -24 -18
c-8 -11 -10 -20 -11 -47z" />
    <glyph glyph-name="three.dnom" horiz-adv-x="370" 
d="M25 141l69 10c7 -63 39 -96 96 -96c51 0 81 26 81 69c0 44 -28 66 -85 66h-36v57h29c51 0 78 22 78 59c0 35 -29 60 -72 60c-45 0 -76 -26 -83 -70l-69 11c11 75 69 122 152 122s142 -48 142 -116c0 -35 -15 -62 -51 -87v-1c43 -22 64 -58 64 -107
c0 -76 -61 -127 -150 -127c-97 0 -157 54 -165 150z" />
    <glyph glyph-name="four.dnom" horiz-adv-x="373" 
d="M232 0v78h-222v65l179 277h114v-278h55v-64h-55v-78h-71zM82 142h150v229h-1z" />
    <glyph glyph-name="five.dnom" horiz-adv-x="388" 
d="M30 108l66 21c11 -48 47 -75 100 -75s92 37 92 86c0 51 -37 85 -92 85c-36 0 -69 -14 -93 -41l-64 18l41 218h236v-64h-183l-18 -98l1 -1c25 17 55 25 88 25c91 0 154 -58 154 -141c0 -86 -69 -150 -162 -150c-85 0 -150 46 -166 117z" />
    <glyph glyph-name="six.dnom" horiz-adv-x="398" 
d="M368 138c0 -88 -65 -148 -160 -148c-115 0 -178 81 -178 217c0 133 75 222 181 222c77 0 129 -39 148 -106l-66 -18c-12 41 -39 61 -82 61c-61 0 -101 -48 -106 -132h2c25 29 65 47 109 47c91 0 152 -58 152 -143zM298 140c0 52 -34 84 -87 84c-52 0 -92 -33 -92 -84
c0 -52 30 -86 89 -86c53 0 90 33 90 86z" />
    <glyph glyph-name="seven.dnom" horiz-adv-x="306" 
d="M51 0l171 355v1h-222v64h301v-59l-171 -361h-79z" />
    <glyph glyph-name="eight.dnom" horiz-adv-x="395" 
d="M30 118c0 51 28 90 76 114v1c-33 17 -53 47 -53 82c0 67 60 114 145 114c84 0 144 -47 144 -114c0 -36 -20 -65 -52 -82v-1c48 -24 75 -63 75 -114c0 -77 -64 -127 -167 -127s-168 50 -168 127zM278 312c0 35 -33 59 -80 59s-78 -24 -78 -59s30 -59 78 -59s80 24 80 59z
M295 127c0 43 -40 72 -97 72s-98 -29 -98 -72c0 -45 38 -73 98 -73s97 28 97 73z" />
    <glyph glyph-name="nine.dnom" horiz-adv-x="390" 
d="M360 223c0 -155 -55 -232 -165 -232c-80 0 -136 42 -152 110l68 17c11 -44 36 -64 84 -64c57 0 92 46 93 127c-23 -25 -57 -38 -100 -38c-95 0 -158 56 -158 141c0 87 65 145 158 145c108 0 172 -77 172 -206zM190 204c55 0 89 30 89 81c0 48 -38 81 -91 81
s-88 -31 -88 -82c0 -49 35 -80 90 -80z" />
    <glyph glyph-name="zero.numr" horiz-adv-x="408" 
d="M30 490c0 135 66 219 174 219c107 0 174 -84 174 -219s-67 -219 -174 -219c-108 0 -174 84 -174 219zM308 490c0 100 -37 156 -104 156s-104 -56 -104 -156s37 -156 104 -156s104 56 104 156z" />
    <glyph glyph-name="one.numr" horiz-adv-x="271" 
d="M130 280v345l-105 -63v73l109 65h66v-420h-70z" />
    <glyph glyph-name="two.numr" horiz-adv-x="372" 
d="M111 343h229v-63h-305v52c0 42 8 73 25 92c20 24 53 44 113 69c76 33 99 55 99 91c0 37 -31 63 -78 63c-55 0 -91 -34 -94 -89l-70 5c4 88 69 146 164 146c85 0 148 -53 148 -125c0 -63 -30 -96 -122 -139c-38 -18 -63 -30 -74 -37c-11 -6 -19 -12 -24 -18
c-8 -11 -10 -20 -11 -47z" />
    <glyph glyph-name="three.numr" horiz-adv-x="370" 
d="M25 421l69 10c7 -63 39 -96 96 -96c51 0 81 26 81 69c0 44 -28 66 -85 66h-36v57h29c51 0 78 22 78 59c0 35 -29 60 -72 60c-45 0 -76 -26 -83 -70l-69 11c11 75 69 122 152 122s142 -48 142 -116c0 -35 -15 -62 -51 -87v-1c43 -22 64 -58 64 -107
c0 -76 -61 -127 -150 -127c-97 0 -157 54 -165 150z" />
    <glyph glyph-name="four.numr" horiz-adv-x="373" 
d="M232 280v78h-222v65l179 277h114v-278h55v-64h-55v-78h-71zM82 422h150v229h-1z" />
    <glyph glyph-name="five.numr" horiz-adv-x="388" 
d="M30 388l66 21c11 -48 47 -75 100 -75s92 37 92 86c0 51 -37 85 -92 85c-36 0 -69 -14 -93 -41l-64 18l41 218h236v-64h-183l-18 -98l1 -1c25 17 55 25 88 25c91 0 154 -58 154 -141c0 -86 -69 -150 -162 -150c-85 0 -150 46 -166 117z" />
    <glyph glyph-name="six.numr" horiz-adv-x="398" 
d="M368 418c0 -88 -65 -148 -160 -148c-115 0 -178 81 -178 217c0 133 75 222 181 222c77 0 129 -39 148 -106l-66 -18c-12 41 -39 61 -82 61c-61 0 -101 -48 -106 -132h2c25 29 65 47 109 47c91 0 152 -58 152 -143zM298 420c0 52 -34 84 -87 84c-52 0 -92 -33 -92 -84
c0 -52 30 -86 89 -86c53 0 90 33 90 86z" />
    <glyph glyph-name="seven.numr" horiz-adv-x="306" 
d="M51 280l171 355v1h-222v64h301v-59l-171 -361h-79z" />
    <glyph glyph-name="eight.numr" horiz-adv-x="395" 
d="M30 398c0 51 28 90 76 114v1c-33 17 -53 47 -53 82c0 67 60 114 145 114c84 0 144 -47 144 -114c0 -36 -20 -65 -52 -82v-1c48 -24 75 -63 75 -114c0 -77 -64 -127 -167 -127s-168 50 -168 127zM278 592c0 35 -33 59 -80 59s-78 -24 -78 -59s30 -59 78 -59s80 24 80 59z
M295 407c0 43 -40 72 -97 72s-98 -29 -98 -72c0 -45 38 -73 98 -73s97 28 97 73z" />
    <glyph glyph-name="nine.numr" horiz-adv-x="390" 
d="M360 503c0 -155 -55 -232 -165 -232c-80 0 -136 42 -152 110l68 17c11 -44 36 -64 84 -64c57 0 92 46 93 127c-23 -25 -57 -38 -100 -38c-95 0 -158 56 -158 141c0 87 65 145 158 145c108 0 172 -77 172 -206zM190 484c55 0 89 30 89 81c0 48 -38 81 -91 81
s-88 -31 -88 -82c0 -49 35 -80 90 -80z" />
    <glyph glyph-name="zero.sups" horiz-adv-x="408" 
d="M30 590c0 135 66 219 174 219c107 0 174 -84 174 -219s-67 -219 -174 -219c-108 0 -174 84 -174 219zM308 590c0 100 -37 156 -104 156s-104 -56 -104 -156s37 -156 104 -156s104 56 104 156z" />
    <glyph glyph-name="one.sups" horiz-adv-x="271" 
d="M130 380v345l-105 -63v73l109 65h66v-420h-70z" />
    <glyph glyph-name="two.sups" horiz-adv-x="372" 
d="M111 443h229v-63h-305v52c0 42 8 73 25 92c20 24 53 44 113 69c76 33 99 55 99 91c0 37 -31 63 -78 63c-55 0 -91 -34 -94 -89l-70 5c4 88 69 146 164 146c85 0 148 -53 148 -125c0 -63 -30 -96 -122 -139c-38 -18 -63 -30 -74 -37c-11 -6 -19 -12 -24 -18
c-8 -11 -10 -20 -11 -47z" />
    <glyph glyph-name="three.sups" horiz-adv-x="370" 
d="M25 521l69 10c7 -63 39 -96 96 -96c51 0 81 26 81 69c0 44 -28 66 -85 66h-36v57h29c51 0 78 22 78 59c0 35 -29 60 -72 60c-45 0 -76 -26 -83 -70l-69 11c11 75 69 122 152 122s142 -48 142 -116c0 -35 -15 -62 -51 -87v-1c43 -22 64 -58 64 -107
c0 -76 -61 -127 -150 -127c-97 0 -157 54 -165 150z" />
    <glyph glyph-name="four.sups" horiz-adv-x="373" 
d="M232 380v78h-222v65l179 277h114v-278h55v-64h-55v-78h-71zM82 522h150v229h-1z" />
    <glyph glyph-name="five.sups" horiz-adv-x="388" 
d="M30 488l66 21c11 -48 47 -75 100 -75s92 37 92 86c0 51 -37 85 -92 85c-36 0 -69 -14 -93 -41l-64 18l41 218h236v-64h-183l-18 -98l1 -1c25 17 55 25 88 25c91 0 154 -58 154 -141c0 -86 -69 -150 -162 -150c-85 0 -150 46 -166 117z" />
    <glyph glyph-name="six.sups" horiz-adv-x="398" 
d="M368 518c0 -88 -65 -148 -160 -148c-115 0 -178 81 -178 217c0 133 75 222 181 222c77 0 129 -39 148 -106l-66 -18c-12 41 -39 61 -82 61c-61 0 -101 -48 -106 -132h2c25 29 65 47 109 47c91 0 152 -58 152 -143zM298 520c0 52 -34 84 -87 84c-52 0 -92 -33 -92 -84
c0 -52 30 -86 89 -86c53 0 90 33 90 86z" />
    <glyph glyph-name="seven.sups" horiz-adv-x="306" 
d="M51 380l171 355v1h-222v64h301v-59l-171 -361h-79z" />
    <glyph glyph-name="eight.sups" horiz-adv-x="395" 
d="M30 498c0 51 28 90 76 114v1c-33 17 -53 47 -53 82c0 67 60 114 145 114c84 0 144 -47 144 -114c0 -36 -20 -65 -52 -82v-1c48 -24 75 -63 75 -114c0 -77 -64 -127 -167 -127s-168 50 -168 127zM278 692c0 35 -33 59 -80 59s-78 -24 -78 -59s30 -59 78 -59s80 24 80 59z
M295 507c0 43 -40 72 -97 72s-98 -29 -98 -72c0 -45 38 -73 98 -73s97 28 97 73z" />
    <glyph glyph-name="nine.sups" horiz-adv-x="390" 
d="M360 603c0 -155 -55 -232 -165 -232c-80 0 -136 42 -152 110l68 17c11 -44 36 -64 84 -64c57 0 92 46 93 127c-23 -25 -57 -38 -100 -38c-95 0 -158 56 -158 141c0 87 65 145 158 145c108 0 172 -77 172 -206zM190 584c55 0 89 30 89 81c0 48 -38 81 -91 81
s-88 -31 -88 -82c0 -49 35 -80 90 -80z" />
    <glyph glyph-name="fraction" unicode="&#x2044;" horiz-adv-x="206" 
d="M-111 -70l-58 33l488 812l56 -35z" />
    <glyph glyph-name="onehalf" unicode="&#xbd;" horiz-adv-x="849" 
d="M130 280v345l-105 -63v73l109 65h66v-420h-70zM160 -70l-58 33l488 812l56 -35zM588 63h229v-63h-305v52c0 42 8 73 25 92c20 24 53 44 113 69c76 33 99 55 99 91c0 37 -31 63 -78 63c-55 0 -91 -34 -94 -89l-70 5c4 88 69 146 164 146c85 0 148 -53 148 -125
c0 -63 -30 -96 -122 -139c-38 -18 -63 -30 -74 -37c-11 -6 -19 -12 -24 -18c-8 -11 -10 -20 -11 -47z" />
    <glyph glyph-name="onequarter" unicode="&#xbc;" horiz-adv-x="820" 
d="M130 280v345l-105 -63v73l109 65h66v-420h-70zM160 -70l-58 33l488 812l56 -35zM679 0v78h-222v65l179 277h114v-278h55v-64h-55v-78h-71zM529 142h150v229h-1z" />
    <glyph glyph-name="threequarters" unicode="&#xbe;" horiz-adv-x="919" 
d="M25 421l69 10c7 -63 39 -96 96 -96c51 0 81 26 81 69c0 44 -28 66 -85 66h-36v57h29c51 0 78 22 78 59c0 35 -29 60 -72 60c-45 0 -76 -26 -83 -70l-69 11c11 75 69 122 152 122s142 -48 142 -116c0 -35 -15 -62 -51 -87v-1c43 -22 64 -58 64 -107
c0 -76 -61 -127 -150 -127c-97 0 -157 54 -165 150zM259 -70l-58 33l488 812l56 -35zM778 0v78h-222v65l179 277h114v-278h55v-64h-55v-78h-71zM628 142h150v229h-1z" />
    <glyph glyph-name="oneeighth" unicode="&#x215b;" horiz-adv-x="872" 
d="M130 280v345l-105 -63v73l109 65h66v-420h-70zM160 -70l-58 33l488 812l56 -35zM507 118c0 51 28 90 76 114v1c-33 17 -53 47 -53 82c0 67 60 114 145 114c84 0 144 -47 144 -114c0 -36 -20 -65 -52 -82v-1c48 -24 75 -63 75 -114c0 -77 -64 -127 -167 -127
s-168 50 -168 127zM755 312c0 35 -33 59 -80 59s-78 -24 -78 -59s30 -59 78 -59s80 24 80 59zM772 127c0 43 -40 72 -97 72s-98 -29 -98 -72c0 -45 38 -73 98 -73s97 28 97 73z" />
    <glyph glyph-name="threeeighths" unicode="&#x215c;" horiz-adv-x="971" 
d="M25 421l69 10c7 -63 39 -96 96 -96c51 0 81 26 81 69c0 44 -28 66 -85 66h-36v57h29c51 0 78 22 78 59c0 35 -29 60 -72 60c-45 0 -76 -26 -83 -70l-69 11c11 75 69 122 152 122s142 -48 142 -116c0 -35 -15 -62 -51 -87v-1c43 -22 64 -58 64 -107
c0 -76 -61 -127 -150 -127c-97 0 -157 54 -165 150zM259 -70l-58 33l488 812l56 -35zM606 118c0 51 28 90 76 114v1c-33 17 -53 47 -53 82c0 67 60 114 145 114c84 0 144 -47 144 -114c0 -36 -20 -65 -52 -82v-1c48 -24 75 -63 75 -114c0 -77 -64 -127 -167 -127
s-168 50 -168 127zM854 312c0 35 -33 59 -80 59s-78 -24 -78 -59s30 -59 78 -59s80 24 80 59zM871 127c0 43 -40 72 -97 72s-98 -29 -98 -72c0 -45 38 -73 98 -73s97 28 97 73z" />
    <glyph glyph-name="fiveeighths" unicode="&#x215d;" horiz-adv-x="989" 
d="M30 388l66 21c11 -48 47 -75 100 -75s92 37 92 86c0 51 -37 85 -92 85c-36 0 -69 -14 -93 -41l-64 18l41 218h236v-64h-183l-18 -98l1 -1c25 17 55 25 88 25c91 0 154 -58 154 -141c0 -86 -69 -150 -162 -150c-85 0 -150 46 -166 117zM277 -70l-58 33l488 812l56 -35z
M624 118c0 51 28 90 76 114v1c-33 17 -53 47 -53 82c0 67 60 114 145 114c84 0 144 -47 144 -114c0 -36 -20 -65 -52 -82v-1c48 -24 75 -63 75 -114c0 -77 -64 -127 -167 -127s-168 50 -168 127zM872 312c0 35 -33 59 -80 59s-78 -24 -78 -59s30 -59 78 -59s80 24 80 59z
M889 127c0 43 -40 72 -97 72s-98 -29 -98 -72c0 -45 38 -73 98 -73s97 28 97 73z" />
    <glyph glyph-name="seveneighths" unicode="&#x215e;" horiz-adv-x="877" 
d="M51 280l171 355v1h-222v64h301v-59l-171 -361h-79zM165 -70l-58 33l488 812l56 -35zM512 118c0 51 28 90 76 114v1c-33 17 -53 47 -53 82c0 67 60 114 145 114c84 0 144 -47 144 -114c0 -36 -20 -65 -52 -82v-1c48 -24 75 -63 75 -114c0 -77 -64 -127 -167 -127
s-168 50 -168 127zM760 312c0 35 -33 59 -80 59s-78 -24 -78 -59s30 -59 78 -59s80 24 80 59zM777 127c0 43 -40 72 -97 72s-98 -29 -98 -72c0 -45 38 -73 98 -73s97 28 97 73z" />
    <glyph glyph-name="asterisk" unicode="*" horiz-adv-x="489" 
d="M139 340l-49 44l93 111l-122 74l33 54l118 -68v144h65v-144l118 68l33 -54l-122 -74l93 -111l-49 -44l-105 130z" />
    <glyph glyph-name="backslash" unicode="\" horiz-adv-x="445" 
d="M374 -39l-358 753l56 25l357 -755z" />
    <glyph glyph-name="periodcentered" unicode="&#xb7;" horiz-adv-x="241" 
d="M62 321v116h119v-116h-119z" />
    <glyph glyph-name="bullet" unicode="&#x2022;" horiz-adv-x="358" 
d="M91 380c0 52 35 90 88 90s89 -38 89 -90s-36 -89 -89 -89s-88 37 -88 89z" />
    <glyph glyph-name="colon" unicode=":" horiz-adv-x="301" 
d="M91 340v116h119v-116h-119zM91 0v116h119v-116h-119z" />
    <glyph glyph-name="comma" unicode="," horiz-adv-x="303" 
d="M96 -104v44c33 7 47 23 47 60h-52v113h122v-98c0 -73 -41 -115 -117 -119z" />
    <glyph glyph-name="ellipsis" unicode="&#x2026;" horiz-adv-x="765" 
d="M323 0v116h119v-116h-119zM91 0v116h119v-116h-119zM556 0v116h119v-116h-119z" />
    <glyph glyph-name="exclam" unicode="!" horiz-adv-x="390" 
d="M154 206v494h83v-494h-83zM136 0v116h119v-116h-119z" />
    <glyph glyph-name="exclamdown" unicode="&#xa1;" horiz-adv-x="310" 
d="M96 530h119v-116h-119v116zM114 324h83v-494h-83v494z" />
    <glyph glyph-name="numbersign" unicode="#" horiz-adv-x="786" 
d="M713 446h-153l-33 -187h153l-12 -71h-154l-33 -188h-78l33 188h-145l-33 -188h-77l33 188h-153l12 71h154l33 187h-154l12 70h154l33 184h77l-33 -184h145l33 184h78l-33 -184h153zM449 259l33 187h-145l-33 -187h145z" />
    <glyph glyph-name="period" unicode="." horiz-adv-x="301" 
d="M91 0v116h119v-116h-119z" />
    <glyph glyph-name="question" unicode="?" horiz-adv-x="590" 
d="M224 190v64c0 61 30 104 99 144c75 44 104 80 104 135c0 61 -51 104 -119 104c-99 0 -150 -55 -157 -150l-82 4c4 130 94 224 239 224c109 0 202 -75 202 -182c0 -83 -42 -136 -141 -192c-51 -31 -65 -51 -65 -94v-57h-80zM207 0v116h119v-116h-119z" />
    <glyph glyph-name="questiondown" unicode="&#xbf;" horiz-adv-x="590" 
d="M383 530v-116h-119v116h119zM366 340v-64c0 -61 -30 -104 -99 -144c-75 -44 -104 -80 -104 -135c0 -61 51 -104 119 -104c99 0 150 55 157 150l82 -4c-4 -130 -94 -224 -239 -224c-109 0 -202 75 -202 182c0 83 42 136 141 192c51 31 65 51 65 94v57h80z" />
    <glyph glyph-name="quotedbl" unicode="&#x22;" horiz-adv-x="387" 
d="M91 477v223h73v-223h-73zM223 477v223h73v-223h-73z" />
    <glyph glyph-name="quotesingle" unicode="'" horiz-adv-x="255" 
d="M91 477v223h73v-223h-73z" />
    <glyph glyph-name="semicolon" unicode=";" horiz-adv-x="303" 
d="M96 -104v44c33 7 47 23 47 60h-52v113h122v-98c0 -73 -41 -115 -117 -119zM93 340v116h119v-116h-119z" />
    <glyph glyph-name="slash" unicode="/" horiz-adv-x="445" 
d="M71 -38l-55 23l357 755l56 -25z" />
    <glyph glyph-name="underscore" unicode="_" horiz-adv-x="603" 
d="M51 -149v69h501v-69h-501z" />
    <glyph glyph-name="braceleft" unicode="{" horiz-adv-x="365" 
d="M142 -37v217c0 45 -13 59 -53 59h-28v92h28c40 0 53 12 53 59v197c0 100 40 144 132 144h71v-79h-57c-48 0 -66 -23 -66 -84v-190c0 -59 -32 -92 -73 -92v-2c41 0 73 -33 73 -93v-209c0 -61 18 -85 66 -85h57v-78h-71c-92 0 -132 43 -132 144z" />
    <glyph glyph-name="braceright" unicode="}" horiz-adv-x="365" 
d="M91 -181h-71v78h57c48 0 66 24 66 85v209c0 60 32 93 73 93v2c-41 0 -73 33 -73 92v190c0 61 -18 84 -66 84h-57v79h71c92 0 132 -44 132 -144v-197c0 -47 13 -59 53 -59h28v-92h-28c-40 0 -53 -14 -53 -59v-217c0 -101 -40 -144 -132 -144z" />
    <glyph glyph-name="bracketleft" unicode="[" horiz-adv-x="309" 
d="M86 -181v912h202v-74h-123v-764h123v-74h-202z" />
    <glyph glyph-name="bracketright" unicode="]" horiz-adv-x="309" 
d="M223 -181h-202v74h123v764h-123v74h202v-912z" />
    <glyph glyph-name="parenleft" unicode="(" horiz-adv-x="366" 
d="M91 295c0 187 63 339 200 492l54 -44c-61 -73 -104 -144 -131 -214s-40 -148 -40 -234s13 -164 40 -234s70 -141 131 -214l-54 -44c-137 153 -200 305 -200 492z" />
    <glyph glyph-name="parenright" unicode=")" horiz-adv-x="366" 
d="M75 -197l-54 44c61 73 104 144 131 214s40 148 40 234s-13 164 -40 234s-70 141 -131 214l54 44c137 -153 200 -305 200 -492s-63 -339 -200 -492z" />
    <glyph glyph-name="braceleft.case" horiz-adv-x="365" 
d="M142 13v217c0 45 -13 59 -53 59h-28v92h28c40 0 53 12 53 59v197c0 100 40 144 132 144h71v-79h-57c-48 0 -66 -23 -66 -84v-190c0 -59 -32 -92 -73 -92v-2c41 0 73 -33 73 -93v-209c0 -61 18 -85 66 -85h57v-78h-71c-92 0 -132 43 -132 144z" />
    <glyph glyph-name="braceright.case" horiz-adv-x="365" 
d="M91 -131h-71v78h57c48 0 66 24 66 85v209c0 60 32 93 73 93v2c-41 0 -73 33 -73 92v190c0 61 -18 84 -66 84h-57v79h71c92 0 132 -44 132 -144v-197c0 -47 13 -59 53 -59h28v-92h-28c-40 0 -53 -14 -53 -59v-217c0 -101 -40 -144 -132 -144z" />
    <glyph glyph-name="bracketleft.case" horiz-adv-x="309" 
d="M86 -131v912h202v-74h-123v-764h123v-74h-202z" />
    <glyph glyph-name="bracketright.case" horiz-adv-x="309" 
d="M223 -131h-202v74h123v764h-123v74h202v-912z" />
    <glyph glyph-name="parenleft.case" horiz-adv-x="366" 
d="M91 345c0 187 63 339 200 492l54 -44c-61 -73 -104 -144 -131 -214s-40 -148 -40 -234s13 -164 40 -234s70 -141 131 -214l-54 -44c-137 153 -200 305 -200 492z" />
    <glyph glyph-name="parenright.case" horiz-adv-x="366" 
d="M75 -147l-54 44c61 73 104 144 131 214s40 148 40 234s-13 164 -40 234s-70 141 -131 214l54 44c137 -153 200 -305 200 -492s-63 -339 -200 -492z" />
    <glyph glyph-name="emdash" unicode="&#x2014;" horiz-adv-x="840" 
d="M51 259v75h738v-75h-738z" />
    <glyph glyph-name="endash" unicode="&#x2013;" horiz-adv-x="555" 
d="M51 259v75h453v-75h-453z" />
    <glyph glyph-name="hyphen" unicode="-" horiz-adv-x="363" 
d="M51 259v75h261v-75h-261z" />
    <glyph glyph-name="uni00AD" unicode="&#xad;" horiz-adv-x="363" 
d="M51 259v75h261v-75h-261z" />
    <glyph glyph-name="emdash.ccmp" horiz-adv-x="840" 
d="M51 324v75h738v-75h-738z" />
    <glyph glyph-name="endash.ccmp" horiz-adv-x="555" 
d="M51 324v75h453v-75h-453z" />
    <glyph glyph-name="hyphen.ccmp" horiz-adv-x="363" 
d="M51 324v75h261v-75h-261z" />
    <glyph glyph-name="uni00AD.ccmp" horiz-adv-x="363" 
d="M51 324v75h261v-75h-261z" />
    <glyph glyph-name="guillemotleft" unicode="&#xab;" horiz-adv-x="479" 
d="M338 95l-110 186l110 186h81l-113 -186l113 -186h-81zM181 95l-110 186l110 186h81l-113 -186l113 -186h-81z" />
    <glyph glyph-name="guillemotright" unicode="&#xbb;" horiz-adv-x="479" 
d="M141 95h-81l113 186l-113 186h81l110 -186zM298 95h-81l113 186l-113 186h81l110 -186z" />
    <glyph glyph-name="guilsinglleft" unicode="&#x2039;" horiz-adv-x="322" 
d="M181 95l-110 186l110 186h81l-113 -186l113 -186h-81z" />
    <glyph glyph-name="guilsinglright" unicode="&#x203a;" horiz-adv-x="322" 
d="M141 95h-81l113 186l-113 186h81l110 -186z" />
    <glyph glyph-name="quotedblbase" unicode="&#x201e;" horiz-adv-x="470" 
d="M96 -104v44c33 7 47 23 47 60h-52v113h122v-98c0 -73 -41 -115 -117 -119zM263 -104v44c33 7 47 23 47 60h-52v113h122v-98c0 -73 -41 -115 -117 -119z" />
    <glyph glyph-name="quotedblleft" unicode="&#x201c;" horiz-adv-x="470" 
d="M207 700v-44c-33 -7 -47 -23 -47 -60h52v-113h-122v98c0 73 41 115 117 119zM374 700v-44c-33 -7 -47 -23 -47 -60h52v-113h-122v98c0 73 41 115 117 119z" />
    <glyph glyph-name="quotedblright" unicode="&#x201d;" horiz-adv-x="470" 
d="M96 483v44c33 7 47 23 47 60h-52v113h122v-98c0 -73 -41 -115 -117 -119zM263 483v44c33 7 47 23 47 60h-52v113h122v-98c0 -73 -41 -115 -117 -119z" />
    <glyph glyph-name="quoteleft" unicode="&#x2018;" horiz-adv-x="263" 
d="M187 700v-44c-33 -7 -47 -23 -47 -60h52v-113h-122v98c0 73 41 115 117 119z" />
    <glyph glyph-name="quoteright" unicode="&#x2019;" horiz-adv-x="263" 
d="M76 483v44c33 7 47 23 47 60h-52v113h122v-98c0 -73 -41 -115 -117 -119z" />
    <glyph glyph-name="quotesinglbase" unicode="&#x201a;" horiz-adv-x="303" 
d="M96 -104v44c33 7 47 23 47 60h-52v113h122v-98c0 -73 -41 -115 -117 -119z" />
    <glyph glyph-name="guillemotleft.case" horiz-adv-x="479" 
d="M338 145l-110 186l110 186h81l-113 -186l113 -186h-81zM181 145l-110 186l110 186h81l-113 -186l113 -186h-81z" />
    <glyph glyph-name="guillemotright.case" horiz-adv-x="479" 
d="M141 145h-81l113 186l-113 186h81l110 -186zM298 145h-81l113 186l-113 186h81l110 -186z" />
    <glyph glyph-name="guilsinglleft.case" horiz-adv-x="322" 
d="M181 145l-110 186l110 186h81l-113 -186l113 -186h-81z" />
    <glyph glyph-name="guilsinglright.case" horiz-adv-x="322" 
d="M141 145h-81l113 186l-113 186h81l110 -186z" />
    <glyph glyph-name="uni2003" unicode="&#x2003;" horiz-adv-x="1000" 
 />
    <glyph glyph-name="uni2002" unicode="&#x2002;" horiz-adv-x="750" 
 />
    <glyph glyph-name="uni2007" unicode="&#x2007;" 
 />
    <glyph glyph-name="uni2005" unicode="&#x2005;" horiz-adv-x="250" 
 />
    <glyph glyph-name="uni200A" unicode="&#x200a;" horiz-adv-x="75" 
 />
    <glyph glyph-name="uni2008" unicode="&#x2008;" horiz-adv-x="301" 
 />
    <glyph glyph-name="uni00A0" unicode="&#xa0;" horiz-adv-x="270" 
 />
    <glyph glyph-name="uni2009" unicode="&#x2009;" horiz-adv-x="150" 
 />
    <glyph glyph-name="uni2004" unicode="&#x2004;" horiz-adv-x="350" 
 />
    <glyph glyph-name="uni200B" unicode="&#x200b;" horiz-adv-x="0" 
 />
    <glyph glyph-name="uniFEFF" unicode="&#xfeff;" horiz-adv-x="0" 
 />
    <glyph glyph-name="uni0E3F" unicode="&#xe3f;" 
d="M350 0v-110h-49v110h-205v700h205v101h49v-101h15c61 0 111 -17 148 -50s56 -76 56 -131c0 -68 -31 -121 -83 -144v-2c67 -23 109 -86 109 -166c0 -135 -85 -207 -245 -207zM178 622v-219h123v219h-123zM350 622v-219c91 0 136 37 136 112c0 71 -45 107 -136 107zM178 78
h123v252h-123v-252zM512 207c0 85 -46 122 -162 123v-252c113 3 162 42 162 129z" />
    <glyph glyph-name="cent" unicode="&#xa2;" horiz-adv-x="626" 
d="M501 193l75 -15c-21 -109 -108 -183 -227 -192v-96h-49v96c-145 10 -244 122 -244 279s99 269 244 279v87h49v-87c119 -9 206 -83 227 -192l-75 -15c-15 79 -71 127 -152 136v-416c81 9 137 57 152 136zM300 57v416c-101 -11 -168 -92 -168 -208s67 -197 168 -208z" />
    <glyph glyph-name="currency" unicode="&#xa4;" horiz-adv-x="599" 
d="M487 180l67 -66l-39 -40l-66 65c-43 -35 -93 -53 -150 -53s-107 17 -149 52l-65 -64l-39 40l65 66c-31 43 -46 93 -46 150s15 106 45 149l-64 65l39 39l62 -62c40 35 93 54 152 54s111 -20 152 -56l64 64l39 -39l-65 -66c29 -43 44 -92 44 -148c0 -57 -15 -107 -46 -150z
M447 328c0 104 -58 172 -147 172c-91 0 -149 -67 -149 -172c0 -103 57 -167 149 -167c89 0 147 66 147 167z" />
    <glyph glyph-name="dollar" unicode="$" horiz-adv-x="655" 
d="M351 -15v-95h-49v97c-149 15 -244 98 -257 245l82 13c16 -112 74 -169 175 -181v272c-49 14 -89 28 -121 42c-64 28 -111 75 -111 150c0 108 99 185 232 187v86h49v-88c127 -13 214 -91 233 -202l-82 -16c-20 83 -70 130 -151 141v-235c53 -15 98 -31 133 -47
c71 -32 126 -88 126 -177c0 -112 -105 -192 -259 -192zM302 415v224c-89 -3 -152 -44 -152 -109c0 -56 53 -86 152 -115zM529 176c0 76 -63 112 -178 145v-260c111 0 178 44 178 115z" />
    <glyph glyph-name="Euro" unicode="&#x20ac;" horiz-adv-x="784" 
d="M656 258l83 -11c-17 -163 -129 -262 -297 -262c-160 0 -276 96 -312 253h-105v73h94c-1 9 -1 22 -1 39c0 15 0 26 1 33h-94v73h104c36 160 153 259 313 259c79 0 144 -22 197 -66s86 -103 97 -178l-79 -13c-23 117 -98 181 -215 181c-116 0 -199 -67 -230 -183h288v-73
h-300c-1 -7 -1 -18 -1 -33c0 -9 1 -22 2 -39h229v-73h-217c32 -113 114 -177 229 -177c123 0 198 69 214 197z" />
    <glyph glyph-name="florin" unicode="&#x192;" horiz-adv-x="427" 
d="M255 588l-11 -58h129v-73h-141l-78 -444l-14 -78c-13 -73 -58 -109 -135 -109h-56v73h55c39 0 54 13 61 53l89 505h-115v73h127l14 76c13 71 59 108 135 108h78v-73h-77c-39 0 -54 -13 -61 -53z" />
    <glyph glyph-name="lira" unicode="&#x20a4;" horiz-adv-x="550" 
d="M437 365h83c0 -218 -119 -365 -295 -365h-83v333l-77 -28l-25 64l102 37v78l-77 -28l-25 64l102 37v143h83v-112l164 60l23 -64l-187 -69v-78l164 60l23 -65l-187 -68v-286c131 0 212 111 212 287z" />
    <glyph glyph-name="uni20BD" unicode="&#x20bd;" horiz-adv-x="701" 
d="M224 270v-80h198v-73h-198v-117h-83v117h-101v73h101v80h-101v73h101v357h270c147 0 234 -83 234 -216c0 -135 -86 -214 -234 -214h-187zM224 622v-274h182c107 0 156 43 156 136s-51 138 -156 138h-182z" />
    <glyph glyph-name="uni20A8" unicode="&#x20a8;" horiz-adv-x="581" 
d="M541 630h-117v-2c28 -25 46 -57 54 -98h63v-74h-62c-13 -91 -75 -150 -175 -166v-2l156 -288h-97l-149 285h-148v77h175c88 0 141 33 153 94h-328v74h329c-13 60 -66 92 -154 92h-175v78h475v-70z" />
    <glyph glyph-name="sterling" unicode="&#xa3;" horiz-adv-x="604" 
d="M262 80v-2h288v-78h-480v78h57c65 0 104 49 104 120c0 35 -13 72 -40 110h-121v73h73c-35 47 -55 91 -55 144c0 114 94 190 232 190c73 0 131 -19 176 -57s70 -89 73 -154l-82 -8c-8 95 -65 141 -166 141c-92 0 -147 -43 -147 -112c0 -49 21 -88 60 -144h227v-73h-183
c20 -37 30 -73 30 -110c0 -45 -15 -89 -46 -118z" />
    <glyph glyph-name="uni20A9" unicode="&#x20a9;" horiz-adv-x="911" 
d="M891 430h-86l-15 -82h101v-67h-113l-53 -281h-91l-87 281h-183l-87 -281h-91l-53 281h-113v67h101l-15 82h-86v66h73l-38 204h77l38 -204h187l63 204h72l62 -204h187l38 204h77l-38 -204h73v-66zM455 574l-24 -78h50l-24 78h-2zM182 430l15 -82h115l25 82h-155zM385 348
h142l-26 82h-91zM714 348l15 82h-154l25 -82h114zM241 119l50 162h-82l30 -162h2zM672 119l30 162h-82l50 -162h2z" />
    <glyph glyph-name="yen" unicode="&#xa5;" horiz-adv-x="593" 
d="M583 700l-213 -355h169v-73h-201v-71h201v-73h-201v-128h-83v128h-210v73h210v71h-210v73h178l-213 355h96l189 -327h2l190 327h96z" />
    <glyph glyph-name="uni0E3F.tnum" 
d="M590 207c0 -135 -86 -207 -247 -207h-4v-110h-49v110h-200v700h200v101h49v-101h21c61 0 111 -17 148 -50s56 -76 56 -131c0 -68 -31 -121 -83 -144v-2c67 -24 109 -86 109 -166zM173 622v-219h117v219h-117zM344 622h-5v-219h6c91 0 136 37 136 112
c0 71 -46 107 -137 107zM173 78h117v252h-117v-252zM507 207c0 87 -49 122 -168 123v-252c117 1 168 41 168 129z" />
    <glyph glyph-name="cent.tnum" 
d="M510 193l75 -15c-21 -109 -108 -183 -227 -192v-96h-49v96c-145 10 -244 122 -244 279s99 269 244 279v87h49v-87c119 -9 206 -83 227 -192l-75 -15c-15 79 -71 127 -152 136v-416c81 9 137 57 152 136zM309 57v416c-101 -11 -168 -92 -168 -208s67 -197 168 -208z" />
    <glyph glyph-name="currency.tnum" 
d="M512 180l67 -66l-40 -40l-65 65c-43 -35 -93 -53 -150 -53s-110 18 -149 53l-65 -65l-40 40l66 66c-31 43 -46 93 -46 150s15 106 45 149l-65 65l40 39l62 -63c40 36 93 55 152 55s112 -19 152 -55l63 63l40 -39l-65 -66c29 -43 44 -92 44 -148c0 -57 -15 -107 -46 -150z
M472 328c0 104 -58 172 -147 172c-91 0 -149 -67 -149 -172c0 -103 57 -167 149 -167c89 0 147 66 147 167z" />
    <glyph glyph-name="dollar.tnum" 
d="M349 -15v-95h-49v97c-151 15 -244 98 -257 245l81 13c17 -112 73 -169 176 -181v272c-49 14 -89 28 -121 42c-64 28 -111 75 -111 150c0 108 99 185 232 187v86h49v-88c127 -13 213 -91 233 -202l-82 -16c-21 83 -72 130 -151 141v-235c53 -15 98 -31 133 -47
c71 -32 125 -88 125 -177c0 -112 -103 -192 -258 -192zM300 415v224c-91 -3 -152 -44 -152 -109c0 -56 53 -86 152 -115zM527 176c0 76 -63 112 -178 145v-260c111 0 178 44 178 115z" />
    <glyph glyph-name="Euro.tnum" 
d="M532 259l83 -11c-14 -158 -116 -263 -250 -263c-133 0 -233 96 -264 253h-86v73h76c-1 9 -1 22 -1 39c0 15 0 26 1 33h-76v73h85c15 79 47 142 94 189c48 47 105 70 171 70c129 0 229 -98 247 -244l-82 -14c-19 115 -78 180 -165 180c-89 0 -159 -68 -186 -181h237v-73
h-247c-1 -7 -1 -18 -1 -33c0 -17 0 -30 1 -39h176v-73h-165c27 -111 96 -175 185 -175c91 0 151 71 167 196z" />
    <glyph glyph-name="florin.tnum" 
d="M409 588l-11 -58h129v-73h-140l-79 -444l-14 -78c-13 -73 -58 -109 -135 -109h-56v73h55c39 0 54 13 61 53l11 62l79 443h-116v73h127l14 76c13 71 59 108 135 108h78v-73h-77c-39 0 -54 -13 -61 -53z" />
    <glyph glyph-name="lira.tnum" 
d="M481 365h83c0 -218 -119 -365 -295 -365h-83v333l-77 -28l-24 64l101 37v78l-77 -28l-24 64l101 37v143h83v-112l164 60l24 -64l-188 -69v-78l164 60l24 -65l-188 -69v-285c131 0 212 111 212 287z" />
    <glyph glyph-name="uni20BD.tnum" 
d="M195 270v-80h178v-73h-178v-117h-83v117h-72v73h72v80h-72v73h72v357h254c147 0 234 -83 234 -216c0 -135 -86 -214 -234 -214h-171zM195 622v-274h166c107 0 156 43 156 136s-51 138 -156 138h-166z" />
    <glyph glyph-name="uni20A8.tnum" 
d="M562 630h-117v-2c29 -25 47 -58 54 -98h63v-74h-62c-12 -89 -75 -150 -174 -166v-2l155 -288h-96l-150 285h-148v77h175c88 0 141 33 154 94h-329v74h329c-13 60 -66 92 -154 92h-175v78h475v-70z" />
    <glyph glyph-name="sterling.tnum" 
d="M268 80v-2h288v-78h-480v78h57c65 0 103 49 103 120c0 39 -14 73 -39 110h-121v73h72c-33 47 -54 91 -54 144c0 115 92 190 231 190c73 0 131 -19 176 -57s70 -89 73 -154l-82 -8c-8 94 -63 141 -166 141c-92 0 -147 -43 -147 -112c0 -51 21 -89 61 -144h226v-73h-182
c19 -35 29 -72 29 -110c0 -45 -16 -89 -45 -118z" />
    <glyph glyph-name="uni20A9.tnum" 
d="M645 485h-50l-10 -69h60v-67h-69l-48 -349h-91l-97 349h-32l-97 -349h-90l-48 349h-68v67h59l-10 69h-49v66h40l-20 149h78l18 -149h407l18 149h78l-20 -149h41v-66zM130 485l8 -69h121l20 69h-149zM511 416l8 69h-149l20 -69h121zM177 119l64 230h-95l29 -230h2z
M474 119l29 230h-95l64 -230h2z" />
    <glyph glyph-name="yen.tnum" 
d="M625 700l-219 -355h167v-73h-206v-71h206v-73h-206v-128h-84v128h-205v73h205v71h-205v73h166l-219 355h96l203 -340h2l203 340h96z" />
    <glyph glyph-name="uni207B" unicode="&#x207b;" horiz-adv-x="402" 
d="M61 180v58h281v-58h-281z" />
    <glyph glyph-name="plus" unicode="+" horiz-adv-x="590" 
d="M529 401v-67h-198v-213h-71v213h-199v67h199v213h71v-213h198z" />
    <glyph glyph-name="minus" unicode="&#x2212;" horiz-adv-x="540" 
d="M61 334v67h418v-67h-418z" />
    <glyph glyph-name="multiply" unicode="&#xd7;" horiz-adv-x="543" 
d="M110 131l-49 49l164 162l-164 162l49 49l161 -164l162 164l49 -49l-164 -162l164 -162l-49 -49l-162 164z" />
    <glyph glyph-name="divide" unicode="&#xf7;" horiz-adv-x="540" 
d="M200 565c0 39 32 71 69 71c40 0 71 -31 71 -71c0 -39 -31 -70 -71 -70c-39 0 -69 31 -69 70zM61 334v67h418v-67h-418zM200 165c0 39 30 70 69 70c40 0 71 -31 71 -70c0 -40 -31 -70 -71 -70c-39 0 -69 30 -69 70z" />
    <glyph glyph-name="equal" unicode="=" horiz-adv-x="553" 
d="M61 411v72h432v-72h-432zM61 223v72h432v-72h-432z" />
    <glyph glyph-name="notequal" unicode="&#x2260;" horiz-adv-x="553" 
d="M493 411h-153l-65 -116h218v-72h-258l-62 -110l-47 28l46 82h-111v72h151l65 116h-216v72h256l62 110l48 -27l-47 -83h113v-72z" />
    <glyph glyph-name="greater" unicode="&#x3e;" horiz-adv-x="551" 
d="M102 83l-41 63l344 205l-344 205l41 63l388 -234v-68z" />
    <glyph glyph-name="less" unicode="&#x3c;" horiz-adv-x="551" 
d="M449 83l-388 234v68l388 234l41 -63l-344 -205l344 -205z" />
    <glyph glyph-name="greaterequal" unicode="&#x2265;" horiz-adv-x="556" 
d="M106 124l-39 60l347 208l-347 207l39 61l389 -234v-68zM61 0v73h434v-73h-434z" />
    <glyph glyph-name="lessequal" unicode="&#x2264;" horiz-adv-x="556" 
d="M450 124l-389 234v68l389 234l39 -61l-347 -207l347 -208zM495 0h-434v73h434v-73z" />
    <glyph glyph-name="plusminus" unicode="&#xb1;" horiz-adv-x="591" 
d="M260 199v194h-199v67h199v193h71v-193h198v-67h-198v-194h-71zM62 137h468v-68h-468v68z" />
    <glyph glyph-name="approxequal" unicode="&#x2248;" horiz-adv-x="610" 
d="M129 364l-68 20c17 84 69 132 140 132c45 0 75 -16 123 -47c35 -23 57 -34 81 -34c37 0 57 22 76 82l68 -22c-20 -83 -70 -131 -141 -131c-45 0 -78 17 -123 46c-36 23 -56 34 -81 34c-36 0 -58 -21 -75 -80zM129 189l-68 20c17 84 69 132 140 132c45 0 75 -16 123 -47
c35 -23 57 -34 81 -34c37 0 57 22 76 82l68 -22c-20 -83 -70 -131 -141 -131c-45 0 -78 17 -123 46c-36 23 -56 34 -81 34c-36 0 -58 -21 -75 -80z" />
    <glyph glyph-name="asciitilde" unicode="~" horiz-adv-x="634" 
d="M132 273l-71 21c19 89 72 139 147 139c48 0 79 -17 130 -49c37 -24 59 -36 84 -36c39 0 60 23 80 86l71 -23c-21 -88 -73 -138 -148 -138c-47 0 -81 17 -129 48c-37 24 -58 36 -85 36c-39 0 -60 -23 -79 -84z" />
    <glyph glyph-name="logicalnot" unicode="&#xac;" horiz-adv-x="621" 
d="M478 174v183h-417v78h500v-261h-83z" />
    <glyph glyph-name="infinity" unicode="&#x221e;" horiz-adv-x="723" 
d="M61 303c0 111 69 193 164 193c56 0 110 -37 137 -93c27 55 81 93 136 93c95 0 164 -82 164 -193s-69 -193 -164 -193c-55 0 -109 38 -136 93c-27 -56 -81 -93 -137 -93c-95 0 -164 82 -164 193zM337 303c-24 83 -61 124 -110 124c-59 0 -96 -48 -96 -124s37 -124 96 -124
c49 0 86 41 110 124zM592 303c0 76 -37 124 -96 124c-48 0 -86 -43 -110 -124c24 -81 62 -124 110 -124c59 0 96 48 96 124z" />
    <glyph glyph-name="emptyset" unicode="&#x2205;" horiz-adv-x="839" 
d="M788 350c4 -203 -164 -369 -369 -365c-82 0 -154 22 -216 67l-90 -103l-51 43l90 103c-64 67 -101 156 -101 255c-3 203 164 369 368 365c80 0 152 -22 215 -65l93 106l51 -44l-92 -106c65 -65 102 -156 102 -256zM202 153l383 440c-49 33 -104 49 -166 49
c-163 3 -290 -126 -288 -292c0 -77 26 -146 71 -197zM708 350c0 77 -27 147 -72 199l-384 -441c48 -33 104 -50 167 -50c163 -3 292 126 289 292z" />
    <glyph glyph-name="integral" unicode="&#x222b;" horiz-adv-x="481" 
d="M61 -240v78c108 0 138 26 138 125v584c0 145 60 198 222 198v-78c-108 0 -139 -26 -139 -125v-584c0 -145 -60 -198 -221 -198z" />
    <glyph glyph-name="product" unicode="&#x220f;" horiz-adv-x="777" 
d="M165 -141v763h-130v78h707v-78h-130v-763h-82v763h-282v-763h-83z" />
    <glyph glyph-name="summation" unicode="&#x2211;" horiz-adv-x="603" 
d="M71 -100v72l256 328l-256 328v72h487v-78h-381l257 -322l-257 -322h381v-78h-487z" />
    <glyph glyph-name="radical" unicode="&#x221a;" horiz-adv-x="658" 
d="M555 700h92l-284 -700h-78l-138 338h-126v78h182l119 -304h2z" />
    <glyph glyph-name="partialdiff" unicode="&#x2202;" horiz-adv-x="582" 
d="M537 420c0 -290 -87 -435 -260 -435c-143 0 -231 93 -231 245c0 165 86 270 223 270c67 0 128 -13 182 -40c-6 167 -53 250 -142 250c-30 0 -63 -18 -98 -53l-54 55c45 51 99 76 152 76c147 0 228 -131 228 -368zM451 379c-59 31 -118 46 -175 46
c-95 0 -148 -71 -148 -195c0 -103 58 -167 149 -167c108 0 169 108 174 316z" />
    <glyph glyph-name="percent" unicode="%" horiz-adv-x="1003" 
d="M295 -72l-63 36l487 811l62 -38zM61 490c0 135 67 219 175 219c109 0 177 -84 177 -219s-68 -219 -177 -219c-108 0 -175 84 -175 219zM338 490c0 97 -35 151 -102 151c-65 0 -100 -54 -100 -151s35 -151 100 -151c67 0 102 54 102 151zM591 210c0 135 67 219 175 219
c109 0 177 -84 177 -219s-68 -219 -177 -219c-108 0 -175 84 -175 219zM867 210c0 97 -36 151 -101 151s-100 -54 -100 -151s35 -151 100 -151s101 54 101 151z" />
    <glyph glyph-name="perthousand" unicode="&#x2030;" horiz-adv-x="1414" 
d="M295 -72l-63 36l487 811l62 -38zM61 490c0 135 67 219 175 219c109 0 177 -84 177 -219s-68 -219 -177 -219c-108 0 -175 84 -175 219zM338 490c0 97 -35 151 -102 151c-65 0 -100 -54 -100 -151s35 -151 100 -151c67 0 102 54 102 151zM591 210c0 135 67 219 175 219
c109 0 177 -84 177 -219s-68 -219 -177 -219c-108 0 -175 84 -175 219zM1002 210c0 135 67 219 175 219c109 0 177 -84 177 -219s-68 -219 -177 -219c-108 0 -175 84 -175 219zM867 210c0 97 -36 151 -101 151s-100 -54 -100 -151s35 -151 100 -151s101 54 101 151z
M1279 210c0 97 -35 151 -102 151c-64 0 -100 -54 -100 -151s36 -151 100 -151c67 0 102 54 102 151z" />
    <glyph glyph-name="uni207A" unicode="&#x207a;" horiz-adv-x="432" 
d="M372 238v-58h-123v-125h-66v125h-122v58h122v126h66v-126h123z" />
    <glyph glyph-name="plus.tnum" 
d="M559 401v-67h-198v-213h-71v213h-199v67h199v213h71v-213h198z" />
    <glyph glyph-name="minus.tnum" 
d="M116 334v67h418v-67h-418z" />
    <glyph glyph-name="multiply.tnum" 
d="M164 131l-49 49l164 162l-164 162l49 49l161 -164l162 164l49 -49l-164 -162l164 -162l-49 -49l-162 164z" />
    <glyph glyph-name="divide.tnum" 
d="M255 565c0 39 32 71 69 71c40 0 71 -31 71 -71c0 -39 -31 -70 -71 -70c-39 0 -69 31 -69 70zM116 334v67h418v-67h-418zM255 165c0 39 30 70 69 70c40 0 71 -31 71 -70c0 -40 -31 -70 -71 -70c-39 0 -69 30 -69 70z" />
    <glyph glyph-name="equal.tnum" 
d="M109 411v72h432v-72h-432zM109 223v72h432v-72h-432z" />
    <glyph glyph-name="notequal.tnum" 
d="M541 411h-153l-65 -116h218v-72h-258l-62 -110l-47 28l46 82h-111v72h151l65 116h-216v72h256l62 110l48 -27l-47 -83h113v-72z" />
    <glyph glyph-name="greater.tnum" 
d="M151 83l-41 63l344 205l-344 205l41 63l388 -234v-68z" />
    <glyph glyph-name="less.tnum" 
d="M498 83l-388 234v68l388 234l41 -63l-344 -205l344 -205z" />
    <glyph glyph-name="greaterequal.tnum" 
d="M153 124l-39 60l347 208l-347 207l39 61l389 -234v-68zM108 0v73h434v-73h-434z" />
    <glyph glyph-name="lessequal.tnum" 
d="M497 124l-389 234v68l389 234l39 -61l-347 -207l347 -208zM542 0h-434v73h434v-73z" />
    <glyph glyph-name="plusminus.tnum" 
d="M289 199v194h-199v67h199v193h71v-193h198v-67h-198v-194h-71zM91 137h468v-68h-468v68z" />
    <glyph glyph-name="approxequal.tnum" 
d="M149 364l-68 20c17 84 69 132 140 132c45 0 75 -16 123 -47c35 -23 57 -34 81 -34c37 0 57 22 76 82l68 -22c-20 -83 -70 -131 -141 -131c-45 0 -78 17 -123 46c-36 23 -56 34 -81 34c-36 0 -58 -21 -75 -80zM149 189l-68 20c17 84 69 132 140 132c45 0 75 -16 123 -47
c35 -23 57 -34 81 -34c37 0 57 22 76 82l68 -22c-20 -83 -70 -131 -141 -131c-45 0 -78 17 -123 46c-36 23 -56 34 -81 34c-36 0 -58 -21 -75 -80z" />
    <glyph glyph-name="percent.tnum" 
d="M30 660c0 135 67 219 176 219s176 -84 176 -219s-67 -219 -176 -219s-176 84 -176 219zM307 660c0 97 -34 151 -101 151c-65 0 -101 -54 -101 -151s36 -151 101 -151c67 0 101 54 101 151zM144 202l-38 66l395 228l38 -65zM268 40c0 135 67 219 175 219
c109 0 177 -84 177 -219s-68 -219 -177 -219c-108 0 -175 84 -175 219zM546 40c0 97 -36 151 -103 151c-65 0 -100 -54 -100 -151s35 -151 100 -151c67 0 103 54 103 151z" />
    <glyph glyph-name="perthousand.tnum" 
d="M29 691c0 135 67 219 176 219c108 0 176 -84 176 -219s-68 -219 -176 -219c-109 0 -176 84 -176 219zM306 691c0 97 -36 150 -101 150s-101 -53 -101 -150s36 -151 101 -151s101 54 101 151zM75 265l-25 69l448 162l24 -68zM15 -1c0 135 67 219 175 219
c45 0 80 -14 106 -43c19 92 79 144 164 144c108 0 175 -86 175 -219c0 -135 -67 -220 -175 -220c-44 0 -79 14 -106 43c-21 -92 -80 -143 -164 -143c-108 0 -175 84 -175 219zM560 100c0 97 -35 151 -102 151c-65 0 -101 -54 -101 -151s36 -151 101 -151
c67 0 102 52 102 151zM293 -1c0 99 -37 152 -102 152s-101 -55 -101 -152s36 -150 101 -150s102 53 102 150z" />
    <glyph glyph-name="arrowup" unicode="&#x2191;" horiz-adv-x="595" 
d="M544 403l-55 -55l-153 165v-472h-78v472l-152 -165l-55 55l246 256z" />
    <glyph glyph-name="uni2197" unicode="&#x2197;" horiz-adv-x="566" 
d="M51 172l336 334l-224 -8l-1 74l353 8l-8 -354l-73 2l7 225l-336 -336z" />
    <glyph glyph-name="arrowright" unicode="&#x2192;" horiz-adv-x="720" 
d="M413 593l256 -247l-256 -247l-53 55l168 156h-477v73h476l-167 155z" />
    <glyph glyph-name="uni2198" unicode="&#x2198;" horiz-adv-x="566" 
d="M51 525l54 55l336 -336l-7 225l73 2l8 -354l-353 8l1 74l224 -8z" />
    <glyph glyph-name="arrowdown" unicode="&#x2193;" horiz-adv-x="595" 
d="M489 353l55 -55l-247 -256l-246 256l55 55l152 -165v472h78v-472z" />
    <glyph glyph-name="uni2199" unicode="&#x2199;" horiz-adv-x="566" 
d="M515 529l-336 -334l224 8l1 -74l-353 -8l8 354l73 -2l-7 -225l336 336z" />
    <glyph glyph-name="arrowleft" unicode="&#x2190;" horiz-adv-x="720" 
d="M669 383v-73h-477l168 -156l-53 -55l-256 247l256 247l53 -55l-167 -155h476z" />
    <glyph glyph-name="uni2196" unicode="&#x2196;" horiz-adv-x="566" 
d="M515 172l-54 -55l-336 336l7 -225l-73 -2l-8 354l353 -8l-1 -74l-224 8z" />
    <glyph glyph-name="arrowboth" unicode="&#x2194;" horiz-adv-x="851" 
d="M542 593l258 -247l-258 -247l-50 54l171 159h-475l171 -159l-51 -54l-257 247l257 247l51 -54l-169 -158h471l-169 158z" />
    <glyph glyph-name="arrowupdn" unicode="&#x2195;" horiz-adv-x="595" 
d="M332 127l158 169l54 -52l-247 -257l-246 257l54 52l157 -168v444l-157 -168l-54 52l246 257l247 -257l-54 -52l-158 169v-446z" />
    <glyph glyph-name="uni21B3" unicode="&#x21b3;" horiz-adv-x="733" 
d="M426 593l256 -247l-256 -247l-53 55l168 156h-440v390h77v-317h362l-167 155z" />
    <glyph glyph-name="lozenge" unicode="&#x25ca;" horiz-adv-x="661" 
d="M276 0l-215 350l215 350h109l215 -350l-215 -350h-109zM330 54l185 296l-185 296l-184 -296z" />
    <glyph glyph-name="uniF8FF" unicode="&#xf8ff;" horiz-adv-x="686" 
d="M50 0v423c-4 154 139 295 292 292c155 3 298 -138 294 -292v-423h-28l-65 65l-68 -65l-63 65l-71 -65l-69 65l-63 -65l-67 65l-66 -65h-26zM287 377c0 40 -31 72 -71 72c-39 0 -71 -32 -71 -72c0 -39 32 -70 71 -70s71 31 71 70zM542 377c0 40 -32 72 -72 72
c-39 0 -70 -32 -70 -72c0 -37 33 -70 70 -70c39 0 72 33 72 70z" />
    <glyph glyph-name="at" unicode="@" horiz-adv-x="807" 
d="M61 292c-3 207 146 367 343 364c211 0 343 -143 343 -348c0 -145 -51 -221 -147 -221c-47 0 -79 17 -95 52h-2c-24 -35 -69 -54 -118 -54c-76 0 -126 43 -126 114c0 59 33 94 112 118c88 25 105 35 105 66c0 28 -27 46 -60 46c-47 0 -76 -25 -85 -74l-69 12
c13 80 69 127 154 127c80 0 134 -52 134 -133v-136c0 -59 15 -78 55 -78c51 0 78 56 78 161c0 177 -106 289 -279 289c-161 0 -280 -126 -280 -305c0 -196 107 -307 284 -307c65 0 126 15 183 46l25 -55c-62 -33 -131 -50 -208 -50c-212 0 -347 137 -347 366zM477 224v80h-2
c-6 -14 -33 -28 -82 -43c-45 -13 -61 -30 -61 -58c0 -35 21 -53 60 -53c49 0 85 30 85 74z" />
    <glyph glyph-name="ampersand" unicode="&#x26;" horiz-adv-x="672" 
d="M647 98l-47 -55l-66 59c-39 -76 -119 -117 -232 -117c-149 0 -241 78 -241 205c0 79 50 155 141 207c-59 55 -82 100 -82 156c0 93 77 162 182 162c104 0 176 -59 191 -158l-77 -13c-15 65 -50 98 -113 98c-64 0 -105 -37 -105 -92c0 -40 14 -66 59 -106l223 -198v146h76
v-213zM473 156l-218 193c-83 -45 -116 -95 -116 -159c0 -81 62 -132 163 -132c88 0 150 34 171 98z" />
    <glyph glyph-name="paragraph" unicode="&#xb6;" horiz-adv-x="574" 
d="M176 -136v535c-80 2 -145 63 -145 150c0 93 64 151 149 151h303v-836h-82v758h-142v-758h-83z" />
    <glyph glyph-name="section" unicode="&#xa7;" horiz-adv-x="632" 
d="M516 -13c0 -98 -78 -172 -191 -172c-59 0 -107 17 -144 51c-37 33 -59 77 -64 130l83 10c10 -75 52 -113 125 -113c63 0 108 38 108 94c0 45 -32 77 -103 105l-108 43c-99 39 -141 84 -141 157c0 48 29 94 86 139c-33 31 -50 69 -50 113c0 99 78 171 190 171
c59 0 107 -17 144 -51c37 -33 59 -77 64 -130l-83 -9c-11 73 -53 112 -125 112c-63 0 -108 -38 -108 -93c0 -47 32 -78 104 -106l108 -43c97 -39 141 -84 141 -157c0 -49 -29 -95 -86 -138c33 -32 50 -70 50 -113zM256 204l113 -44c11 -4 23 -10 36 -17c40 25 64 62 64 95
c0 36 -28 63 -92 88l-113 45c-16 7 -28 12 -35 16c-41 -27 -65 -62 -65 -95c0 -36 28 -63 92 -88z" />
    <glyph glyph-name="copyright" unicode="&#xa9;" horiz-adv-x="717" 
d="M51 324c-3 171 136 309 307 306c171 3 311 -135 308 -306c3 -171 -137 -311 -308 -308c-171 -3 -310 137 -307 308zM609 324c0 146 -107 255 -251 255c-141 3 -254 -112 -251 -255c-3 -143 110 -260 251 -257c143 -3 253 114 251 257zM210 323c0 109 62 183 157 183
c75 0 132 -51 143 -124l-64 -13c-9 49 -38 76 -79 76c-55 0 -89 -47 -89 -122s34 -122 89 -122c41 0 70 27 79 76l64 -13c-11 -73 -68 -124 -143 -124c-95 0 -157 74 -157 183z" />
    <glyph glyph-name="registered" unicode="&#xae;" horiz-adv-x="717" 
d="M666 324c3 -171 -137 -311 -308 -308c-171 -3 -310 137 -307 308c-3 171 136 309 307 306c171 3 311 -135 308 -306zM609 324c0 146 -107 255 -251 255c-141 3 -254 -112 -251 -255c-3 -143 110 -260 251 -257c143 -3 253 114 251 257zM431 285l73 -137h-73l-68 131h-52
v-131h-66v350h144c73 0 118 -41 118 -109c0 -53 -28 -89 -76 -104zM439 389c0 34 -20 51 -59 51h-66v-106h66c37 0 59 20 59 55z" />
    <glyph glyph-name="uni2117" unicode="&#x2117;" horiz-adv-x="717" 
d="M51 324c-3 171 136 309 307 306c171 3 311 -135 308 -306c3 -171 -137 -311 -308 -308c-171 -3 -310 137 -307 308zM609 324c0 146 -107 255 -251 255c-141 3 -254 -112 -251 -255c-3 -143 110 -260 251 -257c143 -3 253 114 251 257zM264 146v350h129
c77 0 122 -41 122 -112c0 -69 -46 -110 -122 -110h-61v-128h-68zM332 331h56c36 0 59 22 59 54c0 35 -21 54 -58 54h-57v-108z" />
    <glyph glyph-name="trademark" unicode="&#x2122;" horiz-adv-x="772" 
d="M146 361v283h-100v56h259v-56h-100v-283h-59zM351 361v339h81l104 -254h1l105 254h80v-339h-59v253h-1l-103 -253h-46l-102 253h-1v-253h-59z" />
    <glyph glyph-name="degree" unicode="&#xb0;" horiz-adv-x="435" 
d="M41 535c0 99 75 170 177 170c101 0 177 -71 177 -170c0 -101 -76 -171 -177 -171c-102 0 -177 70 -177 171zM322 535c0 61 -43 102 -104 102c-63 0 -104 -41 -104 -102s41 -102 104 -102c61 0 104 41 104 102z" />
    <glyph glyph-name="bar" unicode="|" horiz-adv-x="260" 
d="M101 -300v1075h58v-1075h-58z" />
    <glyph glyph-name="brokenbar" unicode="&#xa6;" horiz-adv-x="260" 
d="M101 350v425h58v-425h-58zM101 -300v425h58v-425h-58z" />
    <glyph glyph-name="dagger" unicode="&#x2020;" horiz-adv-x="623" 
d="M270 -196v648h-219v78h219v230h83v-230h219v-78h-219v-648h-83z" />
    <glyph glyph-name="daggerdbl" unicode="&#x2021;" horiz-adv-x="623" 
d="M270 -196v232h-219v78h219v338h-219v78h219v229h83v-229h219v-78h-219v-338h219v-78h-219v-232h-83z" />
    <glyph glyph-name="uni2116" unicode="&#x2116;" horiz-adv-x="1070" 
d="M672 490c0 135 66 219 174 219c107 0 174 -84 174 -219s-67 -219 -174 -219c-108 0 -174 84 -174 219zM81 0v700h97l318 -571h2v571h83v-700h-97l-318 571h-2v-571h-83zM945 490c0 96 -35 149 -99 149s-99 -53 -99 -149s35 -149 99 -149s99 53 99 149zM672 144v70h348
v-70h-348z" />
    <glyph glyph-name="asciicircum" unicode="^" horiz-adv-x="554" 
d="M483 325h-83l-123 279l-122 -279h-84l173 375h66z" />
    <glyph glyph-name="at.case" horiz-adv-x="807" 
d="M61 351c-3 207 146 367 343 364c211 0 343 -143 343 -348c0 -145 -51 -221 -147 -221c-47 0 -79 17 -95 52h-2c-24 -35 -69 -54 -118 -54c-76 0 -126 43 -126 114c0 59 33 94 112 118c88 25 105 35 105 66c0 28 -27 46 -60 46c-47 0 -76 -25 -85 -74l-69 12
c13 80 69 127 154 127c80 0 134 -52 134 -133v-136c0 -59 15 -78 55 -78c51 0 78 56 78 161c0 177 -106 289 -279 289c-161 0 -280 -126 -280 -305c0 -196 107 -307 284 -307c65 0 126 15 183 46l25 -55c-62 -33 -131 -50 -208 -50c-212 0 -347 137 -347 366zM477 283v80h-2
c-6 -14 -33 -28 -82 -43c-45 -13 -61 -30 -61 -58c0 -35 21 -53 60 -53c49 0 85 30 85 74z" />
    <glyph glyph-name="uni0308" unicode="&#x308;" horiz-adv-x="0" 
d="M-276 580v94h96v-94h-96zM-96 580v94h96v-94h-96z" />
    <glyph glyph-name="uni0307" unicode="&#x307;" horiz-adv-x="0" 
d="M-96 590v94h96v-94h-96z" />
    <glyph glyph-name="gravecomb" unicode="&#x300;" horiz-adv-x="0" 
d="M-70 590l-102 116h98l74 -116h-70z" />
    <glyph glyph-name="acutecomb" unicode="&#x301;" horiz-adv-x="0" 
d="M-172 590l74 116h98l-102 -116h-70z" />
    <glyph glyph-name="uni030B" unicode="&#x30b;" horiz-adv-x="0" 
d="M-326 590l74 116h98l-102 -116h-70zM-172 590l74 116h98l-102 -116h-70z" />
    <glyph glyph-name="uni0302" unicode="&#x302;" horiz-adv-x="0" 
d="M0 607l-47 -37l-73 92l-73 -92l-47 37l66 85h108z" />
    <glyph glyph-name="uni030C" unicode="&#x30c;" horiz-adv-x="0" 
d="M-47 702l47 -37l-66 -85h-108l-66 85l47 37l73 -92z" />
    <glyph glyph-name="uni0306" unicode="&#x306;" horiz-adv-x="0" 
d="M-255 701h49c5 -36 35 -56 79 -56c43 0 73 20 78 56h49c-4 -75 -52 -121 -127 -121c-76 0 -124 46 -128 121z" />
    <glyph glyph-name="uni030A" unicode="&#x30a;" horiz-adv-x="0" 
d="M-244 595c0 65 51 114 122 114s122 -47 122 -114c0 -65 -51 -113 -122 -113s-122 48 -122 113zM-56 595c0 39 -27 66 -66 66s-65 -27 -65 -66c0 -37 26 -65 65 -65s66 28 66 65z" />
    <glyph glyph-name="tildecomb" unicode="&#x303;" horiz-adv-x="0" 
d="M-155 607c-16 8 -32 16 -47 16c-19 0 -31 -11 -36 -33h-47c4 57 38 93 87 93c25 0 44 -9 68 -22c16 -8 32 -16 47 -16c19 0 31 11 36 33h47c-4 -57 -38 -93 -87 -93c-25 0 -44 9 -68 22z" />
    <glyph glyph-name="uni0304" unicode="&#x304;" horiz-adv-x="0" 
d="M-267 590v63h267v-63h-267z" />
    <glyph glyph-name="uni0312" unicode="&#x312;" horiz-adv-x="0" 
d="M-4 774v-37c-31 -5 -43 -20 -43 -51h47v-96h-110v83c0 63 37 98 106 101z" />
    <glyph glyph-name="dotbelowcomb" unicode="&#x323;" horiz-adv-x="0" 
d="M-96 -143v94h96v-94h-96z" />
    <glyph glyph-name="uni0326" unicode="&#x326;" horiz-adv-x="0" 
d="M-99 -234v37c28 5 40 20 40 51h-45v96h104v-83c0 -63 -35 -98 -99 -101z" />
    <glyph glyph-name="uni0327" unicode="&#x327;" horiz-adv-x="0" 
d="M0 -125c0 -55 -44 -91 -103 -91c-39 0 -73 13 -102 40l34 41c21 -20 43 -30 68 -30c29 0 48 17 48 41s-20 40 -47 40c-22 0 -40 -9 -55 -26l-43 19l64 119l46 -14l-35 -60c10 4 21 6 34 6c51 0 91 -36 91 -85z" />
    <glyph glyph-name="uni0328" unicode="&#x328;" horiz-adv-x="0" 
d="M-183 -119c0 45 39 96 102 131l42 -12c-52 -29 -78 -62 -78 -99c0 -23 11 -35 34 -35c17 0 37 6 59 18l24 -63c-30 -14 -61 -21 -94 -21c-55 0 -89 30 -89 81z" />
    <glyph glyph-name="uni0335" unicode="&#x335;" horiz-adv-x="0" 
d="M-352 325v69h352v-69h-352z" />
    <glyph glyph-name="uni0336" unicode="&#x336;" horiz-adv-x="0" 
d="M-642 325v69h642v-69h-642z" />
    <glyph glyph-name="uni0337" unicode="&#x337;" horiz-adv-x="0" 
d="M-410 -9l-35 27l410 525l35 -27z" />
    <glyph glyph-name="_646" horiz-adv-x="0" 
d="M0 382l-172 -160v15l-120 -111l-32 34l152 140v-15l140 132z" />
    <glyph glyph-name="uni0338" unicode="&#x338;" horiz-adv-x="0" 
d="M-399 -27l-49 27l400 728l48 -28z" />
    <glyph glyph-name="_648" horiz-adv-x="0" 
d="M0 424l-236 -211v5l-156 -146l-33 35l214 199v-1l176 158z" />
    <glyph glyph-name="_649" horiz-adv-x="0" 
d="M-90 623v87h90v-87h-90z" />
    <glyph glyph-name="_650" horiz-adv-x="0" 
d="M-288 335v59h288v-59h-288z" />
    <glyph glyph-name="acute" unicode="&#xb4;" horiz-adv-x="293" 
d="M61 590l74 116h98l-102 -116h-70z" />
    <glyph glyph-name="breve" unicode="&#x2d8;" horiz-adv-x="369" 
d="M61 701h49c5 -36 35 -56 79 -56c43 0 73 20 78 56h49c-4 -75 -52 -121 -127 -121c-76 0 -124 46 -128 121z" />
    <glyph glyph-name="caron" unicode="&#x2c7;" horiz-adv-x="361" 
d="M254 702l47 -37l-66 -85h-108l-66 85l47 37l73 -92z" />
    <glyph glyph-name="cedilla" unicode="&#xb8;" horiz-adv-x="326" 
d="M266 -125c0 -55 -44 -91 -103 -91c-39 0 -73 13 -102 40l34 41c21 -20 43 -30 68 -30c29 0 48 17 48 41s-20 40 -47 40c-22 0 -40 -9 -55 -26l-43 19l64 119l46 -14l-35 -60c10 4 21 6 34 6c51 0 91 -36 91 -85z" />
    <glyph glyph-name="circumflex" unicode="&#x2c6;" horiz-adv-x="361" 
d="M301 607l-47 -37l-73 92l-73 -92l-47 37l66 85h108z" />
    <glyph glyph-name="dieresis" unicode="&#xa8;" horiz-adv-x="397" 
d="M61 580v94h96v-94h-96zM241 580v94h96v-94h-96z" />
    <glyph glyph-name="dotaccent" unicode="&#x2d9;" horiz-adv-x="217" 
d="M61 590v94h96v-94h-96z" />
    <glyph glyph-name="grave" unicode="`" horiz-adv-x="293" 
d="M163 590l-102 116h98l74 -116h-70z" />
    <glyph glyph-name="hungarumlaut" unicode="&#x2dd;" horiz-adv-x="447" 
d="M61 590l74 116h98l-102 -116h-70zM215 590l74 116h98l-102 -116h-70z" />
    <glyph glyph-name="macron" unicode="&#xaf;" horiz-adv-x="388" 
d="M61 590v63h267v-63h-267z" />
    <glyph glyph-name="ogonek" unicode="&#x2db;" horiz-adv-x="304" 
d="M61 -119c0 45 39 96 102 131l42 -12c-52 -29 -78 -62 -78 -99c0 -23 11 -35 34 -35c17 0 37 6 59 18l24 -63c-30 -14 -61 -21 -94 -21c-55 0 -89 30 -89 81z" />
    <glyph glyph-name="ring" unicode="&#x2da;" horiz-adv-x="366" 
d="M61 595c0 65 51 114 122 114s122 -47 122 -114c0 -65 -51 -113 -122 -113s-122 48 -122 113zM249 595c0 39 -27 66 -66 66s-65 -27 -65 -66c0 -37 26 -65 65 -65s66 28 66 65z" />
    <glyph glyph-name="tilde" unicode="&#x2dc;" horiz-adv-x="406" 
d="M191 607c-16 8 -32 16 -47 16c-19 0 -31 -11 -36 -33h-47c4 57 38 93 87 93c25 0 44 -9 68 -22c16 -8 32 -16 47 -16c19 0 31 11 36 33h47c-4 -57 -38 -93 -87 -93c-25 0 -44 9 -68 22z" />
    </font>
</defs>
</svg>
